%TF.GenerationSoftware,KiCad,Pcbnew,7.0.9*%
%TF.CreationDate,2024-01-16T00:31:27+00:00*%
%TF.ProjectId,AryA-Macropad,41727941-2d4d-4616-9372-6f7061642e6b,1.0*%
%TF.SameCoordinates,Original*%
%TF.FileFunction,Drillmap*%
%TF.FilePolarity,Positive*%
%FSLAX45Y45*%
G04 Gerber Fmt 4.5, Leading zero omitted, Abs format (unit mm)*
G04 Created by KiCad (PCBNEW 7.0.9) date 2024-01-16 00:31:27*
%MOMM*%
%LPD*%
G01*
G04 APERTURE LIST*
%ADD10C,0.100000*%
%ADD11C,0.200000*%
%ADD12C,0.175000*%
%ADD13C,0.250000*%
%ADD14C,0.400000*%
G04 APERTURE END LIST*
D10*
X8016875Y-5794375D02*
G75*
G03*
X7381875Y-6429375I0J-635000D01*
G01*
X7381875Y-11430000D02*
X7381875Y-6429375D01*
X8016875Y-12065000D02*
X19050000Y-12065000D01*
X19685000Y-11430000D02*
X19685000Y-6429375D01*
X8016875Y-5794375D02*
X19050000Y-5794375D01*
X19050000Y-12065000D02*
G75*
G03*
X19685000Y-11430000I0J635000D01*
G01*
X7381875Y-11430000D02*
G75*
G03*
X8016875Y-12065000I635000J0D01*
G01*
X19685005Y-6429375D02*
G75*
G03*
X19050000Y-5794375I-635005J-5D01*
G01*
D11*
D12*
X11215500Y-8675500D02*
X11390500Y-8850500D01*
X11390500Y-8675500D02*
X11215500Y-8850500D01*
X11215500Y-10580500D02*
X11390500Y-10755500D01*
X11390500Y-10580500D02*
X11215500Y-10755500D01*
X12231500Y-8675500D02*
X12406500Y-8850500D01*
X12406500Y-8675500D02*
X12231500Y-8850500D01*
X12231500Y-10580500D02*
X12406500Y-10755500D01*
X12406500Y-10580500D02*
X12231500Y-10755500D01*
X13120500Y-6770500D02*
X13295500Y-6945500D01*
X13295500Y-6770500D02*
X13120500Y-6945500D01*
X13120500Y-8675500D02*
X13295500Y-8850500D01*
X13295500Y-8675500D02*
X13120500Y-8850500D01*
X13120500Y-10580500D02*
X13295500Y-10755500D01*
X13295500Y-10580500D02*
X13120500Y-10755500D01*
X14136500Y-6770500D02*
X14311500Y-6945500D01*
X14311500Y-6770500D02*
X14136500Y-6945500D01*
X14136500Y-8675500D02*
X14311500Y-8850500D01*
X14311500Y-8675500D02*
X14136500Y-8850500D01*
X14136500Y-10580500D02*
X14311500Y-10755500D01*
X14311500Y-10580500D02*
X14136500Y-10755500D01*
X15025500Y-6770500D02*
X15200500Y-6945500D01*
X15200500Y-6770500D02*
X15025500Y-6945500D01*
X15025500Y-8675500D02*
X15200500Y-8850500D01*
X15200500Y-8675500D02*
X15025500Y-8850500D01*
X15025500Y-10580500D02*
X15200500Y-10755500D01*
X15200500Y-10580500D02*
X15025500Y-10755500D01*
X16041500Y-6770500D02*
X16216500Y-6945500D01*
X16216500Y-6770500D02*
X16041500Y-6945500D01*
X16041500Y-8675500D02*
X16216500Y-8850500D01*
X16216500Y-8675500D02*
X16041500Y-8850500D01*
X16041500Y-10580500D02*
X16216500Y-10755500D01*
X16216500Y-10580500D02*
X16041500Y-10755500D01*
X16930500Y-8675500D02*
X17105500Y-8850500D01*
X17105500Y-8675500D02*
X16930500Y-8850500D01*
X16930500Y-10580500D02*
X17105500Y-10755500D01*
X17105500Y-10580500D02*
X16930500Y-10755500D01*
X17946500Y-8675500D02*
X18121500Y-8850500D01*
X18121500Y-8675500D02*
X17946500Y-8850500D01*
X17946500Y-10580500D02*
X18121500Y-10755500D01*
X18121500Y-10580500D02*
X17946500Y-10755500D01*
D13*
X8141875Y-6429375D02*
G75*
G03*
X8141875Y-6429375I-125000J0D01*
G01*
X8141875Y-11430000D02*
G75*
G03*
X8141875Y-11430000I-125000J0D01*
G01*
X19175000Y-6429375D02*
G75*
G03*
X19175000Y-6429375I-125000J0D01*
G01*
X19175000Y-11430000D02*
G75*
G03*
X19175000Y-11430000I-125000J0D01*
G01*
D14*
X11811000Y-8563000D02*
X11811000Y-8963000D01*
X11611000Y-8763000D02*
X12011000Y-8763000D01*
X11811000Y-10468000D02*
X11811000Y-10868000D01*
X11611000Y-10668000D02*
X12011000Y-10668000D01*
X13716000Y-6658000D02*
X13716000Y-7058000D01*
X13516000Y-6858000D02*
X13916000Y-6858000D01*
X13716000Y-8563000D02*
X13716000Y-8963000D01*
X13516000Y-8763000D02*
X13916000Y-8763000D01*
X13716000Y-10468000D02*
X13716000Y-10868000D01*
X13516000Y-10668000D02*
X13916000Y-10668000D01*
X15621000Y-6658000D02*
X15621000Y-7058000D01*
X15421000Y-6858000D02*
X15821000Y-6858000D01*
X15621000Y-8563000D02*
X15621000Y-8963000D01*
X15421000Y-8763000D02*
X15821000Y-8763000D01*
X15621000Y-10468000D02*
X15621000Y-10868000D01*
X15421000Y-10668000D02*
X15821000Y-10668000D01*
X17526000Y-8563000D02*
X17526000Y-8963000D01*
X17326000Y-8763000D02*
X17726000Y-8763000D01*
X17526000Y-10468000D02*
X17526000Y-10868000D01*
X17326000Y-10668000D02*
X17726000Y-10668000D01*
D11*
X7637652Y-12381484D02*
X7637652Y-12181484D01*
X7637652Y-12181484D02*
X7685271Y-12181484D01*
X7685271Y-12181484D02*
X7713842Y-12191008D01*
X7713842Y-12191008D02*
X7732890Y-12210055D01*
X7732890Y-12210055D02*
X7742414Y-12229103D01*
X7742414Y-12229103D02*
X7751937Y-12267198D01*
X7751937Y-12267198D02*
X7751937Y-12295769D01*
X7751937Y-12295769D02*
X7742414Y-12333865D01*
X7742414Y-12333865D02*
X7732890Y-12352912D01*
X7732890Y-12352912D02*
X7713842Y-12371960D01*
X7713842Y-12371960D02*
X7685271Y-12381484D01*
X7685271Y-12381484D02*
X7637652Y-12381484D01*
X7837652Y-12381484D02*
X7837652Y-12248150D01*
X7837652Y-12286246D02*
X7847176Y-12267198D01*
X7847176Y-12267198D02*
X7856699Y-12257674D01*
X7856699Y-12257674D02*
X7875747Y-12248150D01*
X7875747Y-12248150D02*
X7894795Y-12248150D01*
X7961461Y-12381484D02*
X7961461Y-12248150D01*
X7961461Y-12181484D02*
X7951937Y-12191008D01*
X7951937Y-12191008D02*
X7961461Y-12200531D01*
X7961461Y-12200531D02*
X7970985Y-12191008D01*
X7970985Y-12191008D02*
X7961461Y-12181484D01*
X7961461Y-12181484D02*
X7961461Y-12200531D01*
X8085271Y-12381484D02*
X8066223Y-12371960D01*
X8066223Y-12371960D02*
X8056699Y-12352912D01*
X8056699Y-12352912D02*
X8056699Y-12181484D01*
X8190033Y-12381484D02*
X8170985Y-12371960D01*
X8170985Y-12371960D02*
X8161461Y-12352912D01*
X8161461Y-12352912D02*
X8161461Y-12181484D01*
X8418604Y-12381484D02*
X8418604Y-12181484D01*
X8418604Y-12181484D02*
X8485271Y-12324341D01*
X8485271Y-12324341D02*
X8551938Y-12181484D01*
X8551938Y-12181484D02*
X8551938Y-12381484D01*
X8732890Y-12381484D02*
X8732890Y-12276722D01*
X8732890Y-12276722D02*
X8723366Y-12257674D01*
X8723366Y-12257674D02*
X8704319Y-12248150D01*
X8704319Y-12248150D02*
X8666223Y-12248150D01*
X8666223Y-12248150D02*
X8647176Y-12257674D01*
X8732890Y-12371960D02*
X8713842Y-12381484D01*
X8713842Y-12381484D02*
X8666223Y-12381484D01*
X8666223Y-12381484D02*
X8647176Y-12371960D01*
X8647176Y-12371960D02*
X8637652Y-12352912D01*
X8637652Y-12352912D02*
X8637652Y-12333865D01*
X8637652Y-12333865D02*
X8647176Y-12314817D01*
X8647176Y-12314817D02*
X8666223Y-12305293D01*
X8666223Y-12305293D02*
X8713842Y-12305293D01*
X8713842Y-12305293D02*
X8732890Y-12295769D01*
X8828128Y-12248150D02*
X8828128Y-12448150D01*
X8828128Y-12257674D02*
X8847176Y-12248150D01*
X8847176Y-12248150D02*
X8885271Y-12248150D01*
X8885271Y-12248150D02*
X8904319Y-12257674D01*
X8904319Y-12257674D02*
X8913842Y-12267198D01*
X8913842Y-12267198D02*
X8923366Y-12286246D01*
X8923366Y-12286246D02*
X8923366Y-12343388D01*
X8923366Y-12343388D02*
X8913842Y-12362436D01*
X8913842Y-12362436D02*
X8904319Y-12371960D01*
X8904319Y-12371960D02*
X8885271Y-12381484D01*
X8885271Y-12381484D02*
X8847176Y-12381484D01*
X8847176Y-12381484D02*
X8828128Y-12371960D01*
X9009080Y-12362436D02*
X9018604Y-12371960D01*
X9018604Y-12371960D02*
X9009080Y-12381484D01*
X9009080Y-12381484D02*
X8999557Y-12371960D01*
X8999557Y-12371960D02*
X9009080Y-12362436D01*
X9009080Y-12362436D02*
X9009080Y-12381484D01*
X9009080Y-12257674D02*
X9018604Y-12267198D01*
X9018604Y-12267198D02*
X9009080Y-12276722D01*
X9009080Y-12276722D02*
X8999557Y-12267198D01*
X8999557Y-12267198D02*
X9009080Y-12257674D01*
X9009080Y-12257674D02*
X9009080Y-12276722D01*
D12*
X7201875Y-12622500D02*
X7376875Y-12797500D01*
X7376875Y-12622500D02*
X7201875Y-12797500D01*
D11*
X7742414Y-12801484D02*
X7628128Y-12801484D01*
X7685271Y-12801484D02*
X7685271Y-12601484D01*
X7685271Y-12601484D02*
X7666223Y-12630055D01*
X7666223Y-12630055D02*
X7647176Y-12649103D01*
X7647176Y-12649103D02*
X7628128Y-12658627D01*
X7828128Y-12782436D02*
X7837652Y-12791960D01*
X7837652Y-12791960D02*
X7828128Y-12801484D01*
X7828128Y-12801484D02*
X7818604Y-12791960D01*
X7818604Y-12791960D02*
X7828128Y-12782436D01*
X7828128Y-12782436D02*
X7828128Y-12801484D01*
X7904318Y-12601484D02*
X8037652Y-12601484D01*
X8037652Y-12601484D02*
X7951937Y-12801484D01*
X8209080Y-12601484D02*
X8113842Y-12601484D01*
X8113842Y-12601484D02*
X8104318Y-12696722D01*
X8104318Y-12696722D02*
X8113842Y-12687198D01*
X8113842Y-12687198D02*
X8132890Y-12677674D01*
X8132890Y-12677674D02*
X8180509Y-12677674D01*
X8180509Y-12677674D02*
X8199557Y-12687198D01*
X8199557Y-12687198D02*
X8209080Y-12696722D01*
X8209080Y-12696722D02*
X8218604Y-12715769D01*
X8218604Y-12715769D02*
X8218604Y-12763388D01*
X8218604Y-12763388D02*
X8209080Y-12782436D01*
X8209080Y-12782436D02*
X8199557Y-12791960D01*
X8199557Y-12791960D02*
X8180509Y-12801484D01*
X8180509Y-12801484D02*
X8132890Y-12801484D01*
X8132890Y-12801484D02*
X8113842Y-12791960D01*
X8113842Y-12791960D02*
X8104318Y-12782436D01*
X8342414Y-12601484D02*
X8361461Y-12601484D01*
X8361461Y-12601484D02*
X8380509Y-12611008D01*
X8380509Y-12611008D02*
X8390033Y-12620531D01*
X8390033Y-12620531D02*
X8399557Y-12639579D01*
X8399557Y-12639579D02*
X8409080Y-12677674D01*
X8409080Y-12677674D02*
X8409080Y-12725293D01*
X8409080Y-12725293D02*
X8399557Y-12763388D01*
X8399557Y-12763388D02*
X8390033Y-12782436D01*
X8390033Y-12782436D02*
X8380509Y-12791960D01*
X8380509Y-12791960D02*
X8361461Y-12801484D01*
X8361461Y-12801484D02*
X8342414Y-12801484D01*
X8342414Y-12801484D02*
X8323366Y-12791960D01*
X8323366Y-12791960D02*
X8313842Y-12782436D01*
X8313842Y-12782436D02*
X8304318Y-12763388D01*
X8304318Y-12763388D02*
X8294795Y-12725293D01*
X8294795Y-12725293D02*
X8294795Y-12677674D01*
X8294795Y-12677674D02*
X8304318Y-12639579D01*
X8304318Y-12639579D02*
X8313842Y-12620531D01*
X8313842Y-12620531D02*
X8323366Y-12611008D01*
X8323366Y-12611008D02*
X8342414Y-12601484D01*
X8494795Y-12801484D02*
X8494795Y-12668150D01*
X8494795Y-12687198D02*
X8504319Y-12677674D01*
X8504319Y-12677674D02*
X8523366Y-12668150D01*
X8523366Y-12668150D02*
X8551938Y-12668150D01*
X8551938Y-12668150D02*
X8570985Y-12677674D01*
X8570985Y-12677674D02*
X8580509Y-12696722D01*
X8580509Y-12696722D02*
X8580509Y-12801484D01*
X8580509Y-12696722D02*
X8590033Y-12677674D01*
X8590033Y-12677674D02*
X8609080Y-12668150D01*
X8609080Y-12668150D02*
X8637652Y-12668150D01*
X8637652Y-12668150D02*
X8656700Y-12677674D01*
X8656700Y-12677674D02*
X8666223Y-12696722D01*
X8666223Y-12696722D02*
X8666223Y-12801484D01*
X8761461Y-12801484D02*
X8761461Y-12668150D01*
X8761461Y-12687198D02*
X8770985Y-12677674D01*
X8770985Y-12677674D02*
X8790033Y-12668150D01*
X8790033Y-12668150D02*
X8818604Y-12668150D01*
X8818604Y-12668150D02*
X8837652Y-12677674D01*
X8837652Y-12677674D02*
X8847176Y-12696722D01*
X8847176Y-12696722D02*
X8847176Y-12801484D01*
X8847176Y-12696722D02*
X8856700Y-12677674D01*
X8856700Y-12677674D02*
X8875747Y-12668150D01*
X8875747Y-12668150D02*
X8904319Y-12668150D01*
X8904319Y-12668150D02*
X8923366Y-12677674D01*
X8923366Y-12677674D02*
X8932890Y-12696722D01*
X8932890Y-12696722D02*
X8932890Y-12801484D01*
X9323366Y-12591960D02*
X9151938Y-12849103D01*
X9580509Y-12601484D02*
X9599557Y-12601484D01*
X9599557Y-12601484D02*
X9618604Y-12611008D01*
X9618604Y-12611008D02*
X9628128Y-12620531D01*
X9628128Y-12620531D02*
X9637652Y-12639579D01*
X9637652Y-12639579D02*
X9647176Y-12677674D01*
X9647176Y-12677674D02*
X9647176Y-12725293D01*
X9647176Y-12725293D02*
X9637652Y-12763388D01*
X9637652Y-12763388D02*
X9628128Y-12782436D01*
X9628128Y-12782436D02*
X9618604Y-12791960D01*
X9618604Y-12791960D02*
X9599557Y-12801484D01*
X9599557Y-12801484D02*
X9580509Y-12801484D01*
X9580509Y-12801484D02*
X9561462Y-12791960D01*
X9561462Y-12791960D02*
X9551938Y-12782436D01*
X9551938Y-12782436D02*
X9542414Y-12763388D01*
X9542414Y-12763388D02*
X9532890Y-12725293D01*
X9532890Y-12725293D02*
X9532890Y-12677674D01*
X9532890Y-12677674D02*
X9542414Y-12639579D01*
X9542414Y-12639579D02*
X9551938Y-12620531D01*
X9551938Y-12620531D02*
X9561462Y-12611008D01*
X9561462Y-12611008D02*
X9580509Y-12601484D01*
X9732890Y-12782436D02*
X9742414Y-12791960D01*
X9742414Y-12791960D02*
X9732890Y-12801484D01*
X9732890Y-12801484D02*
X9723366Y-12791960D01*
X9723366Y-12791960D02*
X9732890Y-12782436D01*
X9732890Y-12782436D02*
X9732890Y-12801484D01*
X9866223Y-12601484D02*
X9885271Y-12601484D01*
X9885271Y-12601484D02*
X9904319Y-12611008D01*
X9904319Y-12611008D02*
X9913843Y-12620531D01*
X9913843Y-12620531D02*
X9923366Y-12639579D01*
X9923366Y-12639579D02*
X9932890Y-12677674D01*
X9932890Y-12677674D02*
X9932890Y-12725293D01*
X9932890Y-12725293D02*
X9923366Y-12763388D01*
X9923366Y-12763388D02*
X9913843Y-12782436D01*
X9913843Y-12782436D02*
X9904319Y-12791960D01*
X9904319Y-12791960D02*
X9885271Y-12801484D01*
X9885271Y-12801484D02*
X9866223Y-12801484D01*
X9866223Y-12801484D02*
X9847176Y-12791960D01*
X9847176Y-12791960D02*
X9837652Y-12782436D01*
X9837652Y-12782436D02*
X9828128Y-12763388D01*
X9828128Y-12763388D02*
X9818604Y-12725293D01*
X9818604Y-12725293D02*
X9818604Y-12677674D01*
X9818604Y-12677674D02*
X9828128Y-12639579D01*
X9828128Y-12639579D02*
X9837652Y-12620531D01*
X9837652Y-12620531D02*
X9847176Y-12611008D01*
X9847176Y-12611008D02*
X9866223Y-12601484D01*
X10104319Y-12601484D02*
X10066223Y-12601484D01*
X10066223Y-12601484D02*
X10047176Y-12611008D01*
X10047176Y-12611008D02*
X10037652Y-12620531D01*
X10037652Y-12620531D02*
X10018604Y-12649103D01*
X10018604Y-12649103D02*
X10009081Y-12687198D01*
X10009081Y-12687198D02*
X10009081Y-12763388D01*
X10009081Y-12763388D02*
X10018604Y-12782436D01*
X10018604Y-12782436D02*
X10028128Y-12791960D01*
X10028128Y-12791960D02*
X10047176Y-12801484D01*
X10047176Y-12801484D02*
X10085271Y-12801484D01*
X10085271Y-12801484D02*
X10104319Y-12791960D01*
X10104319Y-12791960D02*
X10113843Y-12782436D01*
X10113843Y-12782436D02*
X10123366Y-12763388D01*
X10123366Y-12763388D02*
X10123366Y-12715769D01*
X10123366Y-12715769D02*
X10113843Y-12696722D01*
X10113843Y-12696722D02*
X10104319Y-12687198D01*
X10104319Y-12687198D02*
X10085271Y-12677674D01*
X10085271Y-12677674D02*
X10047176Y-12677674D01*
X10047176Y-12677674D02*
X10028128Y-12687198D01*
X10028128Y-12687198D02*
X10018604Y-12696722D01*
X10018604Y-12696722D02*
X10009081Y-12715769D01*
X10237652Y-12687198D02*
X10218604Y-12677674D01*
X10218604Y-12677674D02*
X10209081Y-12668150D01*
X10209081Y-12668150D02*
X10199557Y-12649103D01*
X10199557Y-12649103D02*
X10199557Y-12639579D01*
X10199557Y-12639579D02*
X10209081Y-12620531D01*
X10209081Y-12620531D02*
X10218604Y-12611008D01*
X10218604Y-12611008D02*
X10237652Y-12601484D01*
X10237652Y-12601484D02*
X10275747Y-12601484D01*
X10275747Y-12601484D02*
X10294795Y-12611008D01*
X10294795Y-12611008D02*
X10304319Y-12620531D01*
X10304319Y-12620531D02*
X10313843Y-12639579D01*
X10313843Y-12639579D02*
X10313843Y-12649103D01*
X10313843Y-12649103D02*
X10304319Y-12668150D01*
X10304319Y-12668150D02*
X10294795Y-12677674D01*
X10294795Y-12677674D02*
X10275747Y-12687198D01*
X10275747Y-12687198D02*
X10237652Y-12687198D01*
X10237652Y-12687198D02*
X10218604Y-12696722D01*
X10218604Y-12696722D02*
X10209081Y-12706246D01*
X10209081Y-12706246D02*
X10199557Y-12725293D01*
X10199557Y-12725293D02*
X10199557Y-12763388D01*
X10199557Y-12763388D02*
X10209081Y-12782436D01*
X10209081Y-12782436D02*
X10218604Y-12791960D01*
X10218604Y-12791960D02*
X10237652Y-12801484D01*
X10237652Y-12801484D02*
X10275747Y-12801484D01*
X10275747Y-12801484D02*
X10294795Y-12791960D01*
X10294795Y-12791960D02*
X10304319Y-12782436D01*
X10304319Y-12782436D02*
X10313843Y-12763388D01*
X10313843Y-12763388D02*
X10313843Y-12725293D01*
X10313843Y-12725293D02*
X10304319Y-12706246D01*
X10304319Y-12706246D02*
X10294795Y-12696722D01*
X10294795Y-12696722D02*
X10275747Y-12687198D01*
X10409081Y-12801484D02*
X10447176Y-12801484D01*
X10447176Y-12801484D02*
X10466224Y-12791960D01*
X10466224Y-12791960D02*
X10475747Y-12782436D01*
X10475747Y-12782436D02*
X10494795Y-12753865D01*
X10494795Y-12753865D02*
X10504319Y-12715769D01*
X10504319Y-12715769D02*
X10504319Y-12639579D01*
X10504319Y-12639579D02*
X10494795Y-12620531D01*
X10494795Y-12620531D02*
X10485271Y-12611008D01*
X10485271Y-12611008D02*
X10466224Y-12601484D01*
X10466224Y-12601484D02*
X10428128Y-12601484D01*
X10428128Y-12601484D02*
X10409081Y-12611008D01*
X10409081Y-12611008D02*
X10399557Y-12620531D01*
X10399557Y-12620531D02*
X10390033Y-12639579D01*
X10390033Y-12639579D02*
X10390033Y-12687198D01*
X10390033Y-12687198D02*
X10399557Y-12706246D01*
X10399557Y-12706246D02*
X10409081Y-12715769D01*
X10409081Y-12715769D02*
X10428128Y-12725293D01*
X10428128Y-12725293D02*
X10466224Y-12725293D01*
X10466224Y-12725293D02*
X10485271Y-12715769D01*
X10485271Y-12715769D02*
X10494795Y-12706246D01*
X10494795Y-12706246D02*
X10504319Y-12687198D01*
X10580509Y-12601484D02*
X10580509Y-12639579D01*
X10656700Y-12601484D02*
X10656700Y-12639579D01*
X10951938Y-12877674D02*
X10942414Y-12868150D01*
X10942414Y-12868150D02*
X10923366Y-12839579D01*
X10923366Y-12839579D02*
X10913843Y-12820531D01*
X10913843Y-12820531D02*
X10904319Y-12791960D01*
X10904319Y-12791960D02*
X10894795Y-12744341D01*
X10894795Y-12744341D02*
X10894795Y-12706246D01*
X10894795Y-12706246D02*
X10904319Y-12658627D01*
X10904319Y-12658627D02*
X10913843Y-12630055D01*
X10913843Y-12630055D02*
X10923366Y-12611008D01*
X10923366Y-12611008D02*
X10942414Y-12582436D01*
X10942414Y-12582436D02*
X10951938Y-12572912D01*
X11018605Y-12620531D02*
X11028128Y-12611008D01*
X11028128Y-12611008D02*
X11047176Y-12601484D01*
X11047176Y-12601484D02*
X11094795Y-12601484D01*
X11094795Y-12601484D02*
X11113843Y-12611008D01*
X11113843Y-12611008D02*
X11123366Y-12620531D01*
X11123366Y-12620531D02*
X11132890Y-12639579D01*
X11132890Y-12639579D02*
X11132890Y-12658627D01*
X11132890Y-12658627D02*
X11123366Y-12687198D01*
X11123366Y-12687198D02*
X11009081Y-12801484D01*
X11009081Y-12801484D02*
X11132890Y-12801484D01*
X11256700Y-12601484D02*
X11275747Y-12601484D01*
X11275747Y-12601484D02*
X11294795Y-12611008D01*
X11294795Y-12611008D02*
X11304319Y-12620531D01*
X11304319Y-12620531D02*
X11313843Y-12639579D01*
X11313843Y-12639579D02*
X11323366Y-12677674D01*
X11323366Y-12677674D02*
X11323366Y-12725293D01*
X11323366Y-12725293D02*
X11313843Y-12763388D01*
X11313843Y-12763388D02*
X11304319Y-12782436D01*
X11304319Y-12782436D02*
X11294795Y-12791960D01*
X11294795Y-12791960D02*
X11275747Y-12801484D01*
X11275747Y-12801484D02*
X11256700Y-12801484D01*
X11256700Y-12801484D02*
X11237652Y-12791960D01*
X11237652Y-12791960D02*
X11228128Y-12782436D01*
X11228128Y-12782436D02*
X11218604Y-12763388D01*
X11218604Y-12763388D02*
X11209081Y-12725293D01*
X11209081Y-12725293D02*
X11209081Y-12677674D01*
X11209081Y-12677674D02*
X11218604Y-12639579D01*
X11218604Y-12639579D02*
X11228128Y-12620531D01*
X11228128Y-12620531D02*
X11237652Y-12611008D01*
X11237652Y-12611008D02*
X11256700Y-12601484D01*
X11561462Y-12801484D02*
X11561462Y-12601484D01*
X11647176Y-12801484D02*
X11647176Y-12696722D01*
X11647176Y-12696722D02*
X11637652Y-12677674D01*
X11637652Y-12677674D02*
X11618605Y-12668150D01*
X11618605Y-12668150D02*
X11590033Y-12668150D01*
X11590033Y-12668150D02*
X11570985Y-12677674D01*
X11570985Y-12677674D02*
X11561462Y-12687198D01*
X11770985Y-12801484D02*
X11751938Y-12791960D01*
X11751938Y-12791960D02*
X11742414Y-12782436D01*
X11742414Y-12782436D02*
X11732890Y-12763388D01*
X11732890Y-12763388D02*
X11732890Y-12706246D01*
X11732890Y-12706246D02*
X11742414Y-12687198D01*
X11742414Y-12687198D02*
X11751938Y-12677674D01*
X11751938Y-12677674D02*
X11770985Y-12668150D01*
X11770985Y-12668150D02*
X11799557Y-12668150D01*
X11799557Y-12668150D02*
X11818605Y-12677674D01*
X11818605Y-12677674D02*
X11828128Y-12687198D01*
X11828128Y-12687198D02*
X11837652Y-12706246D01*
X11837652Y-12706246D02*
X11837652Y-12763388D01*
X11837652Y-12763388D02*
X11828128Y-12782436D01*
X11828128Y-12782436D02*
X11818605Y-12791960D01*
X11818605Y-12791960D02*
X11799557Y-12801484D01*
X11799557Y-12801484D02*
X11770985Y-12801484D01*
X11951938Y-12801484D02*
X11932890Y-12791960D01*
X11932890Y-12791960D02*
X11923366Y-12772912D01*
X11923366Y-12772912D02*
X11923366Y-12601484D01*
X12104319Y-12791960D02*
X12085271Y-12801484D01*
X12085271Y-12801484D02*
X12047176Y-12801484D01*
X12047176Y-12801484D02*
X12028128Y-12791960D01*
X12028128Y-12791960D02*
X12018605Y-12772912D01*
X12018605Y-12772912D02*
X12018605Y-12696722D01*
X12018605Y-12696722D02*
X12028128Y-12677674D01*
X12028128Y-12677674D02*
X12047176Y-12668150D01*
X12047176Y-12668150D02*
X12085271Y-12668150D01*
X12085271Y-12668150D02*
X12104319Y-12677674D01*
X12104319Y-12677674D02*
X12113843Y-12696722D01*
X12113843Y-12696722D02*
X12113843Y-12715769D01*
X12113843Y-12715769D02*
X12018605Y-12734817D01*
X12190033Y-12791960D02*
X12209081Y-12801484D01*
X12209081Y-12801484D02*
X12247176Y-12801484D01*
X12247176Y-12801484D02*
X12266224Y-12791960D01*
X12266224Y-12791960D02*
X12275747Y-12772912D01*
X12275747Y-12772912D02*
X12275747Y-12763388D01*
X12275747Y-12763388D02*
X12266224Y-12744341D01*
X12266224Y-12744341D02*
X12247176Y-12734817D01*
X12247176Y-12734817D02*
X12218605Y-12734817D01*
X12218605Y-12734817D02*
X12199557Y-12725293D01*
X12199557Y-12725293D02*
X12190033Y-12706246D01*
X12190033Y-12706246D02*
X12190033Y-12696722D01*
X12190033Y-12696722D02*
X12199557Y-12677674D01*
X12199557Y-12677674D02*
X12218605Y-12668150D01*
X12218605Y-12668150D02*
X12247176Y-12668150D01*
X12247176Y-12668150D02*
X12266224Y-12677674D01*
X12342414Y-12877674D02*
X12351938Y-12868150D01*
X12351938Y-12868150D02*
X12370986Y-12839579D01*
X12370986Y-12839579D02*
X12380509Y-12820531D01*
X12380509Y-12820531D02*
X12390033Y-12791960D01*
X12390033Y-12791960D02*
X12399557Y-12744341D01*
X12399557Y-12744341D02*
X12399557Y-12706246D01*
X12399557Y-12706246D02*
X12390033Y-12658627D01*
X12390033Y-12658627D02*
X12380509Y-12630055D01*
X12380509Y-12630055D02*
X12370986Y-12611008D01*
X12370986Y-12611008D02*
X12351938Y-12582436D01*
X12351938Y-12582436D02*
X12342414Y-12572912D01*
X12704319Y-12877674D02*
X12694795Y-12868150D01*
X12694795Y-12868150D02*
X12675747Y-12839579D01*
X12675747Y-12839579D02*
X12666224Y-12820531D01*
X12666224Y-12820531D02*
X12656700Y-12791960D01*
X12656700Y-12791960D02*
X12647176Y-12744341D01*
X12647176Y-12744341D02*
X12647176Y-12706246D01*
X12647176Y-12706246D02*
X12656700Y-12658627D01*
X12656700Y-12658627D02*
X12666224Y-12630055D01*
X12666224Y-12630055D02*
X12675747Y-12611008D01*
X12675747Y-12611008D02*
X12694795Y-12582436D01*
X12694795Y-12582436D02*
X12704319Y-12572912D01*
X12780509Y-12668150D02*
X12780509Y-12801484D01*
X12780509Y-12687198D02*
X12790033Y-12677674D01*
X12790033Y-12677674D02*
X12809081Y-12668150D01*
X12809081Y-12668150D02*
X12837652Y-12668150D01*
X12837652Y-12668150D02*
X12856700Y-12677674D01*
X12856700Y-12677674D02*
X12866224Y-12696722D01*
X12866224Y-12696722D02*
X12866224Y-12801484D01*
X12990033Y-12801484D02*
X12970986Y-12791960D01*
X12970986Y-12791960D02*
X12961462Y-12782436D01*
X12961462Y-12782436D02*
X12951938Y-12763388D01*
X12951938Y-12763388D02*
X12951938Y-12706246D01*
X12951938Y-12706246D02*
X12961462Y-12687198D01*
X12961462Y-12687198D02*
X12970986Y-12677674D01*
X12970986Y-12677674D02*
X12990033Y-12668150D01*
X12990033Y-12668150D02*
X13018605Y-12668150D01*
X13018605Y-12668150D02*
X13037652Y-12677674D01*
X13037652Y-12677674D02*
X13047176Y-12687198D01*
X13047176Y-12687198D02*
X13056700Y-12706246D01*
X13056700Y-12706246D02*
X13056700Y-12763388D01*
X13056700Y-12763388D02*
X13047176Y-12782436D01*
X13047176Y-12782436D02*
X13037652Y-12791960D01*
X13037652Y-12791960D02*
X13018605Y-12801484D01*
X13018605Y-12801484D02*
X12990033Y-12801484D01*
X13113843Y-12668150D02*
X13190033Y-12668150D01*
X13142414Y-12601484D02*
X13142414Y-12772912D01*
X13142414Y-12772912D02*
X13151938Y-12791960D01*
X13151938Y-12791960D02*
X13170986Y-12801484D01*
X13170986Y-12801484D02*
X13190033Y-12801484D01*
X13409081Y-12668150D02*
X13409081Y-12868150D01*
X13409081Y-12677674D02*
X13428128Y-12668150D01*
X13428128Y-12668150D02*
X13466224Y-12668150D01*
X13466224Y-12668150D02*
X13485271Y-12677674D01*
X13485271Y-12677674D02*
X13494795Y-12687198D01*
X13494795Y-12687198D02*
X13504319Y-12706246D01*
X13504319Y-12706246D02*
X13504319Y-12763388D01*
X13504319Y-12763388D02*
X13494795Y-12782436D01*
X13494795Y-12782436D02*
X13485271Y-12791960D01*
X13485271Y-12791960D02*
X13466224Y-12801484D01*
X13466224Y-12801484D02*
X13428128Y-12801484D01*
X13428128Y-12801484D02*
X13409081Y-12791960D01*
X13618605Y-12801484D02*
X13599557Y-12791960D01*
X13599557Y-12791960D02*
X13590033Y-12772912D01*
X13590033Y-12772912D02*
X13590033Y-12601484D01*
X13780509Y-12801484D02*
X13780509Y-12696722D01*
X13780509Y-12696722D02*
X13770986Y-12677674D01*
X13770986Y-12677674D02*
X13751938Y-12668150D01*
X13751938Y-12668150D02*
X13713843Y-12668150D01*
X13713843Y-12668150D02*
X13694795Y-12677674D01*
X13780509Y-12791960D02*
X13761462Y-12801484D01*
X13761462Y-12801484D02*
X13713843Y-12801484D01*
X13713843Y-12801484D02*
X13694795Y-12791960D01*
X13694795Y-12791960D02*
X13685271Y-12772912D01*
X13685271Y-12772912D02*
X13685271Y-12753865D01*
X13685271Y-12753865D02*
X13694795Y-12734817D01*
X13694795Y-12734817D02*
X13713843Y-12725293D01*
X13713843Y-12725293D02*
X13761462Y-12725293D01*
X13761462Y-12725293D02*
X13780509Y-12715769D01*
X13847176Y-12668150D02*
X13923367Y-12668150D01*
X13875748Y-12601484D02*
X13875748Y-12772912D01*
X13875748Y-12772912D02*
X13885271Y-12791960D01*
X13885271Y-12791960D02*
X13904319Y-12801484D01*
X13904319Y-12801484D02*
X13923367Y-12801484D01*
X14066224Y-12791960D02*
X14047176Y-12801484D01*
X14047176Y-12801484D02*
X14009081Y-12801484D01*
X14009081Y-12801484D02*
X13990033Y-12791960D01*
X13990033Y-12791960D02*
X13980509Y-12772912D01*
X13980509Y-12772912D02*
X13980509Y-12696722D01*
X13980509Y-12696722D02*
X13990033Y-12677674D01*
X13990033Y-12677674D02*
X14009081Y-12668150D01*
X14009081Y-12668150D02*
X14047176Y-12668150D01*
X14047176Y-12668150D02*
X14066224Y-12677674D01*
X14066224Y-12677674D02*
X14075748Y-12696722D01*
X14075748Y-12696722D02*
X14075748Y-12715769D01*
X14075748Y-12715769D02*
X13980509Y-12734817D01*
X14247176Y-12801484D02*
X14247176Y-12601484D01*
X14247176Y-12791960D02*
X14228129Y-12801484D01*
X14228129Y-12801484D02*
X14190033Y-12801484D01*
X14190033Y-12801484D02*
X14170986Y-12791960D01*
X14170986Y-12791960D02*
X14161462Y-12782436D01*
X14161462Y-12782436D02*
X14151938Y-12763388D01*
X14151938Y-12763388D02*
X14151938Y-12706246D01*
X14151938Y-12706246D02*
X14161462Y-12687198D01*
X14161462Y-12687198D02*
X14170986Y-12677674D01*
X14170986Y-12677674D02*
X14190033Y-12668150D01*
X14190033Y-12668150D02*
X14228129Y-12668150D01*
X14228129Y-12668150D02*
X14247176Y-12677674D01*
X14323367Y-12877674D02*
X14332890Y-12868150D01*
X14332890Y-12868150D02*
X14351938Y-12839579D01*
X14351938Y-12839579D02*
X14361462Y-12820531D01*
X14361462Y-12820531D02*
X14370986Y-12791960D01*
X14370986Y-12791960D02*
X14380509Y-12744341D01*
X14380509Y-12744341D02*
X14380509Y-12706246D01*
X14380509Y-12706246D02*
X14370986Y-12658627D01*
X14370986Y-12658627D02*
X14361462Y-12630055D01*
X14361462Y-12630055D02*
X14351938Y-12611008D01*
X14351938Y-12611008D02*
X14332890Y-12582436D01*
X14332890Y-12582436D02*
X14323367Y-12572912D01*
X7376875Y-13005000D02*
G75*
G03*
X7376875Y-13005000I-100000J0D01*
G01*
X7628128Y-12915531D02*
X7637652Y-12906008D01*
X7637652Y-12906008D02*
X7656699Y-12896484D01*
X7656699Y-12896484D02*
X7704318Y-12896484D01*
X7704318Y-12896484D02*
X7723366Y-12906008D01*
X7723366Y-12906008D02*
X7732890Y-12915531D01*
X7732890Y-12915531D02*
X7742414Y-12934579D01*
X7742414Y-12934579D02*
X7742414Y-12953627D01*
X7742414Y-12953627D02*
X7732890Y-12982198D01*
X7732890Y-12982198D02*
X7618604Y-13096484D01*
X7618604Y-13096484D02*
X7742414Y-13096484D01*
X7828128Y-13077436D02*
X7837652Y-13086960D01*
X7837652Y-13086960D02*
X7828128Y-13096484D01*
X7828128Y-13096484D02*
X7818604Y-13086960D01*
X7818604Y-13086960D02*
X7828128Y-13077436D01*
X7828128Y-13077436D02*
X7828128Y-13096484D01*
X8018604Y-12896484D02*
X7923366Y-12896484D01*
X7923366Y-12896484D02*
X7913842Y-12991722D01*
X7913842Y-12991722D02*
X7923366Y-12982198D01*
X7923366Y-12982198D02*
X7942414Y-12972674D01*
X7942414Y-12972674D02*
X7990033Y-12972674D01*
X7990033Y-12972674D02*
X8009080Y-12982198D01*
X8009080Y-12982198D02*
X8018604Y-12991722D01*
X8018604Y-12991722D02*
X8028128Y-13010769D01*
X8028128Y-13010769D02*
X8028128Y-13058388D01*
X8028128Y-13058388D02*
X8018604Y-13077436D01*
X8018604Y-13077436D02*
X8009080Y-13086960D01*
X8009080Y-13086960D02*
X7990033Y-13096484D01*
X7990033Y-13096484D02*
X7942414Y-13096484D01*
X7942414Y-13096484D02*
X7923366Y-13086960D01*
X7923366Y-13086960D02*
X7913842Y-13077436D01*
X8151937Y-12896484D02*
X8170985Y-12896484D01*
X8170985Y-12896484D02*
X8190033Y-12906008D01*
X8190033Y-12906008D02*
X8199557Y-12915531D01*
X8199557Y-12915531D02*
X8209080Y-12934579D01*
X8209080Y-12934579D02*
X8218604Y-12972674D01*
X8218604Y-12972674D02*
X8218604Y-13020293D01*
X8218604Y-13020293D02*
X8209080Y-13058388D01*
X8209080Y-13058388D02*
X8199557Y-13077436D01*
X8199557Y-13077436D02*
X8190033Y-13086960D01*
X8190033Y-13086960D02*
X8170985Y-13096484D01*
X8170985Y-13096484D02*
X8151937Y-13096484D01*
X8151937Y-13096484D02*
X8132890Y-13086960D01*
X8132890Y-13086960D02*
X8123366Y-13077436D01*
X8123366Y-13077436D02*
X8113842Y-13058388D01*
X8113842Y-13058388D02*
X8104318Y-13020293D01*
X8104318Y-13020293D02*
X8104318Y-12972674D01*
X8104318Y-12972674D02*
X8113842Y-12934579D01*
X8113842Y-12934579D02*
X8123366Y-12915531D01*
X8123366Y-12915531D02*
X8132890Y-12906008D01*
X8132890Y-12906008D02*
X8151937Y-12896484D01*
X8342414Y-12896484D02*
X8361461Y-12896484D01*
X8361461Y-12896484D02*
X8380509Y-12906008D01*
X8380509Y-12906008D02*
X8390033Y-12915531D01*
X8390033Y-12915531D02*
X8399557Y-12934579D01*
X8399557Y-12934579D02*
X8409080Y-12972674D01*
X8409080Y-12972674D02*
X8409080Y-13020293D01*
X8409080Y-13020293D02*
X8399557Y-13058388D01*
X8399557Y-13058388D02*
X8390033Y-13077436D01*
X8390033Y-13077436D02*
X8380509Y-13086960D01*
X8380509Y-13086960D02*
X8361461Y-13096484D01*
X8361461Y-13096484D02*
X8342414Y-13096484D01*
X8342414Y-13096484D02*
X8323366Y-13086960D01*
X8323366Y-13086960D02*
X8313842Y-13077436D01*
X8313842Y-13077436D02*
X8304318Y-13058388D01*
X8304318Y-13058388D02*
X8294795Y-13020293D01*
X8294795Y-13020293D02*
X8294795Y-12972674D01*
X8294795Y-12972674D02*
X8304318Y-12934579D01*
X8304318Y-12934579D02*
X8313842Y-12915531D01*
X8313842Y-12915531D02*
X8323366Y-12906008D01*
X8323366Y-12906008D02*
X8342414Y-12896484D01*
X8494795Y-13096484D02*
X8494795Y-12963150D01*
X8494795Y-12982198D02*
X8504319Y-12972674D01*
X8504319Y-12972674D02*
X8523366Y-12963150D01*
X8523366Y-12963150D02*
X8551938Y-12963150D01*
X8551938Y-12963150D02*
X8570985Y-12972674D01*
X8570985Y-12972674D02*
X8580509Y-12991722D01*
X8580509Y-12991722D02*
X8580509Y-13096484D01*
X8580509Y-12991722D02*
X8590033Y-12972674D01*
X8590033Y-12972674D02*
X8609080Y-12963150D01*
X8609080Y-12963150D02*
X8637652Y-12963150D01*
X8637652Y-12963150D02*
X8656700Y-12972674D01*
X8656700Y-12972674D02*
X8666223Y-12991722D01*
X8666223Y-12991722D02*
X8666223Y-13096484D01*
X8761461Y-13096484D02*
X8761461Y-12963150D01*
X8761461Y-12982198D02*
X8770985Y-12972674D01*
X8770985Y-12972674D02*
X8790033Y-12963150D01*
X8790033Y-12963150D02*
X8818604Y-12963150D01*
X8818604Y-12963150D02*
X8837652Y-12972674D01*
X8837652Y-12972674D02*
X8847176Y-12991722D01*
X8847176Y-12991722D02*
X8847176Y-13096484D01*
X8847176Y-12991722D02*
X8856700Y-12972674D01*
X8856700Y-12972674D02*
X8875747Y-12963150D01*
X8875747Y-12963150D02*
X8904319Y-12963150D01*
X8904319Y-12963150D02*
X8923366Y-12972674D01*
X8923366Y-12972674D02*
X8932890Y-12991722D01*
X8932890Y-12991722D02*
X8932890Y-13096484D01*
X9323366Y-12886960D02*
X9151938Y-13144103D01*
X9580509Y-12896484D02*
X9599557Y-12896484D01*
X9599557Y-12896484D02*
X9618604Y-12906008D01*
X9618604Y-12906008D02*
X9628128Y-12915531D01*
X9628128Y-12915531D02*
X9637652Y-12934579D01*
X9637652Y-12934579D02*
X9647176Y-12972674D01*
X9647176Y-12972674D02*
X9647176Y-13020293D01*
X9647176Y-13020293D02*
X9637652Y-13058388D01*
X9637652Y-13058388D02*
X9628128Y-13077436D01*
X9628128Y-13077436D02*
X9618604Y-13086960D01*
X9618604Y-13086960D02*
X9599557Y-13096484D01*
X9599557Y-13096484D02*
X9580509Y-13096484D01*
X9580509Y-13096484D02*
X9561462Y-13086960D01*
X9561462Y-13086960D02*
X9551938Y-13077436D01*
X9551938Y-13077436D02*
X9542414Y-13058388D01*
X9542414Y-13058388D02*
X9532890Y-13020293D01*
X9532890Y-13020293D02*
X9532890Y-12972674D01*
X9532890Y-12972674D02*
X9542414Y-12934579D01*
X9542414Y-12934579D02*
X9551938Y-12915531D01*
X9551938Y-12915531D02*
X9561462Y-12906008D01*
X9561462Y-12906008D02*
X9580509Y-12896484D01*
X9732890Y-13077436D02*
X9742414Y-13086960D01*
X9742414Y-13086960D02*
X9732890Y-13096484D01*
X9732890Y-13096484D02*
X9723366Y-13086960D01*
X9723366Y-13086960D02*
X9732890Y-13077436D01*
X9732890Y-13077436D02*
X9732890Y-13096484D01*
X9866223Y-12896484D02*
X9885271Y-12896484D01*
X9885271Y-12896484D02*
X9904319Y-12906008D01*
X9904319Y-12906008D02*
X9913843Y-12915531D01*
X9913843Y-12915531D02*
X9923366Y-12934579D01*
X9923366Y-12934579D02*
X9932890Y-12972674D01*
X9932890Y-12972674D02*
X9932890Y-13020293D01*
X9932890Y-13020293D02*
X9923366Y-13058388D01*
X9923366Y-13058388D02*
X9913843Y-13077436D01*
X9913843Y-13077436D02*
X9904319Y-13086960D01*
X9904319Y-13086960D02*
X9885271Y-13096484D01*
X9885271Y-13096484D02*
X9866223Y-13096484D01*
X9866223Y-13096484D02*
X9847176Y-13086960D01*
X9847176Y-13086960D02*
X9837652Y-13077436D01*
X9837652Y-13077436D02*
X9828128Y-13058388D01*
X9828128Y-13058388D02*
X9818604Y-13020293D01*
X9818604Y-13020293D02*
X9818604Y-12972674D01*
X9818604Y-12972674D02*
X9828128Y-12934579D01*
X9828128Y-12934579D02*
X9837652Y-12915531D01*
X9837652Y-12915531D02*
X9847176Y-12906008D01*
X9847176Y-12906008D02*
X9866223Y-12896484D01*
X10028128Y-13096484D02*
X10066223Y-13096484D01*
X10066223Y-13096484D02*
X10085271Y-13086960D01*
X10085271Y-13086960D02*
X10094795Y-13077436D01*
X10094795Y-13077436D02*
X10113843Y-13048865D01*
X10113843Y-13048865D02*
X10123366Y-13010769D01*
X10123366Y-13010769D02*
X10123366Y-12934579D01*
X10123366Y-12934579D02*
X10113843Y-12915531D01*
X10113843Y-12915531D02*
X10104319Y-12906008D01*
X10104319Y-12906008D02*
X10085271Y-12896484D01*
X10085271Y-12896484D02*
X10047176Y-12896484D01*
X10047176Y-12896484D02*
X10028128Y-12906008D01*
X10028128Y-12906008D02*
X10018604Y-12915531D01*
X10018604Y-12915531D02*
X10009081Y-12934579D01*
X10009081Y-12934579D02*
X10009081Y-12982198D01*
X10009081Y-12982198D02*
X10018604Y-13001246D01*
X10018604Y-13001246D02*
X10028128Y-13010769D01*
X10028128Y-13010769D02*
X10047176Y-13020293D01*
X10047176Y-13020293D02*
X10085271Y-13020293D01*
X10085271Y-13020293D02*
X10104319Y-13010769D01*
X10104319Y-13010769D02*
X10113843Y-13001246D01*
X10113843Y-13001246D02*
X10123366Y-12982198D01*
X10237652Y-12982198D02*
X10218604Y-12972674D01*
X10218604Y-12972674D02*
X10209081Y-12963150D01*
X10209081Y-12963150D02*
X10199557Y-12944103D01*
X10199557Y-12944103D02*
X10199557Y-12934579D01*
X10199557Y-12934579D02*
X10209081Y-12915531D01*
X10209081Y-12915531D02*
X10218604Y-12906008D01*
X10218604Y-12906008D02*
X10237652Y-12896484D01*
X10237652Y-12896484D02*
X10275747Y-12896484D01*
X10275747Y-12896484D02*
X10294795Y-12906008D01*
X10294795Y-12906008D02*
X10304319Y-12915531D01*
X10304319Y-12915531D02*
X10313843Y-12934579D01*
X10313843Y-12934579D02*
X10313843Y-12944103D01*
X10313843Y-12944103D02*
X10304319Y-12963150D01*
X10304319Y-12963150D02*
X10294795Y-12972674D01*
X10294795Y-12972674D02*
X10275747Y-12982198D01*
X10275747Y-12982198D02*
X10237652Y-12982198D01*
X10237652Y-12982198D02*
X10218604Y-12991722D01*
X10218604Y-12991722D02*
X10209081Y-13001246D01*
X10209081Y-13001246D02*
X10199557Y-13020293D01*
X10199557Y-13020293D02*
X10199557Y-13058388D01*
X10199557Y-13058388D02*
X10209081Y-13077436D01*
X10209081Y-13077436D02*
X10218604Y-13086960D01*
X10218604Y-13086960D02*
X10237652Y-13096484D01*
X10237652Y-13096484D02*
X10275747Y-13096484D01*
X10275747Y-13096484D02*
X10294795Y-13086960D01*
X10294795Y-13086960D02*
X10304319Y-13077436D01*
X10304319Y-13077436D02*
X10313843Y-13058388D01*
X10313843Y-13058388D02*
X10313843Y-13020293D01*
X10313843Y-13020293D02*
X10304319Y-13001246D01*
X10304319Y-13001246D02*
X10294795Y-12991722D01*
X10294795Y-12991722D02*
X10275747Y-12982198D01*
X10485271Y-12963150D02*
X10485271Y-13096484D01*
X10437652Y-12886960D02*
X10390033Y-13029817D01*
X10390033Y-13029817D02*
X10513843Y-13029817D01*
X10580509Y-12896484D02*
X10580509Y-12934579D01*
X10656700Y-12896484D02*
X10656700Y-12934579D01*
X10951938Y-13172674D02*
X10942414Y-13163150D01*
X10942414Y-13163150D02*
X10923366Y-13134579D01*
X10923366Y-13134579D02*
X10913843Y-13115531D01*
X10913843Y-13115531D02*
X10904319Y-13086960D01*
X10904319Y-13086960D02*
X10894795Y-13039341D01*
X10894795Y-13039341D02*
X10894795Y-13001246D01*
X10894795Y-13001246D02*
X10904319Y-12953627D01*
X10904319Y-12953627D02*
X10913843Y-12925055D01*
X10913843Y-12925055D02*
X10923366Y-12906008D01*
X10923366Y-12906008D02*
X10942414Y-12877436D01*
X10942414Y-12877436D02*
X10951938Y-12867912D01*
X11113843Y-12963150D02*
X11113843Y-13096484D01*
X11066224Y-12886960D02*
X11018605Y-13029817D01*
X11018605Y-13029817D02*
X11142414Y-13029817D01*
X11370985Y-13096484D02*
X11370985Y-12896484D01*
X11456700Y-13096484D02*
X11456700Y-12991722D01*
X11456700Y-12991722D02*
X11447176Y-12972674D01*
X11447176Y-12972674D02*
X11428128Y-12963150D01*
X11428128Y-12963150D02*
X11399557Y-12963150D01*
X11399557Y-12963150D02*
X11380509Y-12972674D01*
X11380509Y-12972674D02*
X11370985Y-12982198D01*
X11580509Y-13096484D02*
X11561462Y-13086960D01*
X11561462Y-13086960D02*
X11551938Y-13077436D01*
X11551938Y-13077436D02*
X11542414Y-13058388D01*
X11542414Y-13058388D02*
X11542414Y-13001246D01*
X11542414Y-13001246D02*
X11551938Y-12982198D01*
X11551938Y-12982198D02*
X11561462Y-12972674D01*
X11561462Y-12972674D02*
X11580509Y-12963150D01*
X11580509Y-12963150D02*
X11609081Y-12963150D01*
X11609081Y-12963150D02*
X11628128Y-12972674D01*
X11628128Y-12972674D02*
X11637652Y-12982198D01*
X11637652Y-12982198D02*
X11647176Y-13001246D01*
X11647176Y-13001246D02*
X11647176Y-13058388D01*
X11647176Y-13058388D02*
X11637652Y-13077436D01*
X11637652Y-13077436D02*
X11628128Y-13086960D01*
X11628128Y-13086960D02*
X11609081Y-13096484D01*
X11609081Y-13096484D02*
X11580509Y-13096484D01*
X11761462Y-13096484D02*
X11742414Y-13086960D01*
X11742414Y-13086960D02*
X11732890Y-13067912D01*
X11732890Y-13067912D02*
X11732890Y-12896484D01*
X11913843Y-13086960D02*
X11894795Y-13096484D01*
X11894795Y-13096484D02*
X11856700Y-13096484D01*
X11856700Y-13096484D02*
X11837652Y-13086960D01*
X11837652Y-13086960D02*
X11828128Y-13067912D01*
X11828128Y-13067912D02*
X11828128Y-12991722D01*
X11828128Y-12991722D02*
X11837652Y-12972674D01*
X11837652Y-12972674D02*
X11856700Y-12963150D01*
X11856700Y-12963150D02*
X11894795Y-12963150D01*
X11894795Y-12963150D02*
X11913843Y-12972674D01*
X11913843Y-12972674D02*
X11923366Y-12991722D01*
X11923366Y-12991722D02*
X11923366Y-13010769D01*
X11923366Y-13010769D02*
X11828128Y-13029817D01*
X11999557Y-13086960D02*
X12018605Y-13096484D01*
X12018605Y-13096484D02*
X12056700Y-13096484D01*
X12056700Y-13096484D02*
X12075747Y-13086960D01*
X12075747Y-13086960D02*
X12085271Y-13067912D01*
X12085271Y-13067912D02*
X12085271Y-13058388D01*
X12085271Y-13058388D02*
X12075747Y-13039341D01*
X12075747Y-13039341D02*
X12056700Y-13029817D01*
X12056700Y-13029817D02*
X12028128Y-13029817D01*
X12028128Y-13029817D02*
X12009081Y-13020293D01*
X12009081Y-13020293D02*
X11999557Y-13001246D01*
X11999557Y-13001246D02*
X11999557Y-12991722D01*
X11999557Y-12991722D02*
X12009081Y-12972674D01*
X12009081Y-12972674D02*
X12028128Y-12963150D01*
X12028128Y-12963150D02*
X12056700Y-12963150D01*
X12056700Y-12963150D02*
X12075747Y-12972674D01*
X12151938Y-13172674D02*
X12161462Y-13163150D01*
X12161462Y-13163150D02*
X12180509Y-13134579D01*
X12180509Y-13134579D02*
X12190033Y-13115531D01*
X12190033Y-13115531D02*
X12199557Y-13086960D01*
X12199557Y-13086960D02*
X12209081Y-13039341D01*
X12209081Y-13039341D02*
X12209081Y-13001246D01*
X12209081Y-13001246D02*
X12199557Y-12953627D01*
X12199557Y-12953627D02*
X12190033Y-12925055D01*
X12190033Y-12925055D02*
X12180509Y-12906008D01*
X12180509Y-12906008D02*
X12161462Y-12877436D01*
X12161462Y-12877436D02*
X12151938Y-12867912D01*
X12513843Y-13172674D02*
X12504319Y-13163150D01*
X12504319Y-13163150D02*
X12485271Y-13134579D01*
X12485271Y-13134579D02*
X12475747Y-13115531D01*
X12475747Y-13115531D02*
X12466224Y-13086960D01*
X12466224Y-13086960D02*
X12456700Y-13039341D01*
X12456700Y-13039341D02*
X12456700Y-13001246D01*
X12456700Y-13001246D02*
X12466224Y-12953627D01*
X12466224Y-12953627D02*
X12475747Y-12925055D01*
X12475747Y-12925055D02*
X12485271Y-12906008D01*
X12485271Y-12906008D02*
X12504319Y-12877436D01*
X12504319Y-12877436D02*
X12513843Y-12867912D01*
X12590033Y-12963150D02*
X12590033Y-13096484D01*
X12590033Y-12982198D02*
X12599557Y-12972674D01*
X12599557Y-12972674D02*
X12618605Y-12963150D01*
X12618605Y-12963150D02*
X12647176Y-12963150D01*
X12647176Y-12963150D02*
X12666224Y-12972674D01*
X12666224Y-12972674D02*
X12675747Y-12991722D01*
X12675747Y-12991722D02*
X12675747Y-13096484D01*
X12799557Y-13096484D02*
X12780509Y-13086960D01*
X12780509Y-13086960D02*
X12770986Y-13077436D01*
X12770986Y-13077436D02*
X12761462Y-13058388D01*
X12761462Y-13058388D02*
X12761462Y-13001246D01*
X12761462Y-13001246D02*
X12770986Y-12982198D01*
X12770986Y-12982198D02*
X12780509Y-12972674D01*
X12780509Y-12972674D02*
X12799557Y-12963150D01*
X12799557Y-12963150D02*
X12828128Y-12963150D01*
X12828128Y-12963150D02*
X12847176Y-12972674D01*
X12847176Y-12972674D02*
X12856700Y-12982198D01*
X12856700Y-12982198D02*
X12866224Y-13001246D01*
X12866224Y-13001246D02*
X12866224Y-13058388D01*
X12866224Y-13058388D02*
X12856700Y-13077436D01*
X12856700Y-13077436D02*
X12847176Y-13086960D01*
X12847176Y-13086960D02*
X12828128Y-13096484D01*
X12828128Y-13096484D02*
X12799557Y-13096484D01*
X12923367Y-12963150D02*
X12999557Y-12963150D01*
X12951938Y-12896484D02*
X12951938Y-13067912D01*
X12951938Y-13067912D02*
X12961462Y-13086960D01*
X12961462Y-13086960D02*
X12980509Y-13096484D01*
X12980509Y-13096484D02*
X12999557Y-13096484D01*
X13218605Y-12963150D02*
X13218605Y-13163150D01*
X13218605Y-12972674D02*
X13237652Y-12963150D01*
X13237652Y-12963150D02*
X13275748Y-12963150D01*
X13275748Y-12963150D02*
X13294795Y-12972674D01*
X13294795Y-12972674D02*
X13304319Y-12982198D01*
X13304319Y-12982198D02*
X13313843Y-13001246D01*
X13313843Y-13001246D02*
X13313843Y-13058388D01*
X13313843Y-13058388D02*
X13304319Y-13077436D01*
X13304319Y-13077436D02*
X13294795Y-13086960D01*
X13294795Y-13086960D02*
X13275748Y-13096484D01*
X13275748Y-13096484D02*
X13237652Y-13096484D01*
X13237652Y-13096484D02*
X13218605Y-13086960D01*
X13428128Y-13096484D02*
X13409081Y-13086960D01*
X13409081Y-13086960D02*
X13399557Y-13067912D01*
X13399557Y-13067912D02*
X13399557Y-12896484D01*
X13590033Y-13096484D02*
X13590033Y-12991722D01*
X13590033Y-12991722D02*
X13580509Y-12972674D01*
X13580509Y-12972674D02*
X13561462Y-12963150D01*
X13561462Y-12963150D02*
X13523367Y-12963150D01*
X13523367Y-12963150D02*
X13504319Y-12972674D01*
X13590033Y-13086960D02*
X13570986Y-13096484D01*
X13570986Y-13096484D02*
X13523367Y-13096484D01*
X13523367Y-13096484D02*
X13504319Y-13086960D01*
X13504319Y-13086960D02*
X13494795Y-13067912D01*
X13494795Y-13067912D02*
X13494795Y-13048865D01*
X13494795Y-13048865D02*
X13504319Y-13029817D01*
X13504319Y-13029817D02*
X13523367Y-13020293D01*
X13523367Y-13020293D02*
X13570986Y-13020293D01*
X13570986Y-13020293D02*
X13590033Y-13010769D01*
X13656700Y-12963150D02*
X13732890Y-12963150D01*
X13685271Y-12896484D02*
X13685271Y-13067912D01*
X13685271Y-13067912D02*
X13694795Y-13086960D01*
X13694795Y-13086960D02*
X13713843Y-13096484D01*
X13713843Y-13096484D02*
X13732890Y-13096484D01*
X13875748Y-13086960D02*
X13856700Y-13096484D01*
X13856700Y-13096484D02*
X13818605Y-13096484D01*
X13818605Y-13096484D02*
X13799557Y-13086960D01*
X13799557Y-13086960D02*
X13790033Y-13067912D01*
X13790033Y-13067912D02*
X13790033Y-12991722D01*
X13790033Y-12991722D02*
X13799557Y-12972674D01*
X13799557Y-12972674D02*
X13818605Y-12963150D01*
X13818605Y-12963150D02*
X13856700Y-12963150D01*
X13856700Y-12963150D02*
X13875748Y-12972674D01*
X13875748Y-12972674D02*
X13885271Y-12991722D01*
X13885271Y-12991722D02*
X13885271Y-13010769D01*
X13885271Y-13010769D02*
X13790033Y-13029817D01*
X14056700Y-13096484D02*
X14056700Y-12896484D01*
X14056700Y-13086960D02*
X14037652Y-13096484D01*
X14037652Y-13096484D02*
X13999557Y-13096484D01*
X13999557Y-13096484D02*
X13980509Y-13086960D01*
X13980509Y-13086960D02*
X13970986Y-13077436D01*
X13970986Y-13077436D02*
X13961462Y-13058388D01*
X13961462Y-13058388D02*
X13961462Y-13001246D01*
X13961462Y-13001246D02*
X13970986Y-12982198D01*
X13970986Y-12982198D02*
X13980509Y-12972674D01*
X13980509Y-12972674D02*
X13999557Y-12963150D01*
X13999557Y-12963150D02*
X14037652Y-12963150D01*
X14037652Y-12963150D02*
X14056700Y-12972674D01*
X14132890Y-13172674D02*
X14142414Y-13163150D01*
X14142414Y-13163150D02*
X14161462Y-13134579D01*
X14161462Y-13134579D02*
X14170986Y-13115531D01*
X14170986Y-13115531D02*
X14180509Y-13086960D01*
X14180509Y-13086960D02*
X14190033Y-13039341D01*
X14190033Y-13039341D02*
X14190033Y-13001246D01*
X14190033Y-13001246D02*
X14180509Y-12953627D01*
X14180509Y-12953627D02*
X14170986Y-12925055D01*
X14170986Y-12925055D02*
X14161462Y-12906008D01*
X14161462Y-12906008D02*
X14142414Y-12877436D01*
X14142414Y-12877436D02*
X14132890Y-12867912D01*
X7276875Y-13225000D02*
X7276875Y-13425000D01*
X7176875Y-13325000D02*
X7376875Y-13325000D01*
X7723366Y-13283150D02*
X7723366Y-13416484D01*
X7675747Y-13206960D02*
X7628128Y-13349817D01*
X7628128Y-13349817D02*
X7751937Y-13349817D01*
X7828128Y-13397436D02*
X7837652Y-13406960D01*
X7837652Y-13406960D02*
X7828128Y-13416484D01*
X7828128Y-13416484D02*
X7818604Y-13406960D01*
X7818604Y-13406960D02*
X7828128Y-13397436D01*
X7828128Y-13397436D02*
X7828128Y-13416484D01*
X7961461Y-13216484D02*
X7980509Y-13216484D01*
X7980509Y-13216484D02*
X7999557Y-13226008D01*
X7999557Y-13226008D02*
X8009080Y-13235531D01*
X8009080Y-13235531D02*
X8018604Y-13254579D01*
X8018604Y-13254579D02*
X8028128Y-13292674D01*
X8028128Y-13292674D02*
X8028128Y-13340293D01*
X8028128Y-13340293D02*
X8018604Y-13378388D01*
X8018604Y-13378388D02*
X8009080Y-13397436D01*
X8009080Y-13397436D02*
X7999557Y-13406960D01*
X7999557Y-13406960D02*
X7980509Y-13416484D01*
X7980509Y-13416484D02*
X7961461Y-13416484D01*
X7961461Y-13416484D02*
X7942414Y-13406960D01*
X7942414Y-13406960D02*
X7932890Y-13397436D01*
X7932890Y-13397436D02*
X7923366Y-13378388D01*
X7923366Y-13378388D02*
X7913842Y-13340293D01*
X7913842Y-13340293D02*
X7913842Y-13292674D01*
X7913842Y-13292674D02*
X7923366Y-13254579D01*
X7923366Y-13254579D02*
X7932890Y-13235531D01*
X7932890Y-13235531D02*
X7942414Y-13226008D01*
X7942414Y-13226008D02*
X7961461Y-13216484D01*
X8151937Y-13216484D02*
X8170985Y-13216484D01*
X8170985Y-13216484D02*
X8190033Y-13226008D01*
X8190033Y-13226008D02*
X8199557Y-13235531D01*
X8199557Y-13235531D02*
X8209080Y-13254579D01*
X8209080Y-13254579D02*
X8218604Y-13292674D01*
X8218604Y-13292674D02*
X8218604Y-13340293D01*
X8218604Y-13340293D02*
X8209080Y-13378388D01*
X8209080Y-13378388D02*
X8199557Y-13397436D01*
X8199557Y-13397436D02*
X8190033Y-13406960D01*
X8190033Y-13406960D02*
X8170985Y-13416484D01*
X8170985Y-13416484D02*
X8151937Y-13416484D01*
X8151937Y-13416484D02*
X8132890Y-13406960D01*
X8132890Y-13406960D02*
X8123366Y-13397436D01*
X8123366Y-13397436D02*
X8113842Y-13378388D01*
X8113842Y-13378388D02*
X8104318Y-13340293D01*
X8104318Y-13340293D02*
X8104318Y-13292674D01*
X8104318Y-13292674D02*
X8113842Y-13254579D01*
X8113842Y-13254579D02*
X8123366Y-13235531D01*
X8123366Y-13235531D02*
X8132890Y-13226008D01*
X8132890Y-13226008D02*
X8151937Y-13216484D01*
X8342414Y-13216484D02*
X8361461Y-13216484D01*
X8361461Y-13216484D02*
X8380509Y-13226008D01*
X8380509Y-13226008D02*
X8390033Y-13235531D01*
X8390033Y-13235531D02*
X8399557Y-13254579D01*
X8399557Y-13254579D02*
X8409080Y-13292674D01*
X8409080Y-13292674D02*
X8409080Y-13340293D01*
X8409080Y-13340293D02*
X8399557Y-13378388D01*
X8399557Y-13378388D02*
X8390033Y-13397436D01*
X8390033Y-13397436D02*
X8380509Y-13406960D01*
X8380509Y-13406960D02*
X8361461Y-13416484D01*
X8361461Y-13416484D02*
X8342414Y-13416484D01*
X8342414Y-13416484D02*
X8323366Y-13406960D01*
X8323366Y-13406960D02*
X8313842Y-13397436D01*
X8313842Y-13397436D02*
X8304318Y-13378388D01*
X8304318Y-13378388D02*
X8294795Y-13340293D01*
X8294795Y-13340293D02*
X8294795Y-13292674D01*
X8294795Y-13292674D02*
X8304318Y-13254579D01*
X8304318Y-13254579D02*
X8313842Y-13235531D01*
X8313842Y-13235531D02*
X8323366Y-13226008D01*
X8323366Y-13226008D02*
X8342414Y-13216484D01*
X8494795Y-13416484D02*
X8494795Y-13283150D01*
X8494795Y-13302198D02*
X8504319Y-13292674D01*
X8504319Y-13292674D02*
X8523366Y-13283150D01*
X8523366Y-13283150D02*
X8551938Y-13283150D01*
X8551938Y-13283150D02*
X8570985Y-13292674D01*
X8570985Y-13292674D02*
X8580509Y-13311722D01*
X8580509Y-13311722D02*
X8580509Y-13416484D01*
X8580509Y-13311722D02*
X8590033Y-13292674D01*
X8590033Y-13292674D02*
X8609080Y-13283150D01*
X8609080Y-13283150D02*
X8637652Y-13283150D01*
X8637652Y-13283150D02*
X8656700Y-13292674D01*
X8656700Y-13292674D02*
X8666223Y-13311722D01*
X8666223Y-13311722D02*
X8666223Y-13416484D01*
X8761461Y-13416484D02*
X8761461Y-13283150D01*
X8761461Y-13302198D02*
X8770985Y-13292674D01*
X8770985Y-13292674D02*
X8790033Y-13283150D01*
X8790033Y-13283150D02*
X8818604Y-13283150D01*
X8818604Y-13283150D02*
X8837652Y-13292674D01*
X8837652Y-13292674D02*
X8847176Y-13311722D01*
X8847176Y-13311722D02*
X8847176Y-13416484D01*
X8847176Y-13311722D02*
X8856700Y-13292674D01*
X8856700Y-13292674D02*
X8875747Y-13283150D01*
X8875747Y-13283150D02*
X8904319Y-13283150D01*
X8904319Y-13283150D02*
X8923366Y-13292674D01*
X8923366Y-13292674D02*
X8932890Y-13311722D01*
X8932890Y-13311722D02*
X8932890Y-13416484D01*
X9323366Y-13206960D02*
X9151938Y-13464103D01*
X9580509Y-13216484D02*
X9599557Y-13216484D01*
X9599557Y-13216484D02*
X9618604Y-13226008D01*
X9618604Y-13226008D02*
X9628128Y-13235531D01*
X9628128Y-13235531D02*
X9637652Y-13254579D01*
X9637652Y-13254579D02*
X9647176Y-13292674D01*
X9647176Y-13292674D02*
X9647176Y-13340293D01*
X9647176Y-13340293D02*
X9637652Y-13378388D01*
X9637652Y-13378388D02*
X9628128Y-13397436D01*
X9628128Y-13397436D02*
X9618604Y-13406960D01*
X9618604Y-13406960D02*
X9599557Y-13416484D01*
X9599557Y-13416484D02*
X9580509Y-13416484D01*
X9580509Y-13416484D02*
X9561462Y-13406960D01*
X9561462Y-13406960D02*
X9551938Y-13397436D01*
X9551938Y-13397436D02*
X9542414Y-13378388D01*
X9542414Y-13378388D02*
X9532890Y-13340293D01*
X9532890Y-13340293D02*
X9532890Y-13292674D01*
X9532890Y-13292674D02*
X9542414Y-13254579D01*
X9542414Y-13254579D02*
X9551938Y-13235531D01*
X9551938Y-13235531D02*
X9561462Y-13226008D01*
X9561462Y-13226008D02*
X9580509Y-13216484D01*
X9732890Y-13397436D02*
X9742414Y-13406960D01*
X9742414Y-13406960D02*
X9732890Y-13416484D01*
X9732890Y-13416484D02*
X9723366Y-13406960D01*
X9723366Y-13406960D02*
X9732890Y-13397436D01*
X9732890Y-13397436D02*
X9732890Y-13416484D01*
X9932890Y-13416484D02*
X9818604Y-13416484D01*
X9875747Y-13416484D02*
X9875747Y-13216484D01*
X9875747Y-13216484D02*
X9856700Y-13245055D01*
X9856700Y-13245055D02*
X9837652Y-13264103D01*
X9837652Y-13264103D02*
X9818604Y-13273627D01*
X10113843Y-13216484D02*
X10018604Y-13216484D01*
X10018604Y-13216484D02*
X10009081Y-13311722D01*
X10009081Y-13311722D02*
X10018604Y-13302198D01*
X10018604Y-13302198D02*
X10037652Y-13292674D01*
X10037652Y-13292674D02*
X10085271Y-13292674D01*
X10085271Y-13292674D02*
X10104319Y-13302198D01*
X10104319Y-13302198D02*
X10113843Y-13311722D01*
X10113843Y-13311722D02*
X10123366Y-13330769D01*
X10123366Y-13330769D02*
X10123366Y-13378388D01*
X10123366Y-13378388D02*
X10113843Y-13397436D01*
X10113843Y-13397436D02*
X10104319Y-13406960D01*
X10104319Y-13406960D02*
X10085271Y-13416484D01*
X10085271Y-13416484D02*
X10037652Y-13416484D01*
X10037652Y-13416484D02*
X10018604Y-13406960D01*
X10018604Y-13406960D02*
X10009081Y-13397436D01*
X10190033Y-13216484D02*
X10323366Y-13216484D01*
X10323366Y-13216484D02*
X10237652Y-13416484D01*
X10494795Y-13216484D02*
X10399557Y-13216484D01*
X10399557Y-13216484D02*
X10390033Y-13311722D01*
X10390033Y-13311722D02*
X10399557Y-13302198D01*
X10399557Y-13302198D02*
X10418604Y-13292674D01*
X10418604Y-13292674D02*
X10466224Y-13292674D01*
X10466224Y-13292674D02*
X10485271Y-13302198D01*
X10485271Y-13302198D02*
X10494795Y-13311722D01*
X10494795Y-13311722D02*
X10504319Y-13330769D01*
X10504319Y-13330769D02*
X10504319Y-13378388D01*
X10504319Y-13378388D02*
X10494795Y-13397436D01*
X10494795Y-13397436D02*
X10485271Y-13406960D01*
X10485271Y-13406960D02*
X10466224Y-13416484D01*
X10466224Y-13416484D02*
X10418604Y-13416484D01*
X10418604Y-13416484D02*
X10399557Y-13406960D01*
X10399557Y-13406960D02*
X10390033Y-13397436D01*
X10580509Y-13216484D02*
X10580509Y-13254579D01*
X10656700Y-13216484D02*
X10656700Y-13254579D01*
X10951938Y-13492674D02*
X10942414Y-13483150D01*
X10942414Y-13483150D02*
X10923366Y-13454579D01*
X10923366Y-13454579D02*
X10913843Y-13435531D01*
X10913843Y-13435531D02*
X10904319Y-13406960D01*
X10904319Y-13406960D02*
X10894795Y-13359341D01*
X10894795Y-13359341D02*
X10894795Y-13321246D01*
X10894795Y-13321246D02*
X10904319Y-13273627D01*
X10904319Y-13273627D02*
X10913843Y-13245055D01*
X10913843Y-13245055D02*
X10923366Y-13226008D01*
X10923366Y-13226008D02*
X10942414Y-13197436D01*
X10942414Y-13197436D02*
X10951938Y-13187912D01*
X11132890Y-13416484D02*
X11018605Y-13416484D01*
X11075747Y-13416484D02*
X11075747Y-13216484D01*
X11075747Y-13216484D02*
X11056700Y-13245055D01*
X11056700Y-13245055D02*
X11037652Y-13264103D01*
X11037652Y-13264103D02*
X11018605Y-13273627D01*
X11256700Y-13216484D02*
X11275747Y-13216484D01*
X11275747Y-13216484D02*
X11294795Y-13226008D01*
X11294795Y-13226008D02*
X11304319Y-13235531D01*
X11304319Y-13235531D02*
X11313843Y-13254579D01*
X11313843Y-13254579D02*
X11323366Y-13292674D01*
X11323366Y-13292674D02*
X11323366Y-13340293D01*
X11323366Y-13340293D02*
X11313843Y-13378388D01*
X11313843Y-13378388D02*
X11304319Y-13397436D01*
X11304319Y-13397436D02*
X11294795Y-13406960D01*
X11294795Y-13406960D02*
X11275747Y-13416484D01*
X11275747Y-13416484D02*
X11256700Y-13416484D01*
X11256700Y-13416484D02*
X11237652Y-13406960D01*
X11237652Y-13406960D02*
X11228128Y-13397436D01*
X11228128Y-13397436D02*
X11218604Y-13378388D01*
X11218604Y-13378388D02*
X11209081Y-13340293D01*
X11209081Y-13340293D02*
X11209081Y-13292674D01*
X11209081Y-13292674D02*
X11218604Y-13254579D01*
X11218604Y-13254579D02*
X11228128Y-13235531D01*
X11228128Y-13235531D02*
X11237652Y-13226008D01*
X11237652Y-13226008D02*
X11256700Y-13216484D01*
X11561462Y-13416484D02*
X11561462Y-13216484D01*
X11647176Y-13416484D02*
X11647176Y-13311722D01*
X11647176Y-13311722D02*
X11637652Y-13292674D01*
X11637652Y-13292674D02*
X11618605Y-13283150D01*
X11618605Y-13283150D02*
X11590033Y-13283150D01*
X11590033Y-13283150D02*
X11570985Y-13292674D01*
X11570985Y-13292674D02*
X11561462Y-13302198D01*
X11770985Y-13416484D02*
X11751938Y-13406960D01*
X11751938Y-13406960D02*
X11742414Y-13397436D01*
X11742414Y-13397436D02*
X11732890Y-13378388D01*
X11732890Y-13378388D02*
X11732890Y-13321246D01*
X11732890Y-13321246D02*
X11742414Y-13302198D01*
X11742414Y-13302198D02*
X11751938Y-13292674D01*
X11751938Y-13292674D02*
X11770985Y-13283150D01*
X11770985Y-13283150D02*
X11799557Y-13283150D01*
X11799557Y-13283150D02*
X11818605Y-13292674D01*
X11818605Y-13292674D02*
X11828128Y-13302198D01*
X11828128Y-13302198D02*
X11837652Y-13321246D01*
X11837652Y-13321246D02*
X11837652Y-13378388D01*
X11837652Y-13378388D02*
X11828128Y-13397436D01*
X11828128Y-13397436D02*
X11818605Y-13406960D01*
X11818605Y-13406960D02*
X11799557Y-13416484D01*
X11799557Y-13416484D02*
X11770985Y-13416484D01*
X11951938Y-13416484D02*
X11932890Y-13406960D01*
X11932890Y-13406960D02*
X11923366Y-13387912D01*
X11923366Y-13387912D02*
X11923366Y-13216484D01*
X12104319Y-13406960D02*
X12085271Y-13416484D01*
X12085271Y-13416484D02*
X12047176Y-13416484D01*
X12047176Y-13416484D02*
X12028128Y-13406960D01*
X12028128Y-13406960D02*
X12018605Y-13387912D01*
X12018605Y-13387912D02*
X12018605Y-13311722D01*
X12018605Y-13311722D02*
X12028128Y-13292674D01*
X12028128Y-13292674D02*
X12047176Y-13283150D01*
X12047176Y-13283150D02*
X12085271Y-13283150D01*
X12085271Y-13283150D02*
X12104319Y-13292674D01*
X12104319Y-13292674D02*
X12113843Y-13311722D01*
X12113843Y-13311722D02*
X12113843Y-13330769D01*
X12113843Y-13330769D02*
X12018605Y-13349817D01*
X12190033Y-13406960D02*
X12209081Y-13416484D01*
X12209081Y-13416484D02*
X12247176Y-13416484D01*
X12247176Y-13416484D02*
X12266224Y-13406960D01*
X12266224Y-13406960D02*
X12275747Y-13387912D01*
X12275747Y-13387912D02*
X12275747Y-13378388D01*
X12275747Y-13378388D02*
X12266224Y-13359341D01*
X12266224Y-13359341D02*
X12247176Y-13349817D01*
X12247176Y-13349817D02*
X12218605Y-13349817D01*
X12218605Y-13349817D02*
X12199557Y-13340293D01*
X12199557Y-13340293D02*
X12190033Y-13321246D01*
X12190033Y-13321246D02*
X12190033Y-13311722D01*
X12190033Y-13311722D02*
X12199557Y-13292674D01*
X12199557Y-13292674D02*
X12218605Y-13283150D01*
X12218605Y-13283150D02*
X12247176Y-13283150D01*
X12247176Y-13283150D02*
X12266224Y-13292674D01*
X12342414Y-13492674D02*
X12351938Y-13483150D01*
X12351938Y-13483150D02*
X12370986Y-13454579D01*
X12370986Y-13454579D02*
X12380509Y-13435531D01*
X12380509Y-13435531D02*
X12390033Y-13406960D01*
X12390033Y-13406960D02*
X12399557Y-13359341D01*
X12399557Y-13359341D02*
X12399557Y-13321246D01*
X12399557Y-13321246D02*
X12390033Y-13273627D01*
X12390033Y-13273627D02*
X12380509Y-13245055D01*
X12380509Y-13245055D02*
X12370986Y-13226008D01*
X12370986Y-13226008D02*
X12351938Y-13197436D01*
X12351938Y-13197436D02*
X12342414Y-13187912D01*
X12704319Y-13492674D02*
X12694795Y-13483150D01*
X12694795Y-13483150D02*
X12675747Y-13454579D01*
X12675747Y-13454579D02*
X12666224Y-13435531D01*
X12666224Y-13435531D02*
X12656700Y-13406960D01*
X12656700Y-13406960D02*
X12647176Y-13359341D01*
X12647176Y-13359341D02*
X12647176Y-13321246D01*
X12647176Y-13321246D02*
X12656700Y-13273627D01*
X12656700Y-13273627D02*
X12666224Y-13245055D01*
X12666224Y-13245055D02*
X12675747Y-13226008D01*
X12675747Y-13226008D02*
X12694795Y-13197436D01*
X12694795Y-13197436D02*
X12704319Y-13187912D01*
X12780509Y-13283150D02*
X12780509Y-13416484D01*
X12780509Y-13302198D02*
X12790033Y-13292674D01*
X12790033Y-13292674D02*
X12809081Y-13283150D01*
X12809081Y-13283150D02*
X12837652Y-13283150D01*
X12837652Y-13283150D02*
X12856700Y-13292674D01*
X12856700Y-13292674D02*
X12866224Y-13311722D01*
X12866224Y-13311722D02*
X12866224Y-13416484D01*
X12990033Y-13416484D02*
X12970986Y-13406960D01*
X12970986Y-13406960D02*
X12961462Y-13397436D01*
X12961462Y-13397436D02*
X12951938Y-13378388D01*
X12951938Y-13378388D02*
X12951938Y-13321246D01*
X12951938Y-13321246D02*
X12961462Y-13302198D01*
X12961462Y-13302198D02*
X12970986Y-13292674D01*
X12970986Y-13292674D02*
X12990033Y-13283150D01*
X12990033Y-13283150D02*
X13018605Y-13283150D01*
X13018605Y-13283150D02*
X13037652Y-13292674D01*
X13037652Y-13292674D02*
X13047176Y-13302198D01*
X13047176Y-13302198D02*
X13056700Y-13321246D01*
X13056700Y-13321246D02*
X13056700Y-13378388D01*
X13056700Y-13378388D02*
X13047176Y-13397436D01*
X13047176Y-13397436D02*
X13037652Y-13406960D01*
X13037652Y-13406960D02*
X13018605Y-13416484D01*
X13018605Y-13416484D02*
X12990033Y-13416484D01*
X13113843Y-13283150D02*
X13190033Y-13283150D01*
X13142414Y-13216484D02*
X13142414Y-13387912D01*
X13142414Y-13387912D02*
X13151938Y-13406960D01*
X13151938Y-13406960D02*
X13170986Y-13416484D01*
X13170986Y-13416484D02*
X13190033Y-13416484D01*
X13409081Y-13283150D02*
X13409081Y-13483150D01*
X13409081Y-13292674D02*
X13428128Y-13283150D01*
X13428128Y-13283150D02*
X13466224Y-13283150D01*
X13466224Y-13283150D02*
X13485271Y-13292674D01*
X13485271Y-13292674D02*
X13494795Y-13302198D01*
X13494795Y-13302198D02*
X13504319Y-13321246D01*
X13504319Y-13321246D02*
X13504319Y-13378388D01*
X13504319Y-13378388D02*
X13494795Y-13397436D01*
X13494795Y-13397436D02*
X13485271Y-13406960D01*
X13485271Y-13406960D02*
X13466224Y-13416484D01*
X13466224Y-13416484D02*
X13428128Y-13416484D01*
X13428128Y-13416484D02*
X13409081Y-13406960D01*
X13618605Y-13416484D02*
X13599557Y-13406960D01*
X13599557Y-13406960D02*
X13590033Y-13387912D01*
X13590033Y-13387912D02*
X13590033Y-13216484D01*
X13780509Y-13416484D02*
X13780509Y-13311722D01*
X13780509Y-13311722D02*
X13770986Y-13292674D01*
X13770986Y-13292674D02*
X13751938Y-13283150D01*
X13751938Y-13283150D02*
X13713843Y-13283150D01*
X13713843Y-13283150D02*
X13694795Y-13292674D01*
X13780509Y-13406960D02*
X13761462Y-13416484D01*
X13761462Y-13416484D02*
X13713843Y-13416484D01*
X13713843Y-13416484D02*
X13694795Y-13406960D01*
X13694795Y-13406960D02*
X13685271Y-13387912D01*
X13685271Y-13387912D02*
X13685271Y-13368865D01*
X13685271Y-13368865D02*
X13694795Y-13349817D01*
X13694795Y-13349817D02*
X13713843Y-13340293D01*
X13713843Y-13340293D02*
X13761462Y-13340293D01*
X13761462Y-13340293D02*
X13780509Y-13330769D01*
X13847176Y-13283150D02*
X13923367Y-13283150D01*
X13875748Y-13216484D02*
X13875748Y-13387912D01*
X13875748Y-13387912D02*
X13885271Y-13406960D01*
X13885271Y-13406960D02*
X13904319Y-13416484D01*
X13904319Y-13416484D02*
X13923367Y-13416484D01*
X14066224Y-13406960D02*
X14047176Y-13416484D01*
X14047176Y-13416484D02*
X14009081Y-13416484D01*
X14009081Y-13416484D02*
X13990033Y-13406960D01*
X13990033Y-13406960D02*
X13980509Y-13387912D01*
X13980509Y-13387912D02*
X13980509Y-13311722D01*
X13980509Y-13311722D02*
X13990033Y-13292674D01*
X13990033Y-13292674D02*
X14009081Y-13283150D01*
X14009081Y-13283150D02*
X14047176Y-13283150D01*
X14047176Y-13283150D02*
X14066224Y-13292674D01*
X14066224Y-13292674D02*
X14075748Y-13311722D01*
X14075748Y-13311722D02*
X14075748Y-13330769D01*
X14075748Y-13330769D02*
X13980509Y-13349817D01*
X14247176Y-13416484D02*
X14247176Y-13216484D01*
X14247176Y-13406960D02*
X14228129Y-13416484D01*
X14228129Y-13416484D02*
X14190033Y-13416484D01*
X14190033Y-13416484D02*
X14170986Y-13406960D01*
X14170986Y-13406960D02*
X14161462Y-13397436D01*
X14161462Y-13397436D02*
X14151938Y-13378388D01*
X14151938Y-13378388D02*
X14151938Y-13321246D01*
X14151938Y-13321246D02*
X14161462Y-13302198D01*
X14161462Y-13302198D02*
X14170986Y-13292674D01*
X14170986Y-13292674D02*
X14190033Y-13283150D01*
X14190033Y-13283150D02*
X14228129Y-13283150D01*
X14228129Y-13283150D02*
X14247176Y-13292674D01*
X14323367Y-13492674D02*
X14332890Y-13483150D01*
X14332890Y-13483150D02*
X14351938Y-13454579D01*
X14351938Y-13454579D02*
X14361462Y-13435531D01*
X14361462Y-13435531D02*
X14370986Y-13406960D01*
X14370986Y-13406960D02*
X14380509Y-13359341D01*
X14380509Y-13359341D02*
X14380509Y-13321246D01*
X14380509Y-13321246D02*
X14370986Y-13273627D01*
X14370986Y-13273627D02*
X14361462Y-13245055D01*
X14361462Y-13245055D02*
X14351938Y-13226008D01*
X14351938Y-13226008D02*
X14332890Y-13197436D01*
X14332890Y-13197436D02*
X14323367Y-13187912D01*
M02*
