M48
; DRILL file {KiCad 7.0.9} date Tue 16 Jan 2024 12:31:07 AM GMT
; FORMAT={-:-/ absolute / metric / decimal}
; #@! TF.CreationDate,2024-01-16T00:31:07+00:00
; #@! TF.GenerationSoftware,Kicad,Pcbnew,7.0.9
; #@! TF.FileFunction,NonPlated,1,2,NPTH
FMAT,2
METRIC
; #@! TA.AperFunction,NonPlated,NPTH,ComponentDrill
T1C1.750
; #@! TA.AperFunction,NonPlated,NPTH,ComponentDrill
T2C2.500
; #@! TA.AperFunction,NonPlated,NPTH,ComponentDrill
T3C4.000
%
G90
G05
T1
X113.03Y-87.63
X113.03Y-106.68
X123.19Y-87.63
X123.19Y-106.68
X132.08Y-68.58
X132.08Y-87.63
X132.08Y-106.68
X142.24Y-68.58
X142.24Y-87.63
X142.24Y-106.68
X151.13Y-68.58
X151.13Y-87.63
X151.13Y-106.68
X161.29Y-68.58
X161.29Y-87.63
X161.29Y-106.68
X170.18Y-87.63
X170.18Y-106.68
X180.34Y-87.63
X180.34Y-106.68
T2
X80.169Y-64.294
X80.169Y-114.3
X190.5Y-64.294
X190.5Y-114.3
T3
X118.11Y-87.63
X118.11Y-106.68
X137.16Y-68.58
X137.16Y-87.63
X137.16Y-106.68
X156.21Y-68.58
X156.21Y-87.63
X156.21Y-106.68
X175.26Y-87.63
X175.26Y-106.68
T0
M30
