%TF.GenerationSoftware,KiCad,Pcbnew,7.0.9*%
%TF.CreationDate,2024-01-16T00:31:27+00:00*%
%TF.ProjectId,AryA-Macropad,41727941-2d4d-4616-9372-6f7061642e6b,1.0*%
%TF.SameCoordinates,Original*%
%TF.FileFunction,Drillmap*%
%TF.FilePolarity,Positive*%
%FSLAX45Y45*%
G04 Gerber Fmt 4.5, Leading zero omitted, Abs format (unit mm)*
G04 Created by KiCad (PCBNEW 7.0.9) date 2024-01-16 00:31:27*
%MOMM*%
%LPD*%
G01*
G04 APERTURE LIST*
%ADD10C,0.100000*%
%ADD11C,0.200000*%
%ADD12C,0.110000*%
%ADD13C,0.150000*%
%ADD14C,0.260000*%
G04 APERTURE END LIST*
D10*
X8016875Y-5794375D02*
G75*
G03*
X7381875Y-6429375I0J-635000D01*
G01*
X7381875Y-11430000D02*
X7381875Y-6429375D01*
X8016875Y-12065000D02*
X19050000Y-12065000D01*
X19685000Y-11430000D02*
X19685000Y-6429375D01*
X8016875Y-5794375D02*
X19050000Y-5794375D01*
X19050000Y-12065000D02*
G75*
G03*
X19685000Y-11430000I0J635000D01*
G01*
X7381875Y-11430000D02*
G75*
G03*
X8016875Y-12065000I635000J0D01*
G01*
X19685005Y-6429375D02*
G75*
G03*
X19050000Y-5794375I-635005J-5D01*
G01*
D11*
D10*
X11330625Y-6409375D02*
X11370625Y-6449375D01*
X11370625Y-6409375D02*
X11330625Y-6449375D01*
X15616875Y-6171250D02*
X15656875Y-6211250D01*
X15656875Y-6171250D02*
X15616875Y-6211250D01*
X9193000Y-11509375D02*
G75*
G03*
X9193000Y-11509375I-50000J0D01*
G01*
X9447000Y-11509375D02*
G75*
G03*
X9447000Y-11509375I-50000J0D01*
G01*
X9701000Y-11509375D02*
G75*
G03*
X9701000Y-11509375I-50000J0D01*
G01*
X9955000Y-11509375D02*
G75*
G03*
X9955000Y-11509375I-50000J0D01*
G01*
X11046000Y-6612000D02*
G75*
G03*
X11046000Y-6612000I-50000J0D01*
G01*
X11046000Y-6862000D02*
G75*
G03*
X11046000Y-6862000I-50000J0D01*
G01*
X11046000Y-7112000D02*
G75*
G03*
X11046000Y-7112000I-50000J0D01*
G01*
X12496000Y-6612000D02*
G75*
G03*
X12496000Y-6612000I-50000J0D01*
G01*
X12496000Y-7112000D02*
G75*
G03*
X12496000Y-7112000I-50000J0D01*
G01*
X16888000Y-6612000D02*
G75*
G03*
X16888000Y-6612000I-50000J0D01*
G01*
X16888000Y-6862000D02*
G75*
G03*
X16888000Y-6862000I-50000J0D01*
G01*
X16888000Y-7112000D02*
G75*
G03*
X16888000Y-7112000I-50000J0D01*
G01*
X18338000Y-6612000D02*
G75*
G03*
X18338000Y-6612000I-50000J0D01*
G01*
X18338000Y-7112000D02*
G75*
G03*
X18338000Y-7112000I-50000J0D01*
G01*
D12*
X8763000Y-6168000D02*
X8763000Y-6278000D01*
X8708000Y-6223000D02*
X8818000Y-6223000D01*
X8763000Y-6422000D02*
X8763000Y-6532000D01*
X8708000Y-6477000D02*
X8818000Y-6477000D01*
X8763000Y-6676000D02*
X8763000Y-6786000D01*
X8708000Y-6731000D02*
X8818000Y-6731000D01*
X8763000Y-6930000D02*
X8763000Y-7040000D01*
X8708000Y-6985000D02*
X8818000Y-6985000D01*
X8763000Y-7184000D02*
X8763000Y-7294000D01*
X8708000Y-7239000D02*
X8818000Y-7239000D01*
X8763000Y-7438000D02*
X8763000Y-7548000D01*
X8708000Y-7493000D02*
X8818000Y-7493000D01*
X8763000Y-7692000D02*
X8763000Y-7802000D01*
X8708000Y-7747000D02*
X8818000Y-7747000D01*
X8763000Y-7946000D02*
X8763000Y-8056000D01*
X8708000Y-8001000D02*
X8818000Y-8001000D01*
X8763000Y-8200000D02*
X8763000Y-8310000D01*
X8708000Y-8255000D02*
X8818000Y-8255000D01*
X8763000Y-8454000D02*
X8763000Y-8564000D01*
X8708000Y-8509000D02*
X8818000Y-8509000D01*
X8763000Y-8708000D02*
X8763000Y-8818000D01*
X8708000Y-8763000D02*
X8818000Y-8763000D01*
X8763000Y-8962000D02*
X8763000Y-9072000D01*
X8708000Y-9017000D02*
X8818000Y-9017000D01*
X10287000Y-6168000D02*
X10287000Y-6278000D01*
X10232000Y-6223000D02*
X10342000Y-6223000D01*
X10287000Y-6422000D02*
X10287000Y-6532000D01*
X10232000Y-6477000D02*
X10342000Y-6477000D01*
X10287000Y-6676000D02*
X10287000Y-6786000D01*
X10232000Y-6731000D02*
X10342000Y-6731000D01*
X10287000Y-6930000D02*
X10287000Y-7040000D01*
X10232000Y-6985000D02*
X10342000Y-6985000D01*
X10287000Y-7184000D02*
X10287000Y-7294000D01*
X10232000Y-7239000D02*
X10342000Y-7239000D01*
X10287000Y-7438000D02*
X10287000Y-7548000D01*
X10232000Y-7493000D02*
X10342000Y-7493000D01*
X10287000Y-7692000D02*
X10287000Y-7802000D01*
X10232000Y-7747000D02*
X10342000Y-7747000D01*
X10287000Y-7946000D02*
X10287000Y-8056000D01*
X10232000Y-8001000D02*
X10342000Y-8001000D01*
X10287000Y-8200000D02*
X10287000Y-8310000D01*
X10232000Y-8255000D02*
X10342000Y-8255000D01*
X10287000Y-8454000D02*
X10287000Y-8564000D01*
X10232000Y-8509000D02*
X10342000Y-8509000D01*
X10287000Y-8708000D02*
X10287000Y-8818000D01*
X10232000Y-8763000D02*
X10342000Y-8763000D01*
X10287000Y-8962000D02*
X10287000Y-9072000D01*
X10232000Y-9017000D02*
X10342000Y-9017000D01*
D13*
X11483033Y-8562034D02*
X11483033Y-8455967D01*
X11376966Y-8455967D01*
X11376966Y-8562034D01*
X11483033Y-8562034D01*
X11483033Y-10467034D02*
X11483033Y-10360967D01*
X11376966Y-10360967D01*
X11376966Y-10467034D01*
X11483033Y-10467034D01*
X12118033Y-8308033D02*
X12118033Y-8201966D01*
X12011966Y-8201966D01*
X12011966Y-8308033D01*
X12118033Y-8308033D01*
X12118033Y-10213034D02*
X12118033Y-10106967D01*
X12011966Y-10106967D01*
X12011966Y-10213034D01*
X12118033Y-10213034D01*
X13388033Y-6657033D02*
X13388033Y-6550966D01*
X13281966Y-6550966D01*
X13281966Y-6657033D01*
X13388033Y-6657033D01*
X13388033Y-8562034D02*
X13388033Y-8455967D01*
X13281966Y-8455967D01*
X13281966Y-8562034D01*
X13388033Y-8562034D01*
X13388033Y-10467034D02*
X13388033Y-10360967D01*
X13281966Y-10360967D01*
X13281966Y-10467034D01*
X13388033Y-10467034D01*
X14023033Y-6403033D02*
X14023033Y-6296966D01*
X13916966Y-6296966D01*
X13916966Y-6403033D01*
X14023033Y-6403033D01*
X14023033Y-8308033D02*
X14023033Y-8201966D01*
X13916966Y-8201966D01*
X13916966Y-8308033D01*
X14023033Y-8308033D01*
X14023033Y-10213034D02*
X14023033Y-10106967D01*
X13916966Y-10106967D01*
X13916966Y-10213034D01*
X14023033Y-10213034D01*
X15293033Y-6657033D02*
X15293033Y-6550966D01*
X15186966Y-6550966D01*
X15186966Y-6657033D01*
X15293033Y-6657033D01*
X15293033Y-8562034D02*
X15293033Y-8455967D01*
X15186966Y-8455967D01*
X15186966Y-8562034D01*
X15293033Y-8562034D01*
X15293033Y-10467034D02*
X15293033Y-10360967D01*
X15186966Y-10360967D01*
X15186966Y-10467034D01*
X15293033Y-10467034D01*
X15928033Y-6403033D02*
X15928033Y-6296966D01*
X15821966Y-6296966D01*
X15821966Y-6403033D01*
X15928033Y-6403033D01*
X15928033Y-8308033D02*
X15928033Y-8201966D01*
X15821966Y-8201966D01*
X15821966Y-8308033D01*
X15928033Y-8308033D01*
X15928033Y-10213034D02*
X15928033Y-10106967D01*
X15821966Y-10106967D01*
X15821966Y-10213034D01*
X15928033Y-10213034D01*
X17198034Y-8562034D02*
X17198034Y-8455967D01*
X17091967Y-8455967D01*
X17091967Y-8562034D01*
X17198034Y-8562034D01*
X17198034Y-10467034D02*
X17198034Y-10360967D01*
X17091967Y-10360967D01*
X17091967Y-10467034D01*
X17198034Y-10467034D01*
X17833034Y-8308033D02*
X17833034Y-8201966D01*
X17726967Y-8201966D01*
X17726967Y-8308033D01*
X17833034Y-8308033D01*
X17833034Y-10213034D02*
X17833034Y-10106967D01*
X17726967Y-10106967D01*
X17726967Y-10213034D01*
X17833034Y-10213034D01*
D14*
X11746000Y-6432000D02*
X11876000Y-6302000D01*
X11746000Y-6172000D01*
X11616000Y-6302000D01*
X11746000Y-6432000D01*
X11746000Y-7552000D02*
X11876000Y-7422000D01*
X11746000Y-7292000D01*
X11616000Y-7422000D01*
X11746000Y-7552000D01*
X17588000Y-6432000D02*
X17718000Y-6302000D01*
X17588000Y-6172000D01*
X17458000Y-6302000D01*
X17588000Y-6432000D01*
X17588000Y-7552000D02*
X17718000Y-7422000D01*
X17588000Y-7292000D01*
X17458000Y-7422000D01*
X17588000Y-7552000D01*
D11*
X7637652Y-12381484D02*
X7637652Y-12181484D01*
X7637652Y-12181484D02*
X7685271Y-12181484D01*
X7685271Y-12181484D02*
X7713842Y-12191008D01*
X7713842Y-12191008D02*
X7732890Y-12210055D01*
X7732890Y-12210055D02*
X7742414Y-12229103D01*
X7742414Y-12229103D02*
X7751937Y-12267198D01*
X7751937Y-12267198D02*
X7751937Y-12295769D01*
X7751937Y-12295769D02*
X7742414Y-12333865D01*
X7742414Y-12333865D02*
X7732890Y-12352912D01*
X7732890Y-12352912D02*
X7713842Y-12371960D01*
X7713842Y-12371960D02*
X7685271Y-12381484D01*
X7685271Y-12381484D02*
X7637652Y-12381484D01*
X7837652Y-12381484D02*
X7837652Y-12248150D01*
X7837652Y-12286246D02*
X7847176Y-12267198D01*
X7847176Y-12267198D02*
X7856699Y-12257674D01*
X7856699Y-12257674D02*
X7875747Y-12248150D01*
X7875747Y-12248150D02*
X7894795Y-12248150D01*
X7961461Y-12381484D02*
X7961461Y-12248150D01*
X7961461Y-12181484D02*
X7951937Y-12191008D01*
X7951937Y-12191008D02*
X7961461Y-12200531D01*
X7961461Y-12200531D02*
X7970985Y-12191008D01*
X7970985Y-12191008D02*
X7961461Y-12181484D01*
X7961461Y-12181484D02*
X7961461Y-12200531D01*
X8085271Y-12381484D02*
X8066223Y-12371960D01*
X8066223Y-12371960D02*
X8056699Y-12352912D01*
X8056699Y-12352912D02*
X8056699Y-12181484D01*
X8190033Y-12381484D02*
X8170985Y-12371960D01*
X8170985Y-12371960D02*
X8161461Y-12352912D01*
X8161461Y-12352912D02*
X8161461Y-12181484D01*
X8418604Y-12381484D02*
X8418604Y-12181484D01*
X8418604Y-12181484D02*
X8485271Y-12324341D01*
X8485271Y-12324341D02*
X8551938Y-12181484D01*
X8551938Y-12181484D02*
X8551938Y-12381484D01*
X8732890Y-12381484D02*
X8732890Y-12276722D01*
X8732890Y-12276722D02*
X8723366Y-12257674D01*
X8723366Y-12257674D02*
X8704319Y-12248150D01*
X8704319Y-12248150D02*
X8666223Y-12248150D01*
X8666223Y-12248150D02*
X8647176Y-12257674D01*
X8732890Y-12371960D02*
X8713842Y-12381484D01*
X8713842Y-12381484D02*
X8666223Y-12381484D01*
X8666223Y-12381484D02*
X8647176Y-12371960D01*
X8647176Y-12371960D02*
X8637652Y-12352912D01*
X8637652Y-12352912D02*
X8637652Y-12333865D01*
X8637652Y-12333865D02*
X8647176Y-12314817D01*
X8647176Y-12314817D02*
X8666223Y-12305293D01*
X8666223Y-12305293D02*
X8713842Y-12305293D01*
X8713842Y-12305293D02*
X8732890Y-12295769D01*
X8828128Y-12248150D02*
X8828128Y-12448150D01*
X8828128Y-12257674D02*
X8847176Y-12248150D01*
X8847176Y-12248150D02*
X8885271Y-12248150D01*
X8885271Y-12248150D02*
X8904319Y-12257674D01*
X8904319Y-12257674D02*
X8913842Y-12267198D01*
X8913842Y-12267198D02*
X8923366Y-12286246D01*
X8923366Y-12286246D02*
X8923366Y-12343388D01*
X8923366Y-12343388D02*
X8913842Y-12362436D01*
X8913842Y-12362436D02*
X8904319Y-12371960D01*
X8904319Y-12371960D02*
X8885271Y-12381484D01*
X8885271Y-12381484D02*
X8847176Y-12381484D01*
X8847176Y-12381484D02*
X8828128Y-12371960D01*
X9009080Y-12362436D02*
X9018604Y-12371960D01*
X9018604Y-12371960D02*
X9009080Y-12381484D01*
X9009080Y-12381484D02*
X8999557Y-12371960D01*
X8999557Y-12371960D02*
X9009080Y-12362436D01*
X9009080Y-12362436D02*
X9009080Y-12381484D01*
X9009080Y-12257674D02*
X9018604Y-12267198D01*
X9018604Y-12267198D02*
X9009080Y-12276722D01*
X9009080Y-12276722D02*
X8999557Y-12267198D01*
X8999557Y-12267198D02*
X9009080Y-12257674D01*
X9009080Y-12257674D02*
X9009080Y-12276722D01*
D10*
X7336875Y-12690000D02*
X7376875Y-12730000D01*
X7376875Y-12690000D02*
X7336875Y-12730000D01*
D11*
X7675747Y-12601484D02*
X7694795Y-12601484D01*
X7694795Y-12601484D02*
X7713842Y-12611008D01*
X7713842Y-12611008D02*
X7723366Y-12620531D01*
X7723366Y-12620531D02*
X7732890Y-12639579D01*
X7732890Y-12639579D02*
X7742414Y-12677674D01*
X7742414Y-12677674D02*
X7742414Y-12725293D01*
X7742414Y-12725293D02*
X7732890Y-12763388D01*
X7732890Y-12763388D02*
X7723366Y-12782436D01*
X7723366Y-12782436D02*
X7713842Y-12791960D01*
X7713842Y-12791960D02*
X7694795Y-12801484D01*
X7694795Y-12801484D02*
X7675747Y-12801484D01*
X7675747Y-12801484D02*
X7656699Y-12791960D01*
X7656699Y-12791960D02*
X7647176Y-12782436D01*
X7647176Y-12782436D02*
X7637652Y-12763388D01*
X7637652Y-12763388D02*
X7628128Y-12725293D01*
X7628128Y-12725293D02*
X7628128Y-12677674D01*
X7628128Y-12677674D02*
X7637652Y-12639579D01*
X7637652Y-12639579D02*
X7647176Y-12620531D01*
X7647176Y-12620531D02*
X7656699Y-12611008D01*
X7656699Y-12611008D02*
X7675747Y-12601484D01*
X7828128Y-12782436D02*
X7837652Y-12791960D01*
X7837652Y-12791960D02*
X7828128Y-12801484D01*
X7828128Y-12801484D02*
X7818604Y-12791960D01*
X7818604Y-12791960D02*
X7828128Y-12782436D01*
X7828128Y-12782436D02*
X7828128Y-12801484D01*
X8009080Y-12668150D02*
X8009080Y-12801484D01*
X7961461Y-12591960D02*
X7913842Y-12734817D01*
X7913842Y-12734817D02*
X8037652Y-12734817D01*
X8151937Y-12601484D02*
X8170985Y-12601484D01*
X8170985Y-12601484D02*
X8190033Y-12611008D01*
X8190033Y-12611008D02*
X8199557Y-12620531D01*
X8199557Y-12620531D02*
X8209080Y-12639579D01*
X8209080Y-12639579D02*
X8218604Y-12677674D01*
X8218604Y-12677674D02*
X8218604Y-12725293D01*
X8218604Y-12725293D02*
X8209080Y-12763388D01*
X8209080Y-12763388D02*
X8199557Y-12782436D01*
X8199557Y-12782436D02*
X8190033Y-12791960D01*
X8190033Y-12791960D02*
X8170985Y-12801484D01*
X8170985Y-12801484D02*
X8151937Y-12801484D01*
X8151937Y-12801484D02*
X8132890Y-12791960D01*
X8132890Y-12791960D02*
X8123366Y-12782436D01*
X8123366Y-12782436D02*
X8113842Y-12763388D01*
X8113842Y-12763388D02*
X8104318Y-12725293D01*
X8104318Y-12725293D02*
X8104318Y-12677674D01*
X8104318Y-12677674D02*
X8113842Y-12639579D01*
X8113842Y-12639579D02*
X8123366Y-12620531D01*
X8123366Y-12620531D02*
X8132890Y-12611008D01*
X8132890Y-12611008D02*
X8151937Y-12601484D01*
X8342414Y-12601484D02*
X8361461Y-12601484D01*
X8361461Y-12601484D02*
X8380509Y-12611008D01*
X8380509Y-12611008D02*
X8390033Y-12620531D01*
X8390033Y-12620531D02*
X8399557Y-12639579D01*
X8399557Y-12639579D02*
X8409080Y-12677674D01*
X8409080Y-12677674D02*
X8409080Y-12725293D01*
X8409080Y-12725293D02*
X8399557Y-12763388D01*
X8399557Y-12763388D02*
X8390033Y-12782436D01*
X8390033Y-12782436D02*
X8380509Y-12791960D01*
X8380509Y-12791960D02*
X8361461Y-12801484D01*
X8361461Y-12801484D02*
X8342414Y-12801484D01*
X8342414Y-12801484D02*
X8323366Y-12791960D01*
X8323366Y-12791960D02*
X8313842Y-12782436D01*
X8313842Y-12782436D02*
X8304318Y-12763388D01*
X8304318Y-12763388D02*
X8294795Y-12725293D01*
X8294795Y-12725293D02*
X8294795Y-12677674D01*
X8294795Y-12677674D02*
X8304318Y-12639579D01*
X8304318Y-12639579D02*
X8313842Y-12620531D01*
X8313842Y-12620531D02*
X8323366Y-12611008D01*
X8323366Y-12611008D02*
X8342414Y-12601484D01*
X8494795Y-12801484D02*
X8494795Y-12668150D01*
X8494795Y-12687198D02*
X8504319Y-12677674D01*
X8504319Y-12677674D02*
X8523366Y-12668150D01*
X8523366Y-12668150D02*
X8551938Y-12668150D01*
X8551938Y-12668150D02*
X8570985Y-12677674D01*
X8570985Y-12677674D02*
X8580509Y-12696722D01*
X8580509Y-12696722D02*
X8580509Y-12801484D01*
X8580509Y-12696722D02*
X8590033Y-12677674D01*
X8590033Y-12677674D02*
X8609080Y-12668150D01*
X8609080Y-12668150D02*
X8637652Y-12668150D01*
X8637652Y-12668150D02*
X8656700Y-12677674D01*
X8656700Y-12677674D02*
X8666223Y-12696722D01*
X8666223Y-12696722D02*
X8666223Y-12801484D01*
X8761461Y-12801484D02*
X8761461Y-12668150D01*
X8761461Y-12687198D02*
X8770985Y-12677674D01*
X8770985Y-12677674D02*
X8790033Y-12668150D01*
X8790033Y-12668150D02*
X8818604Y-12668150D01*
X8818604Y-12668150D02*
X8837652Y-12677674D01*
X8837652Y-12677674D02*
X8847176Y-12696722D01*
X8847176Y-12696722D02*
X8847176Y-12801484D01*
X8847176Y-12696722D02*
X8856700Y-12677674D01*
X8856700Y-12677674D02*
X8875747Y-12668150D01*
X8875747Y-12668150D02*
X8904319Y-12668150D01*
X8904319Y-12668150D02*
X8923366Y-12677674D01*
X8923366Y-12677674D02*
X8932890Y-12696722D01*
X8932890Y-12696722D02*
X8932890Y-12801484D01*
X9323366Y-12591960D02*
X9151938Y-12849103D01*
X9580509Y-12601484D02*
X9599557Y-12601484D01*
X9599557Y-12601484D02*
X9618604Y-12611008D01*
X9618604Y-12611008D02*
X9628128Y-12620531D01*
X9628128Y-12620531D02*
X9637652Y-12639579D01*
X9637652Y-12639579D02*
X9647176Y-12677674D01*
X9647176Y-12677674D02*
X9647176Y-12725293D01*
X9647176Y-12725293D02*
X9637652Y-12763388D01*
X9637652Y-12763388D02*
X9628128Y-12782436D01*
X9628128Y-12782436D02*
X9618604Y-12791960D01*
X9618604Y-12791960D02*
X9599557Y-12801484D01*
X9599557Y-12801484D02*
X9580509Y-12801484D01*
X9580509Y-12801484D02*
X9561462Y-12791960D01*
X9561462Y-12791960D02*
X9551938Y-12782436D01*
X9551938Y-12782436D02*
X9542414Y-12763388D01*
X9542414Y-12763388D02*
X9532890Y-12725293D01*
X9532890Y-12725293D02*
X9532890Y-12677674D01*
X9532890Y-12677674D02*
X9542414Y-12639579D01*
X9542414Y-12639579D02*
X9551938Y-12620531D01*
X9551938Y-12620531D02*
X9561462Y-12611008D01*
X9561462Y-12611008D02*
X9580509Y-12601484D01*
X9732890Y-12782436D02*
X9742414Y-12791960D01*
X9742414Y-12791960D02*
X9732890Y-12801484D01*
X9732890Y-12801484D02*
X9723366Y-12791960D01*
X9723366Y-12791960D02*
X9732890Y-12782436D01*
X9732890Y-12782436D02*
X9732890Y-12801484D01*
X9866223Y-12601484D02*
X9885271Y-12601484D01*
X9885271Y-12601484D02*
X9904319Y-12611008D01*
X9904319Y-12611008D02*
X9913843Y-12620531D01*
X9913843Y-12620531D02*
X9923366Y-12639579D01*
X9923366Y-12639579D02*
X9932890Y-12677674D01*
X9932890Y-12677674D02*
X9932890Y-12725293D01*
X9932890Y-12725293D02*
X9923366Y-12763388D01*
X9923366Y-12763388D02*
X9913843Y-12782436D01*
X9913843Y-12782436D02*
X9904319Y-12791960D01*
X9904319Y-12791960D02*
X9885271Y-12801484D01*
X9885271Y-12801484D02*
X9866223Y-12801484D01*
X9866223Y-12801484D02*
X9847176Y-12791960D01*
X9847176Y-12791960D02*
X9837652Y-12782436D01*
X9837652Y-12782436D02*
X9828128Y-12763388D01*
X9828128Y-12763388D02*
X9818604Y-12725293D01*
X9818604Y-12725293D02*
X9818604Y-12677674D01*
X9818604Y-12677674D02*
X9828128Y-12639579D01*
X9828128Y-12639579D02*
X9837652Y-12620531D01*
X9837652Y-12620531D02*
X9847176Y-12611008D01*
X9847176Y-12611008D02*
X9866223Y-12601484D01*
X10123366Y-12801484D02*
X10009081Y-12801484D01*
X10066223Y-12801484D02*
X10066223Y-12601484D01*
X10066223Y-12601484D02*
X10047176Y-12630055D01*
X10047176Y-12630055D02*
X10028128Y-12649103D01*
X10028128Y-12649103D02*
X10009081Y-12658627D01*
X10304319Y-12601484D02*
X10209081Y-12601484D01*
X10209081Y-12601484D02*
X10199557Y-12696722D01*
X10199557Y-12696722D02*
X10209081Y-12687198D01*
X10209081Y-12687198D02*
X10228128Y-12677674D01*
X10228128Y-12677674D02*
X10275747Y-12677674D01*
X10275747Y-12677674D02*
X10294795Y-12687198D01*
X10294795Y-12687198D02*
X10304319Y-12696722D01*
X10304319Y-12696722D02*
X10313843Y-12715769D01*
X10313843Y-12715769D02*
X10313843Y-12763388D01*
X10313843Y-12763388D02*
X10304319Y-12782436D01*
X10304319Y-12782436D02*
X10294795Y-12791960D01*
X10294795Y-12791960D02*
X10275747Y-12801484D01*
X10275747Y-12801484D02*
X10228128Y-12801484D01*
X10228128Y-12801484D02*
X10209081Y-12791960D01*
X10209081Y-12791960D02*
X10199557Y-12782436D01*
X10380509Y-12601484D02*
X10513843Y-12601484D01*
X10513843Y-12601484D02*
X10428128Y-12801484D01*
X10580509Y-12601484D02*
X10580509Y-12639579D01*
X10656700Y-12601484D02*
X10656700Y-12639579D01*
X10951938Y-12877674D02*
X10942414Y-12868150D01*
X10942414Y-12868150D02*
X10923366Y-12839579D01*
X10923366Y-12839579D02*
X10913843Y-12820531D01*
X10913843Y-12820531D02*
X10904319Y-12791960D01*
X10904319Y-12791960D02*
X10894795Y-12744341D01*
X10894795Y-12744341D02*
X10894795Y-12706246D01*
X10894795Y-12706246D02*
X10904319Y-12658627D01*
X10904319Y-12658627D02*
X10913843Y-12630055D01*
X10913843Y-12630055D02*
X10923366Y-12611008D01*
X10923366Y-12611008D02*
X10942414Y-12582436D01*
X10942414Y-12582436D02*
X10951938Y-12572912D01*
X11018605Y-12620531D02*
X11028128Y-12611008D01*
X11028128Y-12611008D02*
X11047176Y-12601484D01*
X11047176Y-12601484D02*
X11094795Y-12601484D01*
X11094795Y-12601484D02*
X11113843Y-12611008D01*
X11113843Y-12611008D02*
X11123366Y-12620531D01*
X11123366Y-12620531D02*
X11132890Y-12639579D01*
X11132890Y-12639579D02*
X11132890Y-12658627D01*
X11132890Y-12658627D02*
X11123366Y-12687198D01*
X11123366Y-12687198D02*
X11009081Y-12801484D01*
X11009081Y-12801484D02*
X11132890Y-12801484D01*
X11370985Y-12801484D02*
X11370985Y-12601484D01*
X11456700Y-12801484D02*
X11456700Y-12696722D01*
X11456700Y-12696722D02*
X11447176Y-12677674D01*
X11447176Y-12677674D02*
X11428128Y-12668150D01*
X11428128Y-12668150D02*
X11399557Y-12668150D01*
X11399557Y-12668150D02*
X11380509Y-12677674D01*
X11380509Y-12677674D02*
X11370985Y-12687198D01*
X11580509Y-12801484D02*
X11561462Y-12791960D01*
X11561462Y-12791960D02*
X11551938Y-12782436D01*
X11551938Y-12782436D02*
X11542414Y-12763388D01*
X11542414Y-12763388D02*
X11542414Y-12706246D01*
X11542414Y-12706246D02*
X11551938Y-12687198D01*
X11551938Y-12687198D02*
X11561462Y-12677674D01*
X11561462Y-12677674D02*
X11580509Y-12668150D01*
X11580509Y-12668150D02*
X11609081Y-12668150D01*
X11609081Y-12668150D02*
X11628128Y-12677674D01*
X11628128Y-12677674D02*
X11637652Y-12687198D01*
X11637652Y-12687198D02*
X11647176Y-12706246D01*
X11647176Y-12706246D02*
X11647176Y-12763388D01*
X11647176Y-12763388D02*
X11637652Y-12782436D01*
X11637652Y-12782436D02*
X11628128Y-12791960D01*
X11628128Y-12791960D02*
X11609081Y-12801484D01*
X11609081Y-12801484D02*
X11580509Y-12801484D01*
X11761462Y-12801484D02*
X11742414Y-12791960D01*
X11742414Y-12791960D02*
X11732890Y-12772912D01*
X11732890Y-12772912D02*
X11732890Y-12601484D01*
X11913843Y-12791960D02*
X11894795Y-12801484D01*
X11894795Y-12801484D02*
X11856700Y-12801484D01*
X11856700Y-12801484D02*
X11837652Y-12791960D01*
X11837652Y-12791960D02*
X11828128Y-12772912D01*
X11828128Y-12772912D02*
X11828128Y-12696722D01*
X11828128Y-12696722D02*
X11837652Y-12677674D01*
X11837652Y-12677674D02*
X11856700Y-12668150D01*
X11856700Y-12668150D02*
X11894795Y-12668150D01*
X11894795Y-12668150D02*
X11913843Y-12677674D01*
X11913843Y-12677674D02*
X11923366Y-12696722D01*
X11923366Y-12696722D02*
X11923366Y-12715769D01*
X11923366Y-12715769D02*
X11828128Y-12734817D01*
X11999557Y-12791960D02*
X12018605Y-12801484D01*
X12018605Y-12801484D02*
X12056700Y-12801484D01*
X12056700Y-12801484D02*
X12075747Y-12791960D01*
X12075747Y-12791960D02*
X12085271Y-12772912D01*
X12085271Y-12772912D02*
X12085271Y-12763388D01*
X12085271Y-12763388D02*
X12075747Y-12744341D01*
X12075747Y-12744341D02*
X12056700Y-12734817D01*
X12056700Y-12734817D02*
X12028128Y-12734817D01*
X12028128Y-12734817D02*
X12009081Y-12725293D01*
X12009081Y-12725293D02*
X11999557Y-12706246D01*
X11999557Y-12706246D02*
X11999557Y-12696722D01*
X11999557Y-12696722D02*
X12009081Y-12677674D01*
X12009081Y-12677674D02*
X12028128Y-12668150D01*
X12028128Y-12668150D02*
X12056700Y-12668150D01*
X12056700Y-12668150D02*
X12075747Y-12677674D01*
X12151938Y-12877674D02*
X12161462Y-12868150D01*
X12161462Y-12868150D02*
X12180509Y-12839579D01*
X12180509Y-12839579D02*
X12190033Y-12820531D01*
X12190033Y-12820531D02*
X12199557Y-12791960D01*
X12199557Y-12791960D02*
X12209081Y-12744341D01*
X12209081Y-12744341D02*
X12209081Y-12706246D01*
X12209081Y-12706246D02*
X12199557Y-12658627D01*
X12199557Y-12658627D02*
X12190033Y-12630055D01*
X12190033Y-12630055D02*
X12180509Y-12611008D01*
X12180509Y-12611008D02*
X12161462Y-12582436D01*
X12161462Y-12582436D02*
X12151938Y-12572912D01*
D10*
X7376875Y-12974000D02*
G75*
G03*
X7376875Y-12974000I-50000J0D01*
G01*
D11*
X7742414Y-13065484D02*
X7628128Y-13065484D01*
X7685271Y-13065484D02*
X7685271Y-12865484D01*
X7685271Y-12865484D02*
X7666223Y-12894055D01*
X7666223Y-12894055D02*
X7647176Y-12913103D01*
X7647176Y-12913103D02*
X7628128Y-12922627D01*
X7828128Y-13046436D02*
X7837652Y-13055960D01*
X7837652Y-13055960D02*
X7828128Y-13065484D01*
X7828128Y-13065484D02*
X7818604Y-13055960D01*
X7818604Y-13055960D02*
X7828128Y-13046436D01*
X7828128Y-13046436D02*
X7828128Y-13065484D01*
X7961461Y-12865484D02*
X7980509Y-12865484D01*
X7980509Y-12865484D02*
X7999557Y-12875008D01*
X7999557Y-12875008D02*
X8009080Y-12884531D01*
X8009080Y-12884531D02*
X8018604Y-12903579D01*
X8018604Y-12903579D02*
X8028128Y-12941674D01*
X8028128Y-12941674D02*
X8028128Y-12989293D01*
X8028128Y-12989293D02*
X8018604Y-13027388D01*
X8018604Y-13027388D02*
X8009080Y-13046436D01*
X8009080Y-13046436D02*
X7999557Y-13055960D01*
X7999557Y-13055960D02*
X7980509Y-13065484D01*
X7980509Y-13065484D02*
X7961461Y-13065484D01*
X7961461Y-13065484D02*
X7942414Y-13055960D01*
X7942414Y-13055960D02*
X7932890Y-13046436D01*
X7932890Y-13046436D02*
X7923366Y-13027388D01*
X7923366Y-13027388D02*
X7913842Y-12989293D01*
X7913842Y-12989293D02*
X7913842Y-12941674D01*
X7913842Y-12941674D02*
X7923366Y-12903579D01*
X7923366Y-12903579D02*
X7932890Y-12884531D01*
X7932890Y-12884531D02*
X7942414Y-12875008D01*
X7942414Y-12875008D02*
X7961461Y-12865484D01*
X8151937Y-12865484D02*
X8170985Y-12865484D01*
X8170985Y-12865484D02*
X8190033Y-12875008D01*
X8190033Y-12875008D02*
X8199557Y-12884531D01*
X8199557Y-12884531D02*
X8209080Y-12903579D01*
X8209080Y-12903579D02*
X8218604Y-12941674D01*
X8218604Y-12941674D02*
X8218604Y-12989293D01*
X8218604Y-12989293D02*
X8209080Y-13027388D01*
X8209080Y-13027388D02*
X8199557Y-13046436D01*
X8199557Y-13046436D02*
X8190033Y-13055960D01*
X8190033Y-13055960D02*
X8170985Y-13065484D01*
X8170985Y-13065484D02*
X8151937Y-13065484D01*
X8151937Y-13065484D02*
X8132890Y-13055960D01*
X8132890Y-13055960D02*
X8123366Y-13046436D01*
X8123366Y-13046436D02*
X8113842Y-13027388D01*
X8113842Y-13027388D02*
X8104318Y-12989293D01*
X8104318Y-12989293D02*
X8104318Y-12941674D01*
X8104318Y-12941674D02*
X8113842Y-12903579D01*
X8113842Y-12903579D02*
X8123366Y-12884531D01*
X8123366Y-12884531D02*
X8132890Y-12875008D01*
X8132890Y-12875008D02*
X8151937Y-12865484D01*
X8342414Y-12865484D02*
X8361461Y-12865484D01*
X8361461Y-12865484D02*
X8380509Y-12875008D01*
X8380509Y-12875008D02*
X8390033Y-12884531D01*
X8390033Y-12884531D02*
X8399557Y-12903579D01*
X8399557Y-12903579D02*
X8409080Y-12941674D01*
X8409080Y-12941674D02*
X8409080Y-12989293D01*
X8409080Y-12989293D02*
X8399557Y-13027388D01*
X8399557Y-13027388D02*
X8390033Y-13046436D01*
X8390033Y-13046436D02*
X8380509Y-13055960D01*
X8380509Y-13055960D02*
X8361461Y-13065484D01*
X8361461Y-13065484D02*
X8342414Y-13065484D01*
X8342414Y-13065484D02*
X8323366Y-13055960D01*
X8323366Y-13055960D02*
X8313842Y-13046436D01*
X8313842Y-13046436D02*
X8304318Y-13027388D01*
X8304318Y-13027388D02*
X8294795Y-12989293D01*
X8294795Y-12989293D02*
X8294795Y-12941674D01*
X8294795Y-12941674D02*
X8304318Y-12903579D01*
X8304318Y-12903579D02*
X8313842Y-12884531D01*
X8313842Y-12884531D02*
X8323366Y-12875008D01*
X8323366Y-12875008D02*
X8342414Y-12865484D01*
X8494795Y-13065484D02*
X8494795Y-12932150D01*
X8494795Y-12951198D02*
X8504319Y-12941674D01*
X8504319Y-12941674D02*
X8523366Y-12932150D01*
X8523366Y-12932150D02*
X8551938Y-12932150D01*
X8551938Y-12932150D02*
X8570985Y-12941674D01*
X8570985Y-12941674D02*
X8580509Y-12960722D01*
X8580509Y-12960722D02*
X8580509Y-13065484D01*
X8580509Y-12960722D02*
X8590033Y-12941674D01*
X8590033Y-12941674D02*
X8609080Y-12932150D01*
X8609080Y-12932150D02*
X8637652Y-12932150D01*
X8637652Y-12932150D02*
X8656700Y-12941674D01*
X8656700Y-12941674D02*
X8666223Y-12960722D01*
X8666223Y-12960722D02*
X8666223Y-13065484D01*
X8761461Y-13065484D02*
X8761461Y-12932150D01*
X8761461Y-12951198D02*
X8770985Y-12941674D01*
X8770985Y-12941674D02*
X8790033Y-12932150D01*
X8790033Y-12932150D02*
X8818604Y-12932150D01*
X8818604Y-12932150D02*
X8837652Y-12941674D01*
X8837652Y-12941674D02*
X8847176Y-12960722D01*
X8847176Y-12960722D02*
X8847176Y-13065484D01*
X8847176Y-12960722D02*
X8856700Y-12941674D01*
X8856700Y-12941674D02*
X8875747Y-12932150D01*
X8875747Y-12932150D02*
X8904319Y-12932150D01*
X8904319Y-12932150D02*
X8923366Y-12941674D01*
X8923366Y-12941674D02*
X8932890Y-12960722D01*
X8932890Y-12960722D02*
X8932890Y-13065484D01*
X9323366Y-12855960D02*
X9151938Y-13113103D01*
X9580509Y-12865484D02*
X9599557Y-12865484D01*
X9599557Y-12865484D02*
X9618604Y-12875008D01*
X9618604Y-12875008D02*
X9628128Y-12884531D01*
X9628128Y-12884531D02*
X9637652Y-12903579D01*
X9637652Y-12903579D02*
X9647176Y-12941674D01*
X9647176Y-12941674D02*
X9647176Y-12989293D01*
X9647176Y-12989293D02*
X9637652Y-13027388D01*
X9637652Y-13027388D02*
X9628128Y-13046436D01*
X9628128Y-13046436D02*
X9618604Y-13055960D01*
X9618604Y-13055960D02*
X9599557Y-13065484D01*
X9599557Y-13065484D02*
X9580509Y-13065484D01*
X9580509Y-13065484D02*
X9561462Y-13055960D01*
X9561462Y-13055960D02*
X9551938Y-13046436D01*
X9551938Y-13046436D02*
X9542414Y-13027388D01*
X9542414Y-13027388D02*
X9532890Y-12989293D01*
X9532890Y-12989293D02*
X9532890Y-12941674D01*
X9532890Y-12941674D02*
X9542414Y-12903579D01*
X9542414Y-12903579D02*
X9551938Y-12884531D01*
X9551938Y-12884531D02*
X9561462Y-12875008D01*
X9561462Y-12875008D02*
X9580509Y-12865484D01*
X9732890Y-13046436D02*
X9742414Y-13055960D01*
X9742414Y-13055960D02*
X9732890Y-13065484D01*
X9732890Y-13065484D02*
X9723366Y-13055960D01*
X9723366Y-13055960D02*
X9732890Y-13046436D01*
X9732890Y-13046436D02*
X9732890Y-13065484D01*
X9866223Y-12865484D02*
X9885271Y-12865484D01*
X9885271Y-12865484D02*
X9904319Y-12875008D01*
X9904319Y-12875008D02*
X9913843Y-12884531D01*
X9913843Y-12884531D02*
X9923366Y-12903579D01*
X9923366Y-12903579D02*
X9932890Y-12941674D01*
X9932890Y-12941674D02*
X9932890Y-12989293D01*
X9932890Y-12989293D02*
X9923366Y-13027388D01*
X9923366Y-13027388D02*
X9913843Y-13046436D01*
X9913843Y-13046436D02*
X9904319Y-13055960D01*
X9904319Y-13055960D02*
X9885271Y-13065484D01*
X9885271Y-13065484D02*
X9866223Y-13065484D01*
X9866223Y-13065484D02*
X9847176Y-13055960D01*
X9847176Y-13055960D02*
X9837652Y-13046436D01*
X9837652Y-13046436D02*
X9828128Y-13027388D01*
X9828128Y-13027388D02*
X9818604Y-12989293D01*
X9818604Y-12989293D02*
X9818604Y-12941674D01*
X9818604Y-12941674D02*
X9828128Y-12903579D01*
X9828128Y-12903579D02*
X9837652Y-12884531D01*
X9837652Y-12884531D02*
X9847176Y-12875008D01*
X9847176Y-12875008D02*
X9866223Y-12865484D01*
X9999557Y-12865484D02*
X10123366Y-12865484D01*
X10123366Y-12865484D02*
X10056700Y-12941674D01*
X10056700Y-12941674D02*
X10085271Y-12941674D01*
X10085271Y-12941674D02*
X10104319Y-12951198D01*
X10104319Y-12951198D02*
X10113843Y-12960722D01*
X10113843Y-12960722D02*
X10123366Y-12979769D01*
X10123366Y-12979769D02*
X10123366Y-13027388D01*
X10123366Y-13027388D02*
X10113843Y-13046436D01*
X10113843Y-13046436D02*
X10104319Y-13055960D01*
X10104319Y-13055960D02*
X10085271Y-13065484D01*
X10085271Y-13065484D02*
X10028128Y-13065484D01*
X10028128Y-13065484D02*
X10009081Y-13055960D01*
X10009081Y-13055960D02*
X9999557Y-13046436D01*
X10218604Y-13065484D02*
X10256700Y-13065484D01*
X10256700Y-13065484D02*
X10275747Y-13055960D01*
X10275747Y-13055960D02*
X10285271Y-13046436D01*
X10285271Y-13046436D02*
X10304319Y-13017865D01*
X10304319Y-13017865D02*
X10313843Y-12979769D01*
X10313843Y-12979769D02*
X10313843Y-12903579D01*
X10313843Y-12903579D02*
X10304319Y-12884531D01*
X10304319Y-12884531D02*
X10294795Y-12875008D01*
X10294795Y-12875008D02*
X10275747Y-12865484D01*
X10275747Y-12865484D02*
X10237652Y-12865484D01*
X10237652Y-12865484D02*
X10218604Y-12875008D01*
X10218604Y-12875008D02*
X10209081Y-12884531D01*
X10209081Y-12884531D02*
X10199557Y-12903579D01*
X10199557Y-12903579D02*
X10199557Y-12951198D01*
X10199557Y-12951198D02*
X10209081Y-12970246D01*
X10209081Y-12970246D02*
X10218604Y-12979769D01*
X10218604Y-12979769D02*
X10237652Y-12989293D01*
X10237652Y-12989293D02*
X10275747Y-12989293D01*
X10275747Y-12989293D02*
X10294795Y-12979769D01*
X10294795Y-12979769D02*
X10304319Y-12970246D01*
X10304319Y-12970246D02*
X10313843Y-12951198D01*
X10485271Y-12932150D02*
X10485271Y-13065484D01*
X10437652Y-12855960D02*
X10390033Y-12998817D01*
X10390033Y-12998817D02*
X10513843Y-12998817D01*
X10580509Y-12865484D02*
X10580509Y-12903579D01*
X10656700Y-12865484D02*
X10656700Y-12903579D01*
X10951938Y-13141674D02*
X10942414Y-13132150D01*
X10942414Y-13132150D02*
X10923366Y-13103579D01*
X10923366Y-13103579D02*
X10913843Y-13084531D01*
X10913843Y-13084531D02*
X10904319Y-13055960D01*
X10904319Y-13055960D02*
X10894795Y-13008341D01*
X10894795Y-13008341D02*
X10894795Y-12970246D01*
X10894795Y-12970246D02*
X10904319Y-12922627D01*
X10904319Y-12922627D02*
X10913843Y-12894055D01*
X10913843Y-12894055D02*
X10923366Y-12875008D01*
X10923366Y-12875008D02*
X10942414Y-12846436D01*
X10942414Y-12846436D02*
X10951938Y-12836912D01*
X11132890Y-13065484D02*
X11018605Y-13065484D01*
X11075747Y-13065484D02*
X11075747Y-12865484D01*
X11075747Y-12865484D02*
X11056700Y-12894055D01*
X11056700Y-12894055D02*
X11037652Y-12913103D01*
X11037652Y-12913103D02*
X11018605Y-12922627D01*
X11304319Y-12932150D02*
X11304319Y-13065484D01*
X11256700Y-12855960D02*
X11209081Y-12998817D01*
X11209081Y-12998817D02*
X11332890Y-12998817D01*
X11561462Y-13065484D02*
X11561462Y-12865484D01*
X11647176Y-13065484D02*
X11647176Y-12960722D01*
X11647176Y-12960722D02*
X11637652Y-12941674D01*
X11637652Y-12941674D02*
X11618605Y-12932150D01*
X11618605Y-12932150D02*
X11590033Y-12932150D01*
X11590033Y-12932150D02*
X11570985Y-12941674D01*
X11570985Y-12941674D02*
X11561462Y-12951198D01*
X11770985Y-13065484D02*
X11751938Y-13055960D01*
X11751938Y-13055960D02*
X11742414Y-13046436D01*
X11742414Y-13046436D02*
X11732890Y-13027388D01*
X11732890Y-13027388D02*
X11732890Y-12970246D01*
X11732890Y-12970246D02*
X11742414Y-12951198D01*
X11742414Y-12951198D02*
X11751938Y-12941674D01*
X11751938Y-12941674D02*
X11770985Y-12932150D01*
X11770985Y-12932150D02*
X11799557Y-12932150D01*
X11799557Y-12932150D02*
X11818605Y-12941674D01*
X11818605Y-12941674D02*
X11828128Y-12951198D01*
X11828128Y-12951198D02*
X11837652Y-12970246D01*
X11837652Y-12970246D02*
X11837652Y-13027388D01*
X11837652Y-13027388D02*
X11828128Y-13046436D01*
X11828128Y-13046436D02*
X11818605Y-13055960D01*
X11818605Y-13055960D02*
X11799557Y-13065484D01*
X11799557Y-13065484D02*
X11770985Y-13065484D01*
X11951938Y-13065484D02*
X11932890Y-13055960D01*
X11932890Y-13055960D02*
X11923366Y-13036912D01*
X11923366Y-13036912D02*
X11923366Y-12865484D01*
X12104319Y-13055960D02*
X12085271Y-13065484D01*
X12085271Y-13065484D02*
X12047176Y-13065484D01*
X12047176Y-13065484D02*
X12028128Y-13055960D01*
X12028128Y-13055960D02*
X12018605Y-13036912D01*
X12018605Y-13036912D02*
X12018605Y-12960722D01*
X12018605Y-12960722D02*
X12028128Y-12941674D01*
X12028128Y-12941674D02*
X12047176Y-12932150D01*
X12047176Y-12932150D02*
X12085271Y-12932150D01*
X12085271Y-12932150D02*
X12104319Y-12941674D01*
X12104319Y-12941674D02*
X12113843Y-12960722D01*
X12113843Y-12960722D02*
X12113843Y-12979769D01*
X12113843Y-12979769D02*
X12018605Y-12998817D01*
X12190033Y-13055960D02*
X12209081Y-13065484D01*
X12209081Y-13065484D02*
X12247176Y-13065484D01*
X12247176Y-13065484D02*
X12266224Y-13055960D01*
X12266224Y-13055960D02*
X12275747Y-13036912D01*
X12275747Y-13036912D02*
X12275747Y-13027388D01*
X12275747Y-13027388D02*
X12266224Y-13008341D01*
X12266224Y-13008341D02*
X12247176Y-12998817D01*
X12247176Y-12998817D02*
X12218605Y-12998817D01*
X12218605Y-12998817D02*
X12199557Y-12989293D01*
X12199557Y-12989293D02*
X12190033Y-12970246D01*
X12190033Y-12970246D02*
X12190033Y-12960722D01*
X12190033Y-12960722D02*
X12199557Y-12941674D01*
X12199557Y-12941674D02*
X12218605Y-12932150D01*
X12218605Y-12932150D02*
X12247176Y-12932150D01*
X12247176Y-12932150D02*
X12266224Y-12941674D01*
X12342414Y-13141674D02*
X12351938Y-13132150D01*
X12351938Y-13132150D02*
X12370986Y-13103579D01*
X12370986Y-13103579D02*
X12380509Y-13084531D01*
X12380509Y-13084531D02*
X12390033Y-13055960D01*
X12390033Y-13055960D02*
X12399557Y-13008341D01*
X12399557Y-13008341D02*
X12399557Y-12970246D01*
X12399557Y-12970246D02*
X12390033Y-12922627D01*
X12390033Y-12922627D02*
X12380509Y-12894055D01*
X12380509Y-12894055D02*
X12370986Y-12875008D01*
X12370986Y-12875008D02*
X12351938Y-12846436D01*
X12351938Y-12846436D02*
X12342414Y-12836912D01*
D12*
X7321875Y-13183000D02*
X7321875Y-13293000D01*
X7266875Y-13238000D02*
X7376875Y-13238000D01*
D11*
X7742414Y-13329484D02*
X7628128Y-13329484D01*
X7685271Y-13329484D02*
X7685271Y-13129484D01*
X7685271Y-13129484D02*
X7666223Y-13158055D01*
X7666223Y-13158055D02*
X7647176Y-13177103D01*
X7647176Y-13177103D02*
X7628128Y-13186627D01*
X7828128Y-13310436D02*
X7837652Y-13319960D01*
X7837652Y-13319960D02*
X7828128Y-13329484D01*
X7828128Y-13329484D02*
X7818604Y-13319960D01*
X7818604Y-13319960D02*
X7828128Y-13310436D01*
X7828128Y-13310436D02*
X7828128Y-13329484D01*
X8028128Y-13329484D02*
X7913842Y-13329484D01*
X7970985Y-13329484D02*
X7970985Y-13129484D01*
X7970985Y-13129484D02*
X7951937Y-13158055D01*
X7951937Y-13158055D02*
X7932890Y-13177103D01*
X7932890Y-13177103D02*
X7913842Y-13186627D01*
X8151937Y-13129484D02*
X8170985Y-13129484D01*
X8170985Y-13129484D02*
X8190033Y-13139008D01*
X8190033Y-13139008D02*
X8199557Y-13148531D01*
X8199557Y-13148531D02*
X8209080Y-13167579D01*
X8209080Y-13167579D02*
X8218604Y-13205674D01*
X8218604Y-13205674D02*
X8218604Y-13253293D01*
X8218604Y-13253293D02*
X8209080Y-13291388D01*
X8209080Y-13291388D02*
X8199557Y-13310436D01*
X8199557Y-13310436D02*
X8190033Y-13319960D01*
X8190033Y-13319960D02*
X8170985Y-13329484D01*
X8170985Y-13329484D02*
X8151937Y-13329484D01*
X8151937Y-13329484D02*
X8132890Y-13319960D01*
X8132890Y-13319960D02*
X8123366Y-13310436D01*
X8123366Y-13310436D02*
X8113842Y-13291388D01*
X8113842Y-13291388D02*
X8104318Y-13253293D01*
X8104318Y-13253293D02*
X8104318Y-13205674D01*
X8104318Y-13205674D02*
X8113842Y-13167579D01*
X8113842Y-13167579D02*
X8123366Y-13148531D01*
X8123366Y-13148531D02*
X8132890Y-13139008D01*
X8132890Y-13139008D02*
X8151937Y-13129484D01*
X8342414Y-13129484D02*
X8361461Y-13129484D01*
X8361461Y-13129484D02*
X8380509Y-13139008D01*
X8380509Y-13139008D02*
X8390033Y-13148531D01*
X8390033Y-13148531D02*
X8399557Y-13167579D01*
X8399557Y-13167579D02*
X8409080Y-13205674D01*
X8409080Y-13205674D02*
X8409080Y-13253293D01*
X8409080Y-13253293D02*
X8399557Y-13291388D01*
X8399557Y-13291388D02*
X8390033Y-13310436D01*
X8390033Y-13310436D02*
X8380509Y-13319960D01*
X8380509Y-13319960D02*
X8361461Y-13329484D01*
X8361461Y-13329484D02*
X8342414Y-13329484D01*
X8342414Y-13329484D02*
X8323366Y-13319960D01*
X8323366Y-13319960D02*
X8313842Y-13310436D01*
X8313842Y-13310436D02*
X8304318Y-13291388D01*
X8304318Y-13291388D02*
X8294795Y-13253293D01*
X8294795Y-13253293D02*
X8294795Y-13205674D01*
X8294795Y-13205674D02*
X8304318Y-13167579D01*
X8304318Y-13167579D02*
X8313842Y-13148531D01*
X8313842Y-13148531D02*
X8323366Y-13139008D01*
X8323366Y-13139008D02*
X8342414Y-13129484D01*
X8494795Y-13329484D02*
X8494795Y-13196150D01*
X8494795Y-13215198D02*
X8504319Y-13205674D01*
X8504319Y-13205674D02*
X8523366Y-13196150D01*
X8523366Y-13196150D02*
X8551938Y-13196150D01*
X8551938Y-13196150D02*
X8570985Y-13205674D01*
X8570985Y-13205674D02*
X8580509Y-13224722D01*
X8580509Y-13224722D02*
X8580509Y-13329484D01*
X8580509Y-13224722D02*
X8590033Y-13205674D01*
X8590033Y-13205674D02*
X8609080Y-13196150D01*
X8609080Y-13196150D02*
X8637652Y-13196150D01*
X8637652Y-13196150D02*
X8656700Y-13205674D01*
X8656700Y-13205674D02*
X8666223Y-13224722D01*
X8666223Y-13224722D02*
X8666223Y-13329484D01*
X8761461Y-13329484D02*
X8761461Y-13196150D01*
X8761461Y-13215198D02*
X8770985Y-13205674D01*
X8770985Y-13205674D02*
X8790033Y-13196150D01*
X8790033Y-13196150D02*
X8818604Y-13196150D01*
X8818604Y-13196150D02*
X8837652Y-13205674D01*
X8837652Y-13205674D02*
X8847176Y-13224722D01*
X8847176Y-13224722D02*
X8847176Y-13329484D01*
X8847176Y-13224722D02*
X8856700Y-13205674D01*
X8856700Y-13205674D02*
X8875747Y-13196150D01*
X8875747Y-13196150D02*
X8904319Y-13196150D01*
X8904319Y-13196150D02*
X8923366Y-13205674D01*
X8923366Y-13205674D02*
X8932890Y-13224722D01*
X8932890Y-13224722D02*
X8932890Y-13329484D01*
X9323366Y-13119960D02*
X9151938Y-13377103D01*
X9580509Y-13129484D02*
X9599557Y-13129484D01*
X9599557Y-13129484D02*
X9618604Y-13139008D01*
X9618604Y-13139008D02*
X9628128Y-13148531D01*
X9628128Y-13148531D02*
X9637652Y-13167579D01*
X9637652Y-13167579D02*
X9647176Y-13205674D01*
X9647176Y-13205674D02*
X9647176Y-13253293D01*
X9647176Y-13253293D02*
X9637652Y-13291388D01*
X9637652Y-13291388D02*
X9628128Y-13310436D01*
X9628128Y-13310436D02*
X9618604Y-13319960D01*
X9618604Y-13319960D02*
X9599557Y-13329484D01*
X9599557Y-13329484D02*
X9580509Y-13329484D01*
X9580509Y-13329484D02*
X9561462Y-13319960D01*
X9561462Y-13319960D02*
X9551938Y-13310436D01*
X9551938Y-13310436D02*
X9542414Y-13291388D01*
X9542414Y-13291388D02*
X9532890Y-13253293D01*
X9532890Y-13253293D02*
X9532890Y-13205674D01*
X9532890Y-13205674D02*
X9542414Y-13167579D01*
X9542414Y-13167579D02*
X9551938Y-13148531D01*
X9551938Y-13148531D02*
X9561462Y-13139008D01*
X9561462Y-13139008D02*
X9580509Y-13129484D01*
X9732890Y-13310436D02*
X9742414Y-13319960D01*
X9742414Y-13319960D02*
X9732890Y-13329484D01*
X9732890Y-13329484D02*
X9723366Y-13319960D01*
X9723366Y-13319960D02*
X9732890Y-13310436D01*
X9732890Y-13310436D02*
X9732890Y-13329484D01*
X9866223Y-13129484D02*
X9885271Y-13129484D01*
X9885271Y-13129484D02*
X9904319Y-13139008D01*
X9904319Y-13139008D02*
X9913843Y-13148531D01*
X9913843Y-13148531D02*
X9923366Y-13167579D01*
X9923366Y-13167579D02*
X9932890Y-13205674D01*
X9932890Y-13205674D02*
X9932890Y-13253293D01*
X9932890Y-13253293D02*
X9923366Y-13291388D01*
X9923366Y-13291388D02*
X9913843Y-13310436D01*
X9913843Y-13310436D02*
X9904319Y-13319960D01*
X9904319Y-13319960D02*
X9885271Y-13329484D01*
X9885271Y-13329484D02*
X9866223Y-13329484D01*
X9866223Y-13329484D02*
X9847176Y-13319960D01*
X9847176Y-13319960D02*
X9837652Y-13310436D01*
X9837652Y-13310436D02*
X9828128Y-13291388D01*
X9828128Y-13291388D02*
X9818604Y-13253293D01*
X9818604Y-13253293D02*
X9818604Y-13205674D01*
X9818604Y-13205674D02*
X9828128Y-13167579D01*
X9828128Y-13167579D02*
X9837652Y-13148531D01*
X9837652Y-13148531D02*
X9847176Y-13139008D01*
X9847176Y-13139008D02*
X9866223Y-13129484D01*
X10104319Y-13196150D02*
X10104319Y-13329484D01*
X10056700Y-13119960D02*
X10009081Y-13262817D01*
X10009081Y-13262817D02*
X10132890Y-13262817D01*
X10190033Y-13129484D02*
X10313843Y-13129484D01*
X10313843Y-13129484D02*
X10247176Y-13205674D01*
X10247176Y-13205674D02*
X10275747Y-13205674D01*
X10275747Y-13205674D02*
X10294795Y-13215198D01*
X10294795Y-13215198D02*
X10304319Y-13224722D01*
X10304319Y-13224722D02*
X10313843Y-13243769D01*
X10313843Y-13243769D02*
X10313843Y-13291388D01*
X10313843Y-13291388D02*
X10304319Y-13310436D01*
X10304319Y-13310436D02*
X10294795Y-13319960D01*
X10294795Y-13319960D02*
X10275747Y-13329484D01*
X10275747Y-13329484D02*
X10218604Y-13329484D01*
X10218604Y-13329484D02*
X10199557Y-13319960D01*
X10199557Y-13319960D02*
X10190033Y-13310436D01*
X10380509Y-13129484D02*
X10504319Y-13129484D01*
X10504319Y-13129484D02*
X10437652Y-13205674D01*
X10437652Y-13205674D02*
X10466224Y-13205674D01*
X10466224Y-13205674D02*
X10485271Y-13215198D01*
X10485271Y-13215198D02*
X10494795Y-13224722D01*
X10494795Y-13224722D02*
X10504319Y-13243769D01*
X10504319Y-13243769D02*
X10504319Y-13291388D01*
X10504319Y-13291388D02*
X10494795Y-13310436D01*
X10494795Y-13310436D02*
X10485271Y-13319960D01*
X10485271Y-13319960D02*
X10466224Y-13329484D01*
X10466224Y-13329484D02*
X10409081Y-13329484D01*
X10409081Y-13329484D02*
X10390033Y-13319960D01*
X10390033Y-13319960D02*
X10380509Y-13310436D01*
X10580509Y-13129484D02*
X10580509Y-13167579D01*
X10656700Y-13129484D02*
X10656700Y-13167579D01*
X10951938Y-13405674D02*
X10942414Y-13396150D01*
X10942414Y-13396150D02*
X10923366Y-13367579D01*
X10923366Y-13367579D02*
X10913843Y-13348531D01*
X10913843Y-13348531D02*
X10904319Y-13319960D01*
X10904319Y-13319960D02*
X10894795Y-13272341D01*
X10894795Y-13272341D02*
X10894795Y-13234246D01*
X10894795Y-13234246D02*
X10904319Y-13186627D01*
X10904319Y-13186627D02*
X10913843Y-13158055D01*
X10913843Y-13158055D02*
X10923366Y-13139008D01*
X10923366Y-13139008D02*
X10942414Y-13110436D01*
X10942414Y-13110436D02*
X10951938Y-13100912D01*
X11018605Y-13148531D02*
X11028128Y-13139008D01*
X11028128Y-13139008D02*
X11047176Y-13129484D01*
X11047176Y-13129484D02*
X11094795Y-13129484D01*
X11094795Y-13129484D02*
X11113843Y-13139008D01*
X11113843Y-13139008D02*
X11123366Y-13148531D01*
X11123366Y-13148531D02*
X11132890Y-13167579D01*
X11132890Y-13167579D02*
X11132890Y-13186627D01*
X11132890Y-13186627D02*
X11123366Y-13215198D01*
X11123366Y-13215198D02*
X11009081Y-13329484D01*
X11009081Y-13329484D02*
X11132890Y-13329484D01*
X11304319Y-13196150D02*
X11304319Y-13329484D01*
X11256700Y-13119960D02*
X11209081Y-13262817D01*
X11209081Y-13262817D02*
X11332890Y-13262817D01*
X11561462Y-13329484D02*
X11561462Y-13129484D01*
X11647176Y-13329484D02*
X11647176Y-13224722D01*
X11647176Y-13224722D02*
X11637652Y-13205674D01*
X11637652Y-13205674D02*
X11618605Y-13196150D01*
X11618605Y-13196150D02*
X11590033Y-13196150D01*
X11590033Y-13196150D02*
X11570985Y-13205674D01*
X11570985Y-13205674D02*
X11561462Y-13215198D01*
X11770985Y-13329484D02*
X11751938Y-13319960D01*
X11751938Y-13319960D02*
X11742414Y-13310436D01*
X11742414Y-13310436D02*
X11732890Y-13291388D01*
X11732890Y-13291388D02*
X11732890Y-13234246D01*
X11732890Y-13234246D02*
X11742414Y-13215198D01*
X11742414Y-13215198D02*
X11751938Y-13205674D01*
X11751938Y-13205674D02*
X11770985Y-13196150D01*
X11770985Y-13196150D02*
X11799557Y-13196150D01*
X11799557Y-13196150D02*
X11818605Y-13205674D01*
X11818605Y-13205674D02*
X11828128Y-13215198D01*
X11828128Y-13215198D02*
X11837652Y-13234246D01*
X11837652Y-13234246D02*
X11837652Y-13291388D01*
X11837652Y-13291388D02*
X11828128Y-13310436D01*
X11828128Y-13310436D02*
X11818605Y-13319960D01*
X11818605Y-13319960D02*
X11799557Y-13329484D01*
X11799557Y-13329484D02*
X11770985Y-13329484D01*
X11951938Y-13329484D02*
X11932890Y-13319960D01*
X11932890Y-13319960D02*
X11923366Y-13300912D01*
X11923366Y-13300912D02*
X11923366Y-13129484D01*
X12104319Y-13319960D02*
X12085271Y-13329484D01*
X12085271Y-13329484D02*
X12047176Y-13329484D01*
X12047176Y-13329484D02*
X12028128Y-13319960D01*
X12028128Y-13319960D02*
X12018605Y-13300912D01*
X12018605Y-13300912D02*
X12018605Y-13224722D01*
X12018605Y-13224722D02*
X12028128Y-13205674D01*
X12028128Y-13205674D02*
X12047176Y-13196150D01*
X12047176Y-13196150D02*
X12085271Y-13196150D01*
X12085271Y-13196150D02*
X12104319Y-13205674D01*
X12104319Y-13205674D02*
X12113843Y-13224722D01*
X12113843Y-13224722D02*
X12113843Y-13243769D01*
X12113843Y-13243769D02*
X12018605Y-13262817D01*
X12190033Y-13319960D02*
X12209081Y-13329484D01*
X12209081Y-13329484D02*
X12247176Y-13329484D01*
X12247176Y-13329484D02*
X12266224Y-13319960D01*
X12266224Y-13319960D02*
X12275747Y-13300912D01*
X12275747Y-13300912D02*
X12275747Y-13291388D01*
X12275747Y-13291388D02*
X12266224Y-13272341D01*
X12266224Y-13272341D02*
X12247176Y-13262817D01*
X12247176Y-13262817D02*
X12218605Y-13262817D01*
X12218605Y-13262817D02*
X12199557Y-13253293D01*
X12199557Y-13253293D02*
X12190033Y-13234246D01*
X12190033Y-13234246D02*
X12190033Y-13224722D01*
X12190033Y-13224722D02*
X12199557Y-13205674D01*
X12199557Y-13205674D02*
X12218605Y-13196150D01*
X12218605Y-13196150D02*
X12247176Y-13196150D01*
X12247176Y-13196150D02*
X12266224Y-13205674D01*
X12342414Y-13405674D02*
X12351938Y-13396150D01*
X12351938Y-13396150D02*
X12370986Y-13367579D01*
X12370986Y-13367579D02*
X12380509Y-13348531D01*
X12380509Y-13348531D02*
X12390033Y-13319960D01*
X12390033Y-13319960D02*
X12399557Y-13272341D01*
X12399557Y-13272341D02*
X12399557Y-13234246D01*
X12399557Y-13234246D02*
X12390033Y-13186627D01*
X12390033Y-13186627D02*
X12380509Y-13158055D01*
X12380509Y-13158055D02*
X12370986Y-13139008D01*
X12370986Y-13139008D02*
X12351938Y-13110436D01*
X12351938Y-13110436D02*
X12342414Y-13100912D01*
D13*
X7354908Y-13555033D02*
X7354908Y-13448966D01*
X7248841Y-13448966D01*
X7248841Y-13555033D01*
X7354908Y-13555033D01*
D11*
X7742414Y-13593484D02*
X7628128Y-13593484D01*
X7685271Y-13593484D02*
X7685271Y-13393484D01*
X7685271Y-13393484D02*
X7666223Y-13422055D01*
X7666223Y-13422055D02*
X7647176Y-13441103D01*
X7647176Y-13441103D02*
X7628128Y-13450627D01*
X7828128Y-13574436D02*
X7837652Y-13583960D01*
X7837652Y-13583960D02*
X7828128Y-13593484D01*
X7828128Y-13593484D02*
X7818604Y-13583960D01*
X7818604Y-13583960D02*
X7828128Y-13574436D01*
X7828128Y-13574436D02*
X7828128Y-13593484D01*
X8018604Y-13393484D02*
X7923366Y-13393484D01*
X7923366Y-13393484D02*
X7913842Y-13488722D01*
X7913842Y-13488722D02*
X7923366Y-13479198D01*
X7923366Y-13479198D02*
X7942414Y-13469674D01*
X7942414Y-13469674D02*
X7990033Y-13469674D01*
X7990033Y-13469674D02*
X8009080Y-13479198D01*
X8009080Y-13479198D02*
X8018604Y-13488722D01*
X8018604Y-13488722D02*
X8028128Y-13507769D01*
X8028128Y-13507769D02*
X8028128Y-13555388D01*
X8028128Y-13555388D02*
X8018604Y-13574436D01*
X8018604Y-13574436D02*
X8009080Y-13583960D01*
X8009080Y-13583960D02*
X7990033Y-13593484D01*
X7990033Y-13593484D02*
X7942414Y-13593484D01*
X7942414Y-13593484D02*
X7923366Y-13583960D01*
X7923366Y-13583960D02*
X7913842Y-13574436D01*
X8151937Y-13393484D02*
X8170985Y-13393484D01*
X8170985Y-13393484D02*
X8190033Y-13403008D01*
X8190033Y-13403008D02*
X8199557Y-13412531D01*
X8199557Y-13412531D02*
X8209080Y-13431579D01*
X8209080Y-13431579D02*
X8218604Y-13469674D01*
X8218604Y-13469674D02*
X8218604Y-13517293D01*
X8218604Y-13517293D02*
X8209080Y-13555388D01*
X8209080Y-13555388D02*
X8199557Y-13574436D01*
X8199557Y-13574436D02*
X8190033Y-13583960D01*
X8190033Y-13583960D02*
X8170985Y-13593484D01*
X8170985Y-13593484D02*
X8151937Y-13593484D01*
X8151937Y-13593484D02*
X8132890Y-13583960D01*
X8132890Y-13583960D02*
X8123366Y-13574436D01*
X8123366Y-13574436D02*
X8113842Y-13555388D01*
X8113842Y-13555388D02*
X8104318Y-13517293D01*
X8104318Y-13517293D02*
X8104318Y-13469674D01*
X8104318Y-13469674D02*
X8113842Y-13431579D01*
X8113842Y-13431579D02*
X8123366Y-13412531D01*
X8123366Y-13412531D02*
X8132890Y-13403008D01*
X8132890Y-13403008D02*
X8151937Y-13393484D01*
X8342414Y-13393484D02*
X8361461Y-13393484D01*
X8361461Y-13393484D02*
X8380509Y-13403008D01*
X8380509Y-13403008D02*
X8390033Y-13412531D01*
X8390033Y-13412531D02*
X8399557Y-13431579D01*
X8399557Y-13431579D02*
X8409080Y-13469674D01*
X8409080Y-13469674D02*
X8409080Y-13517293D01*
X8409080Y-13517293D02*
X8399557Y-13555388D01*
X8399557Y-13555388D02*
X8390033Y-13574436D01*
X8390033Y-13574436D02*
X8380509Y-13583960D01*
X8380509Y-13583960D02*
X8361461Y-13593484D01*
X8361461Y-13593484D02*
X8342414Y-13593484D01*
X8342414Y-13593484D02*
X8323366Y-13583960D01*
X8323366Y-13583960D02*
X8313842Y-13574436D01*
X8313842Y-13574436D02*
X8304318Y-13555388D01*
X8304318Y-13555388D02*
X8294795Y-13517293D01*
X8294795Y-13517293D02*
X8294795Y-13469674D01*
X8294795Y-13469674D02*
X8304318Y-13431579D01*
X8304318Y-13431579D02*
X8313842Y-13412531D01*
X8313842Y-13412531D02*
X8323366Y-13403008D01*
X8323366Y-13403008D02*
X8342414Y-13393484D01*
X8494795Y-13593484D02*
X8494795Y-13460150D01*
X8494795Y-13479198D02*
X8504319Y-13469674D01*
X8504319Y-13469674D02*
X8523366Y-13460150D01*
X8523366Y-13460150D02*
X8551938Y-13460150D01*
X8551938Y-13460150D02*
X8570985Y-13469674D01*
X8570985Y-13469674D02*
X8580509Y-13488722D01*
X8580509Y-13488722D02*
X8580509Y-13593484D01*
X8580509Y-13488722D02*
X8590033Y-13469674D01*
X8590033Y-13469674D02*
X8609080Y-13460150D01*
X8609080Y-13460150D02*
X8637652Y-13460150D01*
X8637652Y-13460150D02*
X8656700Y-13469674D01*
X8656700Y-13469674D02*
X8666223Y-13488722D01*
X8666223Y-13488722D02*
X8666223Y-13593484D01*
X8761461Y-13593484D02*
X8761461Y-13460150D01*
X8761461Y-13479198D02*
X8770985Y-13469674D01*
X8770985Y-13469674D02*
X8790033Y-13460150D01*
X8790033Y-13460150D02*
X8818604Y-13460150D01*
X8818604Y-13460150D02*
X8837652Y-13469674D01*
X8837652Y-13469674D02*
X8847176Y-13488722D01*
X8847176Y-13488722D02*
X8847176Y-13593484D01*
X8847176Y-13488722D02*
X8856700Y-13469674D01*
X8856700Y-13469674D02*
X8875747Y-13460150D01*
X8875747Y-13460150D02*
X8904319Y-13460150D01*
X8904319Y-13460150D02*
X8923366Y-13469674D01*
X8923366Y-13469674D02*
X8932890Y-13488722D01*
X8932890Y-13488722D02*
X8932890Y-13593484D01*
X9323366Y-13383960D02*
X9151938Y-13641103D01*
X9580509Y-13393484D02*
X9599557Y-13393484D01*
X9599557Y-13393484D02*
X9618604Y-13403008D01*
X9618604Y-13403008D02*
X9628128Y-13412531D01*
X9628128Y-13412531D02*
X9637652Y-13431579D01*
X9637652Y-13431579D02*
X9647176Y-13469674D01*
X9647176Y-13469674D02*
X9647176Y-13517293D01*
X9647176Y-13517293D02*
X9637652Y-13555388D01*
X9637652Y-13555388D02*
X9628128Y-13574436D01*
X9628128Y-13574436D02*
X9618604Y-13583960D01*
X9618604Y-13583960D02*
X9599557Y-13593484D01*
X9599557Y-13593484D02*
X9580509Y-13593484D01*
X9580509Y-13593484D02*
X9561462Y-13583960D01*
X9561462Y-13583960D02*
X9551938Y-13574436D01*
X9551938Y-13574436D02*
X9542414Y-13555388D01*
X9542414Y-13555388D02*
X9532890Y-13517293D01*
X9532890Y-13517293D02*
X9532890Y-13469674D01*
X9532890Y-13469674D02*
X9542414Y-13431579D01*
X9542414Y-13431579D02*
X9551938Y-13412531D01*
X9551938Y-13412531D02*
X9561462Y-13403008D01*
X9561462Y-13403008D02*
X9580509Y-13393484D01*
X9732890Y-13574436D02*
X9742414Y-13583960D01*
X9742414Y-13583960D02*
X9732890Y-13593484D01*
X9732890Y-13593484D02*
X9723366Y-13583960D01*
X9723366Y-13583960D02*
X9732890Y-13574436D01*
X9732890Y-13574436D02*
X9732890Y-13593484D01*
X9866223Y-13393484D02*
X9885271Y-13393484D01*
X9885271Y-13393484D02*
X9904319Y-13403008D01*
X9904319Y-13403008D02*
X9913843Y-13412531D01*
X9913843Y-13412531D02*
X9923366Y-13431579D01*
X9923366Y-13431579D02*
X9932890Y-13469674D01*
X9932890Y-13469674D02*
X9932890Y-13517293D01*
X9932890Y-13517293D02*
X9923366Y-13555388D01*
X9923366Y-13555388D02*
X9913843Y-13574436D01*
X9913843Y-13574436D02*
X9904319Y-13583960D01*
X9904319Y-13583960D02*
X9885271Y-13593484D01*
X9885271Y-13593484D02*
X9866223Y-13593484D01*
X9866223Y-13593484D02*
X9847176Y-13583960D01*
X9847176Y-13583960D02*
X9837652Y-13574436D01*
X9837652Y-13574436D02*
X9828128Y-13555388D01*
X9828128Y-13555388D02*
X9818604Y-13517293D01*
X9818604Y-13517293D02*
X9818604Y-13469674D01*
X9818604Y-13469674D02*
X9828128Y-13431579D01*
X9828128Y-13431579D02*
X9837652Y-13412531D01*
X9837652Y-13412531D02*
X9847176Y-13403008D01*
X9847176Y-13403008D02*
X9866223Y-13393484D01*
X10113843Y-13393484D02*
X10018604Y-13393484D01*
X10018604Y-13393484D02*
X10009081Y-13488722D01*
X10009081Y-13488722D02*
X10018604Y-13479198D01*
X10018604Y-13479198D02*
X10037652Y-13469674D01*
X10037652Y-13469674D02*
X10085271Y-13469674D01*
X10085271Y-13469674D02*
X10104319Y-13479198D01*
X10104319Y-13479198D02*
X10113843Y-13488722D01*
X10113843Y-13488722D02*
X10123366Y-13507769D01*
X10123366Y-13507769D02*
X10123366Y-13555388D01*
X10123366Y-13555388D02*
X10113843Y-13574436D01*
X10113843Y-13574436D02*
X10104319Y-13583960D01*
X10104319Y-13583960D02*
X10085271Y-13593484D01*
X10085271Y-13593484D02*
X10037652Y-13593484D01*
X10037652Y-13593484D02*
X10018604Y-13583960D01*
X10018604Y-13583960D02*
X10009081Y-13574436D01*
X10218604Y-13593484D02*
X10256700Y-13593484D01*
X10256700Y-13593484D02*
X10275747Y-13583960D01*
X10275747Y-13583960D02*
X10285271Y-13574436D01*
X10285271Y-13574436D02*
X10304319Y-13545865D01*
X10304319Y-13545865D02*
X10313843Y-13507769D01*
X10313843Y-13507769D02*
X10313843Y-13431579D01*
X10313843Y-13431579D02*
X10304319Y-13412531D01*
X10304319Y-13412531D02*
X10294795Y-13403008D01*
X10294795Y-13403008D02*
X10275747Y-13393484D01*
X10275747Y-13393484D02*
X10237652Y-13393484D01*
X10237652Y-13393484D02*
X10218604Y-13403008D01*
X10218604Y-13403008D02*
X10209081Y-13412531D01*
X10209081Y-13412531D02*
X10199557Y-13431579D01*
X10199557Y-13431579D02*
X10199557Y-13479198D01*
X10199557Y-13479198D02*
X10209081Y-13498246D01*
X10209081Y-13498246D02*
X10218604Y-13507769D01*
X10218604Y-13507769D02*
X10237652Y-13517293D01*
X10237652Y-13517293D02*
X10275747Y-13517293D01*
X10275747Y-13517293D02*
X10294795Y-13507769D01*
X10294795Y-13507769D02*
X10304319Y-13498246D01*
X10304319Y-13498246D02*
X10313843Y-13479198D01*
X10504319Y-13593484D02*
X10390033Y-13593484D01*
X10447176Y-13593484D02*
X10447176Y-13393484D01*
X10447176Y-13393484D02*
X10428128Y-13422055D01*
X10428128Y-13422055D02*
X10409081Y-13441103D01*
X10409081Y-13441103D02*
X10390033Y-13450627D01*
X10580509Y-13393484D02*
X10580509Y-13431579D01*
X10656700Y-13393484D02*
X10656700Y-13431579D01*
X10951938Y-13669674D02*
X10942414Y-13660150D01*
X10942414Y-13660150D02*
X10923366Y-13631579D01*
X10923366Y-13631579D02*
X10913843Y-13612531D01*
X10913843Y-13612531D02*
X10904319Y-13583960D01*
X10904319Y-13583960D02*
X10894795Y-13536341D01*
X10894795Y-13536341D02*
X10894795Y-13498246D01*
X10894795Y-13498246D02*
X10904319Y-13450627D01*
X10904319Y-13450627D02*
X10913843Y-13422055D01*
X10913843Y-13422055D02*
X10923366Y-13403008D01*
X10923366Y-13403008D02*
X10942414Y-13374436D01*
X10942414Y-13374436D02*
X10951938Y-13364912D01*
X11018605Y-13412531D02*
X11028128Y-13403008D01*
X11028128Y-13403008D02*
X11047176Y-13393484D01*
X11047176Y-13393484D02*
X11094795Y-13393484D01*
X11094795Y-13393484D02*
X11113843Y-13403008D01*
X11113843Y-13403008D02*
X11123366Y-13412531D01*
X11123366Y-13412531D02*
X11132890Y-13431579D01*
X11132890Y-13431579D02*
X11132890Y-13450627D01*
X11132890Y-13450627D02*
X11123366Y-13479198D01*
X11123366Y-13479198D02*
X11009081Y-13593484D01*
X11009081Y-13593484D02*
X11132890Y-13593484D01*
X11256700Y-13393484D02*
X11275747Y-13393484D01*
X11275747Y-13393484D02*
X11294795Y-13403008D01*
X11294795Y-13403008D02*
X11304319Y-13412531D01*
X11304319Y-13412531D02*
X11313843Y-13431579D01*
X11313843Y-13431579D02*
X11323366Y-13469674D01*
X11323366Y-13469674D02*
X11323366Y-13517293D01*
X11323366Y-13517293D02*
X11313843Y-13555388D01*
X11313843Y-13555388D02*
X11304319Y-13574436D01*
X11304319Y-13574436D02*
X11294795Y-13583960D01*
X11294795Y-13583960D02*
X11275747Y-13593484D01*
X11275747Y-13593484D02*
X11256700Y-13593484D01*
X11256700Y-13593484D02*
X11237652Y-13583960D01*
X11237652Y-13583960D02*
X11228128Y-13574436D01*
X11228128Y-13574436D02*
X11218604Y-13555388D01*
X11218604Y-13555388D02*
X11209081Y-13517293D01*
X11209081Y-13517293D02*
X11209081Y-13469674D01*
X11209081Y-13469674D02*
X11218604Y-13431579D01*
X11218604Y-13431579D02*
X11228128Y-13412531D01*
X11228128Y-13412531D02*
X11237652Y-13403008D01*
X11237652Y-13403008D02*
X11256700Y-13393484D01*
X11561462Y-13593484D02*
X11561462Y-13393484D01*
X11647176Y-13593484D02*
X11647176Y-13488722D01*
X11647176Y-13488722D02*
X11637652Y-13469674D01*
X11637652Y-13469674D02*
X11618605Y-13460150D01*
X11618605Y-13460150D02*
X11590033Y-13460150D01*
X11590033Y-13460150D02*
X11570985Y-13469674D01*
X11570985Y-13469674D02*
X11561462Y-13479198D01*
X11770985Y-13593484D02*
X11751938Y-13583960D01*
X11751938Y-13583960D02*
X11742414Y-13574436D01*
X11742414Y-13574436D02*
X11732890Y-13555388D01*
X11732890Y-13555388D02*
X11732890Y-13498246D01*
X11732890Y-13498246D02*
X11742414Y-13479198D01*
X11742414Y-13479198D02*
X11751938Y-13469674D01*
X11751938Y-13469674D02*
X11770985Y-13460150D01*
X11770985Y-13460150D02*
X11799557Y-13460150D01*
X11799557Y-13460150D02*
X11818605Y-13469674D01*
X11818605Y-13469674D02*
X11828128Y-13479198D01*
X11828128Y-13479198D02*
X11837652Y-13498246D01*
X11837652Y-13498246D02*
X11837652Y-13555388D01*
X11837652Y-13555388D02*
X11828128Y-13574436D01*
X11828128Y-13574436D02*
X11818605Y-13583960D01*
X11818605Y-13583960D02*
X11799557Y-13593484D01*
X11799557Y-13593484D02*
X11770985Y-13593484D01*
X11951938Y-13593484D02*
X11932890Y-13583960D01*
X11932890Y-13583960D02*
X11923366Y-13564912D01*
X11923366Y-13564912D02*
X11923366Y-13393484D01*
X12104319Y-13583960D02*
X12085271Y-13593484D01*
X12085271Y-13593484D02*
X12047176Y-13593484D01*
X12047176Y-13593484D02*
X12028128Y-13583960D01*
X12028128Y-13583960D02*
X12018605Y-13564912D01*
X12018605Y-13564912D02*
X12018605Y-13488722D01*
X12018605Y-13488722D02*
X12028128Y-13469674D01*
X12028128Y-13469674D02*
X12047176Y-13460150D01*
X12047176Y-13460150D02*
X12085271Y-13460150D01*
X12085271Y-13460150D02*
X12104319Y-13469674D01*
X12104319Y-13469674D02*
X12113843Y-13488722D01*
X12113843Y-13488722D02*
X12113843Y-13507769D01*
X12113843Y-13507769D02*
X12018605Y-13526817D01*
X12190033Y-13583960D02*
X12209081Y-13593484D01*
X12209081Y-13593484D02*
X12247176Y-13593484D01*
X12247176Y-13593484D02*
X12266224Y-13583960D01*
X12266224Y-13583960D02*
X12275747Y-13564912D01*
X12275747Y-13564912D02*
X12275747Y-13555388D01*
X12275747Y-13555388D02*
X12266224Y-13536341D01*
X12266224Y-13536341D02*
X12247176Y-13526817D01*
X12247176Y-13526817D02*
X12218605Y-13526817D01*
X12218605Y-13526817D02*
X12199557Y-13517293D01*
X12199557Y-13517293D02*
X12190033Y-13498246D01*
X12190033Y-13498246D02*
X12190033Y-13488722D01*
X12190033Y-13488722D02*
X12199557Y-13469674D01*
X12199557Y-13469674D02*
X12218605Y-13460150D01*
X12218605Y-13460150D02*
X12247176Y-13460150D01*
X12247176Y-13460150D02*
X12266224Y-13469674D01*
X12342414Y-13669674D02*
X12351938Y-13660150D01*
X12351938Y-13660150D02*
X12370986Y-13631579D01*
X12370986Y-13631579D02*
X12380509Y-13612531D01*
X12380509Y-13612531D02*
X12390033Y-13583960D01*
X12390033Y-13583960D02*
X12399557Y-13536341D01*
X12399557Y-13536341D02*
X12399557Y-13498246D01*
X12399557Y-13498246D02*
X12390033Y-13450627D01*
X12390033Y-13450627D02*
X12380509Y-13422055D01*
X12380509Y-13422055D02*
X12370986Y-13403008D01*
X12370986Y-13403008D02*
X12351938Y-13374436D01*
X12351938Y-13374436D02*
X12342414Y-13364912D01*
X7276875Y-13872000D02*
X7376875Y-13772000D01*
X7276875Y-13672000D01*
X7176875Y-13772000D01*
X7276875Y-13872000D01*
X7628128Y-13682531D02*
X7637652Y-13673008D01*
X7637652Y-13673008D02*
X7656699Y-13663484D01*
X7656699Y-13663484D02*
X7704318Y-13663484D01*
X7704318Y-13663484D02*
X7723366Y-13673008D01*
X7723366Y-13673008D02*
X7732890Y-13682531D01*
X7732890Y-13682531D02*
X7742414Y-13701579D01*
X7742414Y-13701579D02*
X7742414Y-13720627D01*
X7742414Y-13720627D02*
X7732890Y-13749198D01*
X7732890Y-13749198D02*
X7618604Y-13863484D01*
X7618604Y-13863484D02*
X7742414Y-13863484D01*
X7828128Y-13844436D02*
X7837652Y-13853960D01*
X7837652Y-13853960D02*
X7828128Y-13863484D01*
X7828128Y-13863484D02*
X7818604Y-13853960D01*
X7818604Y-13853960D02*
X7828128Y-13844436D01*
X7828128Y-13844436D02*
X7828128Y-13863484D01*
X8009080Y-13663484D02*
X7970985Y-13663484D01*
X7970985Y-13663484D02*
X7951937Y-13673008D01*
X7951937Y-13673008D02*
X7942414Y-13682531D01*
X7942414Y-13682531D02*
X7923366Y-13711103D01*
X7923366Y-13711103D02*
X7913842Y-13749198D01*
X7913842Y-13749198D02*
X7913842Y-13825388D01*
X7913842Y-13825388D02*
X7923366Y-13844436D01*
X7923366Y-13844436D02*
X7932890Y-13853960D01*
X7932890Y-13853960D02*
X7951937Y-13863484D01*
X7951937Y-13863484D02*
X7990033Y-13863484D01*
X7990033Y-13863484D02*
X8009080Y-13853960D01*
X8009080Y-13853960D02*
X8018604Y-13844436D01*
X8018604Y-13844436D02*
X8028128Y-13825388D01*
X8028128Y-13825388D02*
X8028128Y-13777769D01*
X8028128Y-13777769D02*
X8018604Y-13758722D01*
X8018604Y-13758722D02*
X8009080Y-13749198D01*
X8009080Y-13749198D02*
X7990033Y-13739674D01*
X7990033Y-13739674D02*
X7951937Y-13739674D01*
X7951937Y-13739674D02*
X7932890Y-13749198D01*
X7932890Y-13749198D02*
X7923366Y-13758722D01*
X7923366Y-13758722D02*
X7913842Y-13777769D01*
X8151937Y-13663484D02*
X8170985Y-13663484D01*
X8170985Y-13663484D02*
X8190033Y-13673008D01*
X8190033Y-13673008D02*
X8199557Y-13682531D01*
X8199557Y-13682531D02*
X8209080Y-13701579D01*
X8209080Y-13701579D02*
X8218604Y-13739674D01*
X8218604Y-13739674D02*
X8218604Y-13787293D01*
X8218604Y-13787293D02*
X8209080Y-13825388D01*
X8209080Y-13825388D02*
X8199557Y-13844436D01*
X8199557Y-13844436D02*
X8190033Y-13853960D01*
X8190033Y-13853960D02*
X8170985Y-13863484D01*
X8170985Y-13863484D02*
X8151937Y-13863484D01*
X8151937Y-13863484D02*
X8132890Y-13853960D01*
X8132890Y-13853960D02*
X8123366Y-13844436D01*
X8123366Y-13844436D02*
X8113842Y-13825388D01*
X8113842Y-13825388D02*
X8104318Y-13787293D01*
X8104318Y-13787293D02*
X8104318Y-13739674D01*
X8104318Y-13739674D02*
X8113842Y-13701579D01*
X8113842Y-13701579D02*
X8123366Y-13682531D01*
X8123366Y-13682531D02*
X8132890Y-13673008D01*
X8132890Y-13673008D02*
X8151937Y-13663484D01*
X8342414Y-13663484D02*
X8361461Y-13663484D01*
X8361461Y-13663484D02*
X8380509Y-13673008D01*
X8380509Y-13673008D02*
X8390033Y-13682531D01*
X8390033Y-13682531D02*
X8399557Y-13701579D01*
X8399557Y-13701579D02*
X8409080Y-13739674D01*
X8409080Y-13739674D02*
X8409080Y-13787293D01*
X8409080Y-13787293D02*
X8399557Y-13825388D01*
X8399557Y-13825388D02*
X8390033Y-13844436D01*
X8390033Y-13844436D02*
X8380509Y-13853960D01*
X8380509Y-13853960D02*
X8361461Y-13863484D01*
X8361461Y-13863484D02*
X8342414Y-13863484D01*
X8342414Y-13863484D02*
X8323366Y-13853960D01*
X8323366Y-13853960D02*
X8313842Y-13844436D01*
X8313842Y-13844436D02*
X8304318Y-13825388D01*
X8304318Y-13825388D02*
X8294795Y-13787293D01*
X8294795Y-13787293D02*
X8294795Y-13739674D01*
X8294795Y-13739674D02*
X8304318Y-13701579D01*
X8304318Y-13701579D02*
X8313842Y-13682531D01*
X8313842Y-13682531D02*
X8323366Y-13673008D01*
X8323366Y-13673008D02*
X8342414Y-13663484D01*
X8494795Y-13863484D02*
X8494795Y-13730150D01*
X8494795Y-13749198D02*
X8504319Y-13739674D01*
X8504319Y-13739674D02*
X8523366Y-13730150D01*
X8523366Y-13730150D02*
X8551938Y-13730150D01*
X8551938Y-13730150D02*
X8570985Y-13739674D01*
X8570985Y-13739674D02*
X8580509Y-13758722D01*
X8580509Y-13758722D02*
X8580509Y-13863484D01*
X8580509Y-13758722D02*
X8590033Y-13739674D01*
X8590033Y-13739674D02*
X8609080Y-13730150D01*
X8609080Y-13730150D02*
X8637652Y-13730150D01*
X8637652Y-13730150D02*
X8656700Y-13739674D01*
X8656700Y-13739674D02*
X8666223Y-13758722D01*
X8666223Y-13758722D02*
X8666223Y-13863484D01*
X8761461Y-13863484D02*
X8761461Y-13730150D01*
X8761461Y-13749198D02*
X8770985Y-13739674D01*
X8770985Y-13739674D02*
X8790033Y-13730150D01*
X8790033Y-13730150D02*
X8818604Y-13730150D01*
X8818604Y-13730150D02*
X8837652Y-13739674D01*
X8837652Y-13739674D02*
X8847176Y-13758722D01*
X8847176Y-13758722D02*
X8847176Y-13863484D01*
X8847176Y-13758722D02*
X8856700Y-13739674D01*
X8856700Y-13739674D02*
X8875747Y-13730150D01*
X8875747Y-13730150D02*
X8904319Y-13730150D01*
X8904319Y-13730150D02*
X8923366Y-13739674D01*
X8923366Y-13739674D02*
X8932890Y-13758722D01*
X8932890Y-13758722D02*
X8932890Y-13863484D01*
X9323366Y-13653960D02*
X9151938Y-13911103D01*
X9580509Y-13663484D02*
X9599557Y-13663484D01*
X9599557Y-13663484D02*
X9618604Y-13673008D01*
X9618604Y-13673008D02*
X9628128Y-13682531D01*
X9628128Y-13682531D02*
X9637652Y-13701579D01*
X9637652Y-13701579D02*
X9647176Y-13739674D01*
X9647176Y-13739674D02*
X9647176Y-13787293D01*
X9647176Y-13787293D02*
X9637652Y-13825388D01*
X9637652Y-13825388D02*
X9628128Y-13844436D01*
X9628128Y-13844436D02*
X9618604Y-13853960D01*
X9618604Y-13853960D02*
X9599557Y-13863484D01*
X9599557Y-13863484D02*
X9580509Y-13863484D01*
X9580509Y-13863484D02*
X9561462Y-13853960D01*
X9561462Y-13853960D02*
X9551938Y-13844436D01*
X9551938Y-13844436D02*
X9542414Y-13825388D01*
X9542414Y-13825388D02*
X9532890Y-13787293D01*
X9532890Y-13787293D02*
X9532890Y-13739674D01*
X9532890Y-13739674D02*
X9542414Y-13701579D01*
X9542414Y-13701579D02*
X9551938Y-13682531D01*
X9551938Y-13682531D02*
X9561462Y-13673008D01*
X9561462Y-13673008D02*
X9580509Y-13663484D01*
X9732890Y-13844436D02*
X9742414Y-13853960D01*
X9742414Y-13853960D02*
X9732890Y-13863484D01*
X9732890Y-13863484D02*
X9723366Y-13853960D01*
X9723366Y-13853960D02*
X9732890Y-13844436D01*
X9732890Y-13844436D02*
X9732890Y-13863484D01*
X9932890Y-13863484D02*
X9818604Y-13863484D01*
X9875747Y-13863484D02*
X9875747Y-13663484D01*
X9875747Y-13663484D02*
X9856700Y-13692055D01*
X9856700Y-13692055D02*
X9837652Y-13711103D01*
X9837652Y-13711103D02*
X9818604Y-13720627D01*
X10056700Y-13663484D02*
X10075747Y-13663484D01*
X10075747Y-13663484D02*
X10094795Y-13673008D01*
X10094795Y-13673008D02*
X10104319Y-13682531D01*
X10104319Y-13682531D02*
X10113843Y-13701579D01*
X10113843Y-13701579D02*
X10123366Y-13739674D01*
X10123366Y-13739674D02*
X10123366Y-13787293D01*
X10123366Y-13787293D02*
X10113843Y-13825388D01*
X10113843Y-13825388D02*
X10104319Y-13844436D01*
X10104319Y-13844436D02*
X10094795Y-13853960D01*
X10094795Y-13853960D02*
X10075747Y-13863484D01*
X10075747Y-13863484D02*
X10056700Y-13863484D01*
X10056700Y-13863484D02*
X10037652Y-13853960D01*
X10037652Y-13853960D02*
X10028128Y-13844436D01*
X10028128Y-13844436D02*
X10018604Y-13825388D01*
X10018604Y-13825388D02*
X10009081Y-13787293D01*
X10009081Y-13787293D02*
X10009081Y-13739674D01*
X10009081Y-13739674D02*
X10018604Y-13701579D01*
X10018604Y-13701579D02*
X10028128Y-13682531D01*
X10028128Y-13682531D02*
X10037652Y-13673008D01*
X10037652Y-13673008D02*
X10056700Y-13663484D01*
X10199557Y-13682531D02*
X10209081Y-13673008D01*
X10209081Y-13673008D02*
X10228128Y-13663484D01*
X10228128Y-13663484D02*
X10275747Y-13663484D01*
X10275747Y-13663484D02*
X10294795Y-13673008D01*
X10294795Y-13673008D02*
X10304319Y-13682531D01*
X10304319Y-13682531D02*
X10313843Y-13701579D01*
X10313843Y-13701579D02*
X10313843Y-13720627D01*
X10313843Y-13720627D02*
X10304319Y-13749198D01*
X10304319Y-13749198D02*
X10190033Y-13863484D01*
X10190033Y-13863484D02*
X10313843Y-13863484D01*
X10485271Y-13730150D02*
X10485271Y-13863484D01*
X10437652Y-13653960D02*
X10390033Y-13796817D01*
X10390033Y-13796817D02*
X10513843Y-13796817D01*
X10580509Y-13663484D02*
X10580509Y-13701579D01*
X10656700Y-13663484D02*
X10656700Y-13701579D01*
X10951938Y-13939674D02*
X10942414Y-13930150D01*
X10942414Y-13930150D02*
X10923366Y-13901579D01*
X10923366Y-13901579D02*
X10913843Y-13882531D01*
X10913843Y-13882531D02*
X10904319Y-13853960D01*
X10904319Y-13853960D02*
X10894795Y-13806341D01*
X10894795Y-13806341D02*
X10894795Y-13768246D01*
X10894795Y-13768246D02*
X10904319Y-13720627D01*
X10904319Y-13720627D02*
X10913843Y-13692055D01*
X10913843Y-13692055D02*
X10923366Y-13673008D01*
X10923366Y-13673008D02*
X10942414Y-13644436D01*
X10942414Y-13644436D02*
X10951938Y-13634912D01*
X11113843Y-13730150D02*
X11113843Y-13863484D01*
X11066224Y-13653960D02*
X11018605Y-13796817D01*
X11018605Y-13796817D02*
X11142414Y-13796817D01*
X11370985Y-13863484D02*
X11370985Y-13663484D01*
X11456700Y-13863484D02*
X11456700Y-13758722D01*
X11456700Y-13758722D02*
X11447176Y-13739674D01*
X11447176Y-13739674D02*
X11428128Y-13730150D01*
X11428128Y-13730150D02*
X11399557Y-13730150D01*
X11399557Y-13730150D02*
X11380509Y-13739674D01*
X11380509Y-13739674D02*
X11370985Y-13749198D01*
X11580509Y-13863484D02*
X11561462Y-13853960D01*
X11561462Y-13853960D02*
X11551938Y-13844436D01*
X11551938Y-13844436D02*
X11542414Y-13825388D01*
X11542414Y-13825388D02*
X11542414Y-13768246D01*
X11542414Y-13768246D02*
X11551938Y-13749198D01*
X11551938Y-13749198D02*
X11561462Y-13739674D01*
X11561462Y-13739674D02*
X11580509Y-13730150D01*
X11580509Y-13730150D02*
X11609081Y-13730150D01*
X11609081Y-13730150D02*
X11628128Y-13739674D01*
X11628128Y-13739674D02*
X11637652Y-13749198D01*
X11637652Y-13749198D02*
X11647176Y-13768246D01*
X11647176Y-13768246D02*
X11647176Y-13825388D01*
X11647176Y-13825388D02*
X11637652Y-13844436D01*
X11637652Y-13844436D02*
X11628128Y-13853960D01*
X11628128Y-13853960D02*
X11609081Y-13863484D01*
X11609081Y-13863484D02*
X11580509Y-13863484D01*
X11761462Y-13863484D02*
X11742414Y-13853960D01*
X11742414Y-13853960D02*
X11732890Y-13834912D01*
X11732890Y-13834912D02*
X11732890Y-13663484D01*
X11913843Y-13853960D02*
X11894795Y-13863484D01*
X11894795Y-13863484D02*
X11856700Y-13863484D01*
X11856700Y-13863484D02*
X11837652Y-13853960D01*
X11837652Y-13853960D02*
X11828128Y-13834912D01*
X11828128Y-13834912D02*
X11828128Y-13758722D01*
X11828128Y-13758722D02*
X11837652Y-13739674D01*
X11837652Y-13739674D02*
X11856700Y-13730150D01*
X11856700Y-13730150D02*
X11894795Y-13730150D01*
X11894795Y-13730150D02*
X11913843Y-13739674D01*
X11913843Y-13739674D02*
X11923366Y-13758722D01*
X11923366Y-13758722D02*
X11923366Y-13777769D01*
X11923366Y-13777769D02*
X11828128Y-13796817D01*
X11999557Y-13853960D02*
X12018605Y-13863484D01*
X12018605Y-13863484D02*
X12056700Y-13863484D01*
X12056700Y-13863484D02*
X12075747Y-13853960D01*
X12075747Y-13853960D02*
X12085271Y-13834912D01*
X12085271Y-13834912D02*
X12085271Y-13825388D01*
X12085271Y-13825388D02*
X12075747Y-13806341D01*
X12075747Y-13806341D02*
X12056700Y-13796817D01*
X12056700Y-13796817D02*
X12028128Y-13796817D01*
X12028128Y-13796817D02*
X12009081Y-13787293D01*
X12009081Y-13787293D02*
X11999557Y-13768246D01*
X11999557Y-13768246D02*
X11999557Y-13758722D01*
X11999557Y-13758722D02*
X12009081Y-13739674D01*
X12009081Y-13739674D02*
X12028128Y-13730150D01*
X12028128Y-13730150D02*
X12056700Y-13730150D01*
X12056700Y-13730150D02*
X12075747Y-13739674D01*
X12151938Y-13939674D02*
X12161462Y-13930150D01*
X12161462Y-13930150D02*
X12180509Y-13901579D01*
X12180509Y-13901579D02*
X12190033Y-13882531D01*
X12190033Y-13882531D02*
X12199557Y-13853960D01*
X12199557Y-13853960D02*
X12209081Y-13806341D01*
X12209081Y-13806341D02*
X12209081Y-13768246D01*
X12209081Y-13768246D02*
X12199557Y-13720627D01*
X12199557Y-13720627D02*
X12190033Y-13692055D01*
X12190033Y-13692055D02*
X12180509Y-13673008D01*
X12180509Y-13673008D02*
X12161462Y-13644436D01*
X12161462Y-13644436D02*
X12151938Y-13634912D01*
M02*
