M48
; DRILL file {KiCad 7.0.9} date Tue 16 Jan 2024 12:31:07 AM GMT
; FORMAT={-:-/ absolute / metric / decimal}
; #@! TF.CreationDate,2024-01-16T00:31:07+00:00
; #@! TF.GenerationSoftware,Kicad,Pcbnew,7.0.9
; #@! TF.FileFunction,Plated,1,2,PTH
FMAT,2
METRIC
; #@! TA.AperFunction,Plated,PTH,ViaDrill
T1C0.400
; #@! TA.AperFunction,Plated,PTH,ComponentDrill
T2C1.000
; #@! TA.AperFunction,Plated,PTH,ComponentDrill
T3C1.100
; #@! TA.AperFunction,Plated,PTH,ComponentDrill
T4C1.500
; #@! TA.AperFunction,Plated,PTH,ComponentDrill
T5C2.600
%
G90
G05
T1
X113.506Y-64.294
X156.369Y-61.912
T2
X91.43Y-115.094
X93.97Y-115.094
X96.51Y-115.094
X99.05Y-115.094
X109.96Y-66.12
X109.96Y-68.62
X109.96Y-71.12
X124.46Y-66.12
X124.46Y-71.12
X168.38Y-66.12
X168.38Y-68.62
X168.38Y-71.12
X182.88Y-66.12
X182.88Y-71.12
T3
X87.63Y-62.23
X87.63Y-64.77
X87.63Y-67.31
X87.63Y-69.85
X87.63Y-72.39
X87.63Y-74.93
X87.63Y-77.47
X87.63Y-80.01
X87.63Y-82.55
X87.63Y-85.09
X87.63Y-87.63
X87.63Y-90.17
X102.87Y-62.23
X102.87Y-64.77
X102.87Y-67.31
X102.87Y-69.85
X102.87Y-72.39
X102.87Y-74.93
X102.87Y-77.47
X102.87Y-80.01
X102.87Y-82.55
X102.87Y-85.09
X102.87Y-87.63
X102.87Y-90.17
T4
X114.3Y-85.09
X114.3Y-104.14
X120.65Y-82.55
X120.65Y-101.6
X133.35Y-66.04
X133.35Y-85.09
X133.35Y-104.14
X139.7Y-63.5
X139.7Y-82.55
X139.7Y-101.6
X152.4Y-66.04
X152.4Y-85.09
X152.4Y-104.14
X158.75Y-63.5
X158.75Y-82.55
X158.75Y-101.6
X171.45Y-85.09
X171.45Y-104.14
X177.8Y-82.55
X177.8Y-101.6
T5
X117.46Y-63.02
X117.46Y-74.22
X175.88Y-63.02
X175.88Y-74.22
T0
M30
