G04 #@! TF.GenerationSoftware,KiCad,Pcbnew,7.0.9*
G04 #@! TF.CreationDate,2024-01-16T00:29:48+00:00*
G04 #@! TF.ProjectId,AryA-Macropad,41727941-2d4d-4616-9372-6f7061642e6b,1.0*
G04 #@! TF.SameCoordinates,Original*
G04 #@! TF.FileFunction,Soldermask,Bot*
G04 #@! TF.FilePolarity,Negative*
%FSLAX46Y46*%
G04 Gerber Fmt 4.6, Leading zero omitted, Abs format (unit mm)*
G04 Created by KiCad (PCBNEW 7.0.9) date 2024-01-16 00:29:48*
%MOMM*%
%LPD*%
G01*
G04 APERTURE LIST*
G04 Aperture macros list*
%AMRoundRect*
0 Rectangle with rounded corners*
0 $1 Rounding radius*
0 $2 $3 $4 $5 $6 $7 $8 $9 X,Y pos of 4 corners*
0 Add a 4 corners polygon primitive as box body*
4,1,4,$2,$3,$4,$5,$6,$7,$8,$9,$2,$3,0*
0 Add four circle primitives for the rounded corners*
1,1,$1+$1,$2,$3*
1,1,$1+$1,$4,$5*
1,1,$1+$1,$6,$7*
1,1,$1+$1,$8,$9*
0 Add four rect primitives between the rounded corners*
20,1,$1+$1,$2,$3,$4,$5,0*
20,1,$1+$1,$4,$5,$6,$7,0*
20,1,$1+$1,$6,$7,$8,$9,0*
20,1,$1+$1,$8,$9,$2,$3,0*%
G04 Aperture macros list end*
%ADD10R,1.700000X1.700000*%
%ADD11O,1.700000X1.700000*%
%ADD12C,1.750000*%
%ADD13C,4.000000*%
%ADD14C,2.500000*%
%ADD15R,1.600000X1.600000*%
%ADD16C,1.600000*%
%ADD17R,2.000000X2.000000*%
%ADD18C,2.000000*%
%ADD19C,3.200000*%
%ADD20RoundRect,0.250000X-0.625000X0.400000X-0.625000X-0.400000X0.625000X-0.400000X0.625000X0.400000X0*%
%ADD21RoundRect,0.225000X0.225000X0.375000X-0.225000X0.375000X-0.225000X-0.375000X0.225000X-0.375000X0*%
%ADD22R,1.000000X1.500000*%
%ADD23RoundRect,0.250000X0.625000X-0.400000X0.625000X0.400000X-0.625000X0.400000X-0.625000X-0.400000X0*%
G04 APERTURE END LIST*
D10*
X99050000Y-115093750D03*
D11*
X96510000Y-115093750D03*
X93970000Y-115093750D03*
X91430000Y-115093750D03*
D12*
X132080000Y-68580000D03*
D13*
X137160000Y-68580000D03*
D12*
X142240000Y-68580000D03*
D14*
X133350000Y-66040000D03*
X139700000Y-63500000D03*
D12*
X151130000Y-106680000D03*
D13*
X156210000Y-106680000D03*
D12*
X161290000Y-106680000D03*
D14*
X152400000Y-104140000D03*
X158750000Y-101600000D03*
D12*
X151130000Y-87630000D03*
D13*
X156210000Y-87630000D03*
D12*
X161290000Y-87630000D03*
D14*
X152400000Y-85090000D03*
X158750000Y-82550000D03*
D12*
X113030000Y-87630000D03*
D13*
X118110000Y-87630000D03*
D12*
X123190000Y-87630000D03*
D14*
X114300000Y-85090000D03*
X120650000Y-82550000D03*
D12*
X170180000Y-87630000D03*
D13*
X175260000Y-87630000D03*
D12*
X180340000Y-87630000D03*
D14*
X171450000Y-85090000D03*
X177800000Y-82550000D03*
X80168750Y-64293750D03*
X190500000Y-64293750D03*
D12*
X170180000Y-106680000D03*
D13*
X175260000Y-106680000D03*
D12*
X180340000Y-106680000D03*
D14*
X171450000Y-104140000D03*
X177800000Y-101600000D03*
D15*
X87630000Y-62230000D03*
D16*
X87630000Y-64770000D03*
X87630000Y-67310000D03*
X87630000Y-69850000D03*
X87630000Y-72390000D03*
X87630000Y-74930000D03*
X87630000Y-77470000D03*
X87630000Y-80010000D03*
X87630000Y-82550000D03*
X87630000Y-85090000D03*
X87630000Y-87630000D03*
X87630000Y-90170000D03*
X102870000Y-90170000D03*
X102870000Y-87630000D03*
X102870000Y-85090000D03*
X102870000Y-82550000D03*
X102870000Y-80010000D03*
X102870000Y-77470000D03*
X102870000Y-74930000D03*
X102870000Y-72390000D03*
X102870000Y-69850000D03*
X102870000Y-67310000D03*
X102870000Y-64770000D03*
X102870000Y-62230000D03*
D17*
X109960000Y-66120000D03*
D18*
X109960000Y-71120000D03*
X109960000Y-68620000D03*
D19*
X117460000Y-63020000D03*
X117460000Y-74220000D03*
D18*
X124460000Y-71120000D03*
X124460000Y-66120000D03*
D14*
X80168750Y-114300000D03*
D12*
X132080000Y-87630000D03*
D13*
X137160000Y-87630000D03*
D12*
X142240000Y-87630000D03*
D14*
X133350000Y-85090000D03*
X139700000Y-82550000D03*
D12*
X113030000Y-106680000D03*
D13*
X118110000Y-106680000D03*
D12*
X123190000Y-106680000D03*
D14*
X114300000Y-104140000D03*
X120650000Y-101600000D03*
X190500000Y-114300000D03*
D17*
X168380000Y-66120000D03*
D18*
X168380000Y-71120000D03*
X168380000Y-68620000D03*
D19*
X175880000Y-63020000D03*
X175880000Y-74220000D03*
D18*
X182880000Y-71120000D03*
X182880000Y-66120000D03*
D12*
X132080000Y-106680000D03*
D13*
X137160000Y-106680000D03*
D12*
X142240000Y-106680000D03*
D14*
X133350000Y-104140000D03*
X139700000Y-101600000D03*
D12*
X151130000Y-68580000D03*
D13*
X156210000Y-68580000D03*
D12*
X161290000Y-68580000D03*
D14*
X152400000Y-66040000D03*
X158750000Y-63500000D03*
D20*
X165100000Y-68300000D03*
X165100000Y-71400000D03*
D21*
X154940000Y-115570000D03*
X151640000Y-115570000D03*
D22*
X134620000Y-111760000D03*
X133320000Y-111760000D03*
X115570000Y-92710000D03*
X114270000Y-92710000D03*
D21*
X154940000Y-77470000D03*
X151640000Y-77470000D03*
D22*
X180990000Y-74930000D03*
X179690000Y-74930000D03*
D21*
X135890000Y-115570000D03*
X132590000Y-115570000D03*
D22*
X172720000Y-111760000D03*
X171420000Y-111760000D03*
D21*
X123950000Y-78740000D03*
X120650000Y-78740000D03*
D22*
X134620000Y-73660000D03*
X133320000Y-73660000D03*
D21*
X154940000Y-96520000D03*
X151640000Y-96520000D03*
D23*
X106362500Y-69018750D03*
X106362500Y-65918750D03*
X92075000Y-72987500D03*
X92075000Y-69887500D03*
X98425000Y-72987500D03*
X98425000Y-69887500D03*
D22*
X153670000Y-92710000D03*
X152370000Y-92710000D03*
D21*
X115950000Y-115570000D03*
X112650000Y-115570000D03*
X173990000Y-96520000D03*
X170690000Y-96520000D03*
D22*
X123190000Y-74930000D03*
X121890000Y-74930000D03*
D21*
X135000000Y-77470000D03*
X131700000Y-77470000D03*
D22*
X134620000Y-92710000D03*
X133320000Y-92710000D03*
X115570000Y-111760000D03*
X114270000Y-111760000D03*
X153670000Y-111760000D03*
X152370000Y-111760000D03*
D21*
X116840000Y-96520000D03*
X113540000Y-96520000D03*
X135890000Y-96520000D03*
X132590000Y-96520000D03*
D22*
X172720000Y-92710000D03*
X171420000Y-92710000D03*
D20*
X165100000Y-62743750D03*
X165100000Y-65843750D03*
D23*
X106362500Y-74575000D03*
X106362500Y-71475000D03*
D21*
X181990000Y-78740000D03*
X178690000Y-78740000D03*
X173990000Y-115570000D03*
X170690000Y-115570000D03*
D22*
X153670000Y-73660000D03*
X152370000Y-73660000D03*
M02*
