G04 #@! TF.GenerationSoftware,KiCad,Pcbnew,7.0.9*
G04 #@! TF.CreationDate,2024-01-16T00:29:48+00:00*
G04 #@! TF.ProjectId,AryA-Macropad,41727941-2d4d-4616-9372-6f7061642e6b,1.0*
G04 #@! TF.SameCoordinates,Original*
G04 #@! TF.FileFunction,Soldermask,Top*
G04 #@! TF.FilePolarity,Negative*
%FSLAX46Y46*%
G04 Gerber Fmt 4.6, Leading zero omitted, Abs format (unit mm)*
G04 Created by KiCad (PCBNEW 7.0.9) date 2024-01-16 00:29:48*
%MOMM*%
%LPD*%
G01*
G04 APERTURE LIST*
%ADD10R,1.700000X1.700000*%
%ADD11O,1.700000X1.700000*%
%ADD12C,1.750000*%
%ADD13C,4.000000*%
%ADD14C,2.500000*%
%ADD15R,1.600000X1.600000*%
%ADD16C,1.600000*%
%ADD17R,2.000000X2.000000*%
%ADD18C,2.000000*%
%ADD19C,3.200000*%
G04 APERTURE END LIST*
D10*
X99050000Y-115093750D03*
D11*
X96510000Y-115093750D03*
X93970000Y-115093750D03*
X91430000Y-115093750D03*
D12*
X132080000Y-68580000D03*
D13*
X137160000Y-68580000D03*
D12*
X142240000Y-68580000D03*
D14*
X133350000Y-66040000D03*
X139700000Y-63500000D03*
D12*
X151130000Y-106680000D03*
D13*
X156210000Y-106680000D03*
D12*
X161290000Y-106680000D03*
D14*
X152400000Y-104140000D03*
X158750000Y-101600000D03*
D12*
X151130000Y-87630000D03*
D13*
X156210000Y-87630000D03*
D12*
X161290000Y-87630000D03*
D14*
X152400000Y-85090000D03*
X158750000Y-82550000D03*
D12*
X113030000Y-87630000D03*
D13*
X118110000Y-87630000D03*
D12*
X123190000Y-87630000D03*
D14*
X114300000Y-85090000D03*
X120650000Y-82550000D03*
D12*
X170180000Y-87630000D03*
D13*
X175260000Y-87630000D03*
D12*
X180340000Y-87630000D03*
D14*
X171450000Y-85090000D03*
X177800000Y-82550000D03*
X80168750Y-64293750D03*
X190500000Y-64293750D03*
D12*
X170180000Y-106680000D03*
D13*
X175260000Y-106680000D03*
D12*
X180340000Y-106680000D03*
D14*
X171450000Y-104140000D03*
X177800000Y-101600000D03*
D15*
X87630000Y-62230000D03*
D16*
X87630000Y-64770000D03*
X87630000Y-67310000D03*
X87630000Y-69850000D03*
X87630000Y-72390000D03*
X87630000Y-74930000D03*
X87630000Y-77470000D03*
X87630000Y-80010000D03*
X87630000Y-82550000D03*
X87630000Y-85090000D03*
X87630000Y-87630000D03*
X87630000Y-90170000D03*
X102870000Y-90170000D03*
X102870000Y-87630000D03*
X102870000Y-85090000D03*
X102870000Y-82550000D03*
X102870000Y-80010000D03*
X102870000Y-77470000D03*
X102870000Y-74930000D03*
X102870000Y-72390000D03*
X102870000Y-69850000D03*
X102870000Y-67310000D03*
X102870000Y-64770000D03*
X102870000Y-62230000D03*
D17*
X109960000Y-66120000D03*
D18*
X109960000Y-71120000D03*
X109960000Y-68620000D03*
D19*
X117460000Y-63020000D03*
X117460000Y-74220000D03*
D18*
X124460000Y-71120000D03*
X124460000Y-66120000D03*
D14*
X80168750Y-114300000D03*
D12*
X132080000Y-87630000D03*
D13*
X137160000Y-87630000D03*
D12*
X142240000Y-87630000D03*
D14*
X133350000Y-85090000D03*
X139700000Y-82550000D03*
D12*
X113030000Y-106680000D03*
D13*
X118110000Y-106680000D03*
D12*
X123190000Y-106680000D03*
D14*
X114300000Y-104140000D03*
X120650000Y-101600000D03*
X190500000Y-114300000D03*
D17*
X168380000Y-66120000D03*
D18*
X168380000Y-71120000D03*
X168380000Y-68620000D03*
D19*
X175880000Y-63020000D03*
X175880000Y-74220000D03*
D18*
X182880000Y-71120000D03*
X182880000Y-66120000D03*
D12*
X132080000Y-106680000D03*
D13*
X137160000Y-106680000D03*
D12*
X142240000Y-106680000D03*
D14*
X133350000Y-104140000D03*
X139700000Y-101600000D03*
D12*
X151130000Y-68580000D03*
D13*
X156210000Y-68580000D03*
D12*
X161290000Y-68580000D03*
D14*
X152400000Y-66040000D03*
X158750000Y-63500000D03*
M02*
